<svg width="292" height="255" viewBox="0 0 292 255" fill="none" xmlns="http://www.w3.org/2000/svg">
<circle cx="147.324" cy="132.766" r="107.5" fill="url(#paint0_linear_1134_1125)" stroke="#E1CFFF" stroke-width="8"/>
<path d="M87.1842 145.266V102.906H96.5442V145.266H87.1842ZM79.0242 110.886V102.906H95.9442V110.886H79.0242ZM120.54 145.926C117.14 145.926 114.06 145.006 111.3 143.166C108.54 141.326 106.36 138.766 104.76 135.486C103.2 132.166 102.42 128.346 102.42 124.026C102.42 119.666 103.2 115.866 104.76 112.626C106.32 109.346 108.46 106.806 111.18 105.006C113.9 103.166 116.98 102.246 120.42 102.246C123.9 102.246 127 103.166 129.72 105.006C132.44 106.806 134.58 109.346 136.14 112.626C137.74 115.906 138.54 119.726 138.54 124.086C138.54 128.446 137.74 132.266 136.14 135.546C134.58 138.826 132.44 141.386 129.72 143.226C127.04 145.026 123.98 145.926 120.54 145.926ZM120.48 137.586C122.24 137.586 123.76 137.086 125.04 136.086C126.32 135.046 127.3 133.526 127.98 131.526C128.7 129.486 129.06 127.006 129.06 124.086C129.06 121.126 128.7 118.646 127.98 116.646C127.3 114.646 126.32 113.146 125.04 112.146C123.76 111.106 122.22 110.586 120.42 110.586C118.7 110.586 117.18 111.086 115.86 112.086C114.58 113.086 113.6 114.586 112.92 116.586C112.24 118.586 111.9 121.066 111.9 124.026C111.9 126.986 112.24 129.466 112.92 131.466C113.6 133.466 114.58 134.986 115.86 136.026C117.18 137.066 118.72 137.586 120.48 137.586ZM170.161 145.266L153.001 123.186L169.621 102.906H181.261L162.541 124.926V121.086L181.861 145.266H170.161ZM144.541 145.266V102.906H153.961V145.266H144.541ZM185.706 129.006V121.386H213.606V129.006H185.706ZM195.786 110.526H203.586V139.746H195.786V110.526Z" fill="white"/>
<path d="M94.2242 175.596C92.4842 175.596 90.9842 175.316 89.7242 174.756C88.4842 174.176 87.3442 173.306 86.3042 172.146L89.3642 169.116C90.0442 169.896 90.7942 170.506 91.6142 170.946C92.4542 171.366 93.4242 171.576 94.5242 171.576C95.5242 171.576 96.2942 171.396 96.8342 171.036C97.3942 170.676 97.6742 170.176 97.6742 169.536C97.6742 168.956 97.4942 168.486 97.1342 168.126C96.7742 167.766 96.2942 167.456 95.6942 167.196C95.1142 166.936 94.4642 166.686 93.7442 166.446C93.0442 166.206 92.3442 165.936 91.6442 165.636C90.9442 165.316 90.2942 164.926 89.6942 164.466C89.1142 163.986 88.6442 163.396 88.2842 162.696C87.9242 161.976 87.7442 161.076 87.7442 159.996C87.7442 158.696 88.0542 157.576 88.6742 156.636C89.3142 155.696 90.1942 154.986 91.3142 154.506C92.4342 154.006 93.7242 153.756 95.1842 153.756C96.6642 153.756 98.0142 154.016 99.2342 154.536C100.474 155.056 101.494 155.766 102.294 156.666L99.2342 159.696C98.5942 159.036 97.9442 158.546 97.2842 158.226C96.6442 157.906 95.9142 157.746 95.0942 157.746C94.2742 157.746 93.6242 157.906 93.1442 158.226C92.6642 158.526 92.4242 158.966 92.4242 159.546C92.4242 160.086 92.6042 160.526 92.9642 160.866C93.3242 161.186 93.7942 161.466 94.3742 161.706C94.9742 161.946 95.6242 162.186 96.3242 162.426C97.0442 162.666 97.7542 162.946 98.4542 163.266C99.1542 163.586 99.7942 163.996 100.374 164.496C100.974 164.976 101.454 165.596 101.814 166.356C102.174 167.096 102.354 168.016 102.354 169.116C102.354 171.136 101.634 172.726 100.194 173.886C98.7542 175.026 96.7642 175.596 94.2242 175.596ZM107.004 175.266V154.656H111.594V175.266H107.004ZM103.704 164.586V160.686H114.894V164.586H103.704ZM123.397 175.596C122.057 175.596 120.867 175.326 119.827 174.786C118.807 174.226 118.007 173.466 117.427 172.506C116.847 171.526 116.557 170.406 116.557 169.146V160.686H121.147V169.086C121.147 169.586 121.227 170.016 121.387 170.376C121.567 170.736 121.827 171.016 122.167 171.216C122.507 171.416 122.917 171.516 123.397 171.516C124.077 171.516 124.617 171.306 125.017 170.886C125.417 170.446 125.617 169.846 125.617 169.086V160.686H130.207V169.116C130.207 170.396 129.917 171.526 129.337 172.506C128.757 173.466 127.957 174.226 126.937 174.786C125.917 175.326 124.737 175.596 123.397 175.596ZM139.299 175.566C137.919 175.566 136.689 175.236 135.609 174.576C134.549 173.916 133.709 173.016 133.089 171.876C132.489 170.736 132.189 169.436 132.189 167.976C132.189 166.516 132.489 165.216 133.089 164.076C133.709 162.936 134.549 162.036 135.609 161.376C136.689 160.716 137.919 160.386 139.299 160.386C140.299 160.386 141.199 160.576 141.999 160.956C142.819 161.336 143.489 161.866 144.009 162.546C144.549 163.206 144.849 163.966 144.909 164.826V170.976C144.849 171.836 144.559 172.616 144.039 173.316C143.519 173.996 142.849 174.546 142.029 174.966C141.209 175.366 140.299 175.566 139.299 175.566ZM140.109 171.426C140.769 171.426 141.339 171.286 141.819 171.006C142.299 170.706 142.679 170.296 142.959 169.776C143.239 169.256 143.379 168.656 143.379 167.976C143.379 167.296 143.239 166.706 142.959 166.206C142.699 165.686 142.319 165.276 141.819 164.976C141.339 164.676 140.779 164.526 140.139 164.526C139.499 164.526 138.929 164.676 138.429 164.976C137.949 165.276 137.559 165.686 137.259 166.206C136.979 166.726 136.839 167.316 136.839 167.976C136.839 168.636 136.979 169.226 137.259 169.746C137.539 170.266 137.929 170.676 138.429 170.976C138.929 171.276 139.489 171.426 140.109 171.426ZM147.699 175.266H143.199V171.336L143.889 167.796L143.109 164.256V153.486H147.699V175.266ZM158.131 175.596C156.551 175.596 155.141 175.276 153.901 174.636C152.681 173.976 151.721 173.066 151.021 171.906C150.321 170.746 149.971 169.436 149.971 167.976C149.971 166.516 150.311 165.216 150.991 164.076C151.691 162.916 152.631 162.006 153.811 161.346C154.991 160.686 156.321 160.356 157.801 160.356C159.241 160.356 160.511 160.666 161.611 161.286C162.711 161.906 163.571 162.766 164.191 163.866C164.831 164.966 165.151 166.226 165.151 167.646C165.151 167.906 165.131 168.186 165.091 168.486C165.071 168.766 165.021 169.096 164.941 169.476L152.371 169.506V166.356L162.991 166.326L161.011 167.646C160.991 166.806 160.861 166.116 160.621 165.576C160.381 165.016 160.021 164.596 159.541 164.316C159.081 164.016 158.511 163.866 157.831 163.866C157.111 163.866 156.481 164.036 155.941 164.376C155.421 164.696 155.011 165.156 154.711 165.756C154.431 166.356 154.291 167.086 154.291 167.946C154.291 168.806 154.441 169.546 154.741 170.166C155.061 170.766 155.501 171.236 156.061 171.576C156.641 171.896 157.321 172.056 158.101 172.056C158.821 172.056 159.471 171.936 160.051 171.696C160.631 171.436 161.141 171.056 161.581 170.556L164.101 173.076C163.381 173.916 162.511 174.546 161.491 174.966C160.471 175.386 159.351 175.596 158.131 175.596ZM176.996 175.266V166.956C176.996 166.196 176.756 165.586 176.276 165.126C175.816 164.646 175.226 164.406 174.506 164.406C174.006 164.406 173.566 164.516 173.186 164.736C172.806 164.936 172.506 165.236 172.286 165.636C172.066 166.016 171.956 166.456 171.956 166.956L170.186 166.086C170.186 164.946 170.436 163.946 170.936 163.086C171.436 162.226 172.126 161.566 173.006 161.106C173.906 160.626 174.916 160.386 176.036 160.386C177.116 160.386 178.066 160.646 178.886 161.166C179.726 161.666 180.386 162.336 180.866 163.176C181.346 164.016 181.586 164.936 181.586 165.936V175.266H176.996ZM167.366 175.266V160.686H171.956V175.266H167.366ZM186.428 175.266V154.656H191.018V175.266H186.428ZM183.128 164.586V160.686H194.318V164.586H183.128ZM201.358 175.626C200.498 175.626 199.648 175.516 198.808 175.296C197.988 175.076 197.218 174.766 196.498 174.366C195.798 173.946 195.198 173.466 194.698 172.926L197.308 170.286C197.788 170.806 198.358 171.216 199.018 171.516C199.678 171.796 200.398 171.936 201.178 171.936C201.718 171.936 202.128 171.856 202.408 171.696C202.708 171.536 202.858 171.316 202.858 171.036C202.858 170.676 202.678 170.406 202.318 170.226C201.978 170.026 201.538 169.856 200.998 169.716C200.458 169.556 199.888 169.386 199.288 169.206C198.688 169.026 198.118 168.776 197.578 168.456C197.038 168.136 196.598 167.696 196.258 167.136C195.918 166.556 195.748 165.826 195.748 164.946C195.748 164.006 195.988 163.196 196.468 162.516C196.948 161.816 197.628 161.266 198.508 160.866C199.388 160.466 200.418 160.266 201.598 160.266C202.838 160.266 203.978 160.486 205.018 160.926C206.078 161.346 206.938 161.976 207.598 162.816L204.988 165.456C204.528 164.916 204.008 164.536 203.428 164.316C202.868 164.096 202.318 163.986 201.778 163.986C201.258 163.986 200.868 164.066 200.608 164.226C200.348 164.366 200.218 164.576 200.218 164.856C200.218 165.156 200.388 165.396 200.728 165.576C201.068 165.756 201.508 165.916 202.048 166.056C202.588 166.196 203.158 166.366 203.758 166.566C204.358 166.766 204.928 167.036 205.468 167.376C206.008 167.716 206.448 168.176 206.788 168.756C207.128 169.316 207.298 170.056 207.298 170.976C207.298 172.396 206.758 173.526 205.678 174.366C204.618 175.206 203.178 175.626 201.358 175.626Z" fill="white"/>
<g filter="url(#filter0_d_1134_1125)">
<rect x="217.051" y="158.553" width="2.08696" height="3.55555" rx="1.04348" transform="rotate(-15.8255 217.051 158.553)" fill="#C09525"/>
<path d="M225.999 154.697C226.343 155.909 225.639 157.17 224.427 157.513L212.306 160.949C211.094 161.292 209.834 160.588 209.49 159.377L209.437 159.19C209.123 158.081 209.767 156.928 210.875 156.614V156.614L211.528 158.92L224.024 155.378L223.371 153.072V153.072C224.479 152.758 225.632 153.402 225.946 154.51L225.999 154.697Z" fill="#836600"/>
<path d="M225.921 154.421C226.265 155.633 225.561 156.893 224.349 157.237L212.228 160.672C211.016 161.016 209.756 160.312 209.412 159.101L209.359 158.913C209.045 157.805 209.689 156.652 210.797 156.338V156.338L211.45 158.643L223.946 155.101L223.293 152.796V152.796C224.401 152.482 225.554 153.126 225.868 154.234L225.921 154.421Z" fill="#F4CC3F"/>
<path d="M223.961 155.152L211.468 158.693L208.379 147.798L214.626 146.027L220.873 144.257L223.961 155.152Z" fill="#AA75CB"/>
<path d="M220.105 156.244L215.323 157.6L212.235 146.705L217.017 145.349L220.105 156.244Z" fill="#73488D"/>
<path opacity="0.5" d="M221.312 145.773L208.741 149.336L208.31 147.817L220.882 144.253L221.312 145.773Z" fill="url(#paint1_linear_1134_1125)"/>
<path d="M211.309 157.862L223.742 154.338L223.977 155.167L211.544 158.691L211.309 157.862Z" fill="url(#paint2_linear_1134_1125)"/>
<path d="M217.605 161.42C218.15 160.598 219.213 160.297 220.108 160.711V160.711C220.684 160.977 221.352 160.954 221.908 160.648V160.648C222.772 160.174 223.853 160.401 224.453 161.183V161.183C224.839 161.687 225.441 161.977 226.076 161.965V161.965C227.062 161.946 227.914 162.649 228.081 163.621V163.621C228.189 164.246 228.587 164.783 229.155 165.067V165.067C230.036 165.508 230.464 166.527 230.16 167.466V167.466C229.965 168.069 230.069 168.73 230.439 169.245V169.245C231.015 170.045 230.919 171.146 230.215 171.836V171.836C229.762 172.28 229.546 172.913 229.635 173.541V173.541C229.773 174.517 229.177 175.448 228.232 175.731V175.731C227.625 175.914 227.14 176.374 226.926 176.971V176.971C226.594 177.9 225.634 178.447 224.666 178.259V178.259C224.044 178.138 223.4 178.321 222.934 178.75V178.75C222.208 179.418 221.104 179.456 220.334 178.84V178.84C219.839 178.444 219.185 178.306 218.572 178.47V178.47C217.619 178.724 216.624 178.245 216.228 177.341V177.341C215.974 176.76 215.459 176.334 214.84 176.194V176.194C213.878 175.977 213.22 175.09 213.289 174.106V174.106C213.334 173.473 213.076 172.857 212.593 172.445V172.445C211.843 171.806 211.672 170.714 212.19 169.875V169.875C212.524 169.336 212.582 168.67 212.346 168.081V168.081C211.978 167.166 212.334 166.12 213.183 165.619V165.619C213.73 165.296 214.09 164.734 214.155 164.102V164.102C214.255 163.122 215.056 162.361 216.041 162.311V162.311C216.674 162.28 217.255 161.949 217.605 161.42V161.42Z" fill="url(#paint3_linear_1134_1125)"/>
<circle cx="221.301" cy="169.715" r="7.14975" transform="rotate(-15.8255 221.301 169.715)" fill="#705100"/>
<mask id="mask0_1134_1125" style="mask-type:alpha" maskUnits="userSpaceOnUse" x="214" y="163" width="16" height="15">
<circle cx="221.873" cy="170.346" r="7.16639" transform="rotate(-15.8255 221.873 170.346)" fill="#C28B37"/>
</mask>
<g mask="url(#mask0_1134_1125)">
<circle cx="221.298" cy="169.716" r="7.16639" transform="rotate(-15.8255 221.298 169.716)" fill="#E3A504"/>
</g>
<ellipse cx="221.593" cy="170.004" rx="5.62917" ry="5.71996" transform="rotate(-15.8255 221.593 170.004)" fill="#A36D1D"/>
<circle opacity="0.8" cx="221.565" cy="169.917" r="5.266" transform="rotate(-15.8255 221.565 169.917)" fill="url(#paint4_linear_1134_1125)"/>
<ellipse cx="221.654" cy="169.892" rx="2.99617" ry="3.08696" transform="rotate(-15.8255 221.654 169.892)" fill="#B5760C"/>
<circle opacity="0.8" cx="221.628" cy="169.805" r="2.81458" transform="rotate(-15.8255 221.628 169.805)" fill="url(#paint5_linear_1134_1125)"/>
</g>
<circle cx="146.824" cy="77.2661" r="17" fill="white"/>
<path d="M139.824 83.2661H143.824C145.481 83.2661 146.824 84.6093 146.824 86.2661V76.2661C146.824 73.4377 146.824 72.0235 145.946 71.1448C145.067 70.2661 143.653 70.2661 140.824 70.2661H139.824C138.881 70.2661 138.41 70.2661 138.117 70.559C137.824 70.8519 137.824 71.3233 137.824 72.2661V81.2661C137.824 82.2089 137.824 82.6803 138.117 82.9732C138.41 83.2661 138.881 83.2661 139.824 83.2661Z" fill="#DFDAFF" stroke="#7949EC" stroke-width="1.2"/>
<path d="M153.824 83.2661H149.824C148.167 83.2661 146.824 84.6093 146.824 86.2661V76.2661C146.824 73.4377 146.824 72.0235 147.703 71.1448C148.582 70.2661 149.996 70.2661 152.824 70.2661H153.824C154.767 70.2661 155.238 70.2661 155.531 70.559C155.824 70.8519 155.824 71.3233 155.824 72.2661V81.2661C155.824 82.2089 155.824 82.6803 155.531 82.9732C155.238 83.2661 154.767 83.2661 153.824 83.2661Z" fill="#DFDAFF" stroke="#7949EC" stroke-width="1.2"/>
<g filter="url(#filter1_d_1134_1125)">
<rect x="77.8242" y="217.266" width="139" height="34" rx="17" fill="white"/>
</g>
<circle cx="94.8242" cy="234.266" r="13" fill="#DFDAFF"/>
<path d="M101.203 234.766C101.203 235.042 101.427 235.266 101.703 235.266C101.979 235.266 102.203 235.042 102.203 234.766L101.203 234.766ZM101.203 231.266L101.203 234.766L102.203 234.766L102.203 231.266L101.203 231.266Z" fill="#7949EC"/>
<path fill-rule="evenodd" clip-rule="evenodd" d="M90.186 233.947C90.0198 233.864 89.8242 233.985 89.8242 234.171V237.266C89.8242 237.266 89.8242 237.266 89.8242 237.266C89.8242 237.266 89.8242 240.266 94.8242 240.266C99.8242 240.266 99.8242 237.266 99.8242 237.266C99.8242 237.266 99.8242 237.266 99.8242 237.266V234.171C99.8242 233.985 99.6286 233.864 99.4624 233.947L95.2714 236.043C94.9899 236.183 94.6585 236.183 94.377 236.043L90.186 233.947Z" fill="#7949EC"/>
<path d="M87.7186 230.819L94.6006 227.378C94.7414 227.308 94.9071 227.308 95.0478 227.378L101.93 230.819C102.298 231.003 102.298 231.529 101.93 231.713L95.0478 235.154C94.9071 235.225 94.7414 235.225 94.6006 235.154L87.7186 231.713C87.3501 231.529 87.3501 231.003 87.7186 230.819Z" fill="#7949EC"/>
<path d="M118.588 234.386C117.988 234.386 117.432 234.278 116.92 234.062C116.408 233.838 115.96 233.53 115.576 233.138C115.2 232.746 114.908 232.29 114.7 231.77C114.492 231.25 114.388 230.694 114.388 230.102C114.388 229.502 114.492 228.942 114.7 228.422C114.908 227.902 115.2 227.45 115.576 227.066C115.96 226.674 116.404 226.37 116.908 226.154C117.42 225.93 117.976 225.818 118.576 225.818C119.232 225.818 119.808 225.93 120.304 226.154C120.8 226.378 121.24 226.682 121.624 227.066L120.844 227.846C120.58 227.55 120.256 227.318 119.872 227.15C119.496 226.982 119.064 226.898 118.576 226.898C118.136 226.898 117.732 226.978 117.364 227.138C116.996 227.29 116.676 227.51 116.404 227.798C116.132 228.086 115.92 228.426 115.768 228.818C115.624 229.21 115.552 229.638 115.552 230.102C115.552 230.566 115.624 230.994 115.768 231.386C115.92 231.778 116.132 232.118 116.404 232.406C116.676 232.694 116.996 232.918 117.364 233.078C117.732 233.23 118.136 233.306 118.576 233.306C119.096 233.306 119.548 233.222 119.932 233.054C120.316 232.878 120.64 232.642 120.904 232.346L121.684 233.114C121.3 233.514 120.848 233.826 120.328 234.05C119.816 234.274 119.236 234.386 118.588 234.386ZM125.283 234.386C124.723 234.386 124.219 234.254 123.771 233.99C123.323 233.726 122.967 233.37 122.703 232.922C122.439 232.466 122.307 231.958 122.307 231.398C122.307 230.846 122.439 230.35 122.703 229.91C122.967 229.462 123.323 229.106 123.771 228.842C124.219 228.578 124.723 228.446 125.283 228.446C125.835 228.446 126.335 228.578 126.783 228.842C127.239 229.098 127.599 229.45 127.863 229.898C128.127 230.346 128.259 230.846 128.259 231.398C128.259 231.958 128.127 232.466 127.863 232.922C127.599 233.37 127.239 233.726 126.783 233.99C126.335 234.254 125.835 234.386 125.283 234.386ZM125.283 233.342C125.643 233.342 125.963 233.258 126.243 233.09C126.523 232.922 126.743 232.694 126.903 232.406C127.063 232.11 127.143 231.774 127.143 231.398C127.143 231.03 127.059 230.702 126.891 230.414C126.731 230.126 126.511 229.902 126.231 229.742C125.959 229.574 125.643 229.49 125.283 229.49C124.923 229.49 124.603 229.574 124.323 229.742C124.043 229.902 123.823 230.126 123.663 230.414C123.503 230.702 123.423 231.03 123.423 231.398C123.423 231.774 123.503 232.11 123.663 232.406C123.823 232.694 124.043 232.922 124.323 233.09C124.603 233.258 124.923 233.342 125.283 233.342ZM133.508 234.266V230.942C133.508 230.51 133.372 230.154 133.1 229.874C132.828 229.594 132.476 229.454 132.044 229.454C131.756 229.454 131.5 229.518 131.276 229.646C131.052 229.774 130.876 229.95 130.748 230.174C130.62 230.398 130.556 230.654 130.556 230.942L130.112 230.69C130.112 230.258 130.208 229.874 130.4 229.538C130.592 229.202 130.86 228.938 131.204 228.746C131.548 228.546 131.936 228.446 132.368 228.446C132.8 228.446 133.18 228.554 133.508 228.77C133.844 228.986 134.108 229.27 134.3 229.622C134.492 229.966 134.588 230.334 134.588 230.726V234.266H133.508ZM129.476 234.266V228.566H130.556V234.266H129.476ZM138.414 236.774C137.83 236.774 137.31 236.666 136.854 236.45C136.406 236.234 136.046 235.93 135.774 235.538L136.47 234.83C136.702 235.126 136.978 235.35 137.298 235.502C137.618 235.662 137.998 235.742 138.438 235.742C139.022 235.742 139.482 235.586 139.818 235.274C140.162 234.97 140.334 234.558 140.334 234.038V232.622L140.526 231.338L140.334 230.066V228.566H141.414V234.038C141.414 234.582 141.286 235.058 141.03 235.466C140.782 235.874 140.43 236.194 139.974 236.426C139.526 236.658 139.006 236.774 138.414 236.774ZM138.414 234.17C137.894 234.17 137.426 234.046 137.01 233.798C136.602 233.55 136.278 233.21 136.038 232.778C135.798 232.338 135.678 231.846 135.678 231.302C135.678 230.758 135.798 230.274 136.038 229.85C136.278 229.418 136.602 229.078 137.01 228.83C137.426 228.574 137.894 228.446 138.414 228.446C138.862 228.446 139.258 228.534 139.602 228.71C139.946 228.886 140.218 229.134 140.418 229.454C140.626 229.766 140.738 230.134 140.754 230.558V232.07C140.73 232.486 140.614 232.854 140.406 233.174C140.206 233.486 139.934 233.73 139.59 233.906C139.246 234.082 138.854 234.17 138.414 234.17ZM138.63 233.15C138.982 233.15 139.29 233.074 139.554 232.922C139.826 232.77 140.034 232.558 140.178 232.286C140.322 232.006 140.394 231.682 140.394 231.314C140.394 230.946 140.318 230.626 140.166 230.354C140.022 230.074 139.818 229.858 139.554 229.706C139.29 229.546 138.978 229.466 138.618 229.466C138.258 229.466 137.942 229.546 137.67 229.706C137.398 229.858 137.182 230.074 137.022 230.354C136.87 230.626 136.794 230.942 136.794 231.302C136.794 231.662 136.87 231.982 137.022 232.262C137.182 232.542 137.398 232.762 137.67 232.922C137.95 233.074 138.27 233.15 138.63 233.15ZM142.999 234.266V228.566H144.079V234.266H142.999ZM144.079 231.014L143.671 230.834C143.671 230.106 143.839 229.526 144.175 229.094C144.511 228.662 144.995 228.446 145.627 228.446C145.915 228.446 146.175 228.498 146.407 228.602C146.639 228.698 146.855 228.862 147.055 229.094L146.347 229.826C146.227 229.698 146.095 229.606 145.951 229.55C145.807 229.494 145.639 229.466 145.447 229.466C145.047 229.466 144.719 229.594 144.463 229.85C144.207 230.106 144.079 230.494 144.079 231.014ZM150.052 234.386C149.532 234.386 149.06 234.258 148.636 234.002C148.212 233.738 147.876 233.382 147.628 232.934C147.388 232.486 147.268 231.982 147.268 231.422C147.268 230.862 147.388 230.358 147.628 229.91C147.876 229.462 148.208 229.106 148.624 228.842C149.048 228.578 149.524 228.446 150.052 228.446C150.484 228.446 150.868 228.538 151.204 228.722C151.548 228.898 151.824 229.146 152.032 229.466C152.24 229.778 152.356 230.142 152.38 230.558V232.274C152.356 232.682 152.24 233.046 152.032 233.366C151.832 233.686 151.56 233.938 151.216 234.122C150.88 234.298 150.492 234.386 150.052 234.386ZM150.232 233.366C150.768 233.366 151.2 233.186 151.528 232.826C151.856 232.458 152.02 231.99 152.02 231.422C152.02 231.03 151.944 230.69 151.792 230.402C151.648 230.106 151.44 229.878 151.168 229.718C150.896 229.55 150.58 229.466 150.22 229.466C149.86 229.466 149.54 229.55 149.26 229.718C148.988 229.886 148.772 230.118 148.612 230.414C148.46 230.702 148.384 231.034 148.384 231.41C148.384 231.794 148.46 232.134 148.612 232.43C148.772 232.718 148.992 232.946 149.272 233.114C149.552 233.282 149.872 233.366 150.232 233.366ZM151.948 234.266V232.73L152.152 231.338L151.948 229.958V228.566H153.04V234.266H151.948ZM155.465 234.266V226.178H156.545V234.266H155.465ZM154.061 229.55V228.566H157.949V229.55H154.061ZM161.299 234.386C160.835 234.386 160.415 234.282 160.039 234.074C159.671 233.858 159.383 233.562 159.175 233.186C158.967 232.81 158.863 232.374 158.863 231.878V228.566H159.943V231.83C159.943 232.142 159.995 232.414 160.099 232.646C160.211 232.87 160.371 233.042 160.579 233.162C160.787 233.282 161.031 233.342 161.311 233.342C161.735 233.342 162.067 233.21 162.307 232.946C162.547 232.674 162.667 232.302 162.667 231.83V228.566H163.747V231.878C163.747 232.374 163.643 232.81 163.435 233.186C163.227 233.562 162.939 233.858 162.571 234.074C162.211 234.282 161.787 234.386 161.299 234.386ZM165.194 234.266V225.698H166.274V234.266H165.194ZM170.279 234.386C169.759 234.386 169.287 234.258 168.863 234.002C168.439 233.738 168.103 233.382 167.854 232.934C167.615 232.486 167.495 231.982 167.495 231.422C167.495 230.862 167.615 230.358 167.854 229.91C168.103 229.462 168.435 229.106 168.851 228.842C169.275 228.578 169.751 228.446 170.279 228.446C170.711 228.446 171.095 228.538 171.431 228.722C171.775 228.898 172.051 229.146 172.259 229.466C172.467 229.778 172.583 230.142 172.607 230.558V232.274C172.583 232.682 172.467 233.046 172.259 233.366C172.059 233.686 171.787 233.938 171.443 234.122C171.107 234.298 170.719 234.386 170.279 234.386ZM170.459 233.366C170.995 233.366 171.427 233.186 171.755 232.826C172.083 232.458 172.247 231.99 172.247 231.422C172.247 231.03 172.171 230.69 172.019 230.402C171.875 230.106 171.667 229.878 171.395 229.718C171.123 229.55 170.807 229.466 170.447 229.466C170.087 229.466 169.767 229.55 169.487 229.718C169.215 229.886 168.999 230.118 168.839 230.414C168.687 230.702 168.611 231.034 168.611 231.41C168.611 231.794 168.687 232.134 168.839 232.43C168.999 232.718 169.219 232.946 169.499 233.114C169.779 233.282 170.099 233.366 170.459 233.366ZM172.175 234.266V232.73L172.379 231.338L172.175 229.958V228.566H173.267V234.266H172.175ZM175.691 234.266V226.178H176.771V234.266H175.691ZM174.287 229.55V228.566H178.175V229.55H174.287ZM179.245 234.266V228.566H180.325V234.266H179.245ZM179.785 227.426C179.585 227.426 179.421 227.362 179.293 227.234C179.165 227.098 179.101 226.93 179.101 226.73C179.101 226.538 179.165 226.378 179.293 226.25C179.421 226.114 179.585 226.046 179.785 226.046C179.985 226.046 180.149 226.114 180.277 226.25C180.405 226.378 180.469 226.538 180.469 226.73C180.469 226.93 180.405 227.098 180.277 227.234C180.149 227.362 179.985 227.426 179.785 227.426ZM184.521 234.386C183.961 234.386 183.457 234.254 183.009 233.99C182.561 233.726 182.205 233.37 181.941 232.922C181.677 232.466 181.545 231.958 181.545 231.398C181.545 230.846 181.677 230.35 181.941 229.91C182.205 229.462 182.561 229.106 183.009 228.842C183.457 228.578 183.961 228.446 184.521 228.446C185.073 228.446 185.573 228.578 186.021 228.842C186.477 229.098 186.837 229.45 187.101 229.898C187.365 230.346 187.497 230.846 187.497 231.398C187.497 231.958 187.365 232.466 187.101 232.922C186.837 233.37 186.477 233.726 186.021 233.99C185.573 234.254 185.073 234.386 184.521 234.386ZM184.521 233.342C184.881 233.342 185.201 233.258 185.481 233.09C185.761 232.922 185.981 232.694 186.141 232.406C186.301 232.11 186.381 231.774 186.381 231.398C186.381 231.03 186.297 230.702 186.129 230.414C185.969 230.126 185.749 229.902 185.469 229.742C185.197 229.574 184.881 229.49 184.521 229.49C184.161 229.49 183.841 229.574 183.561 229.742C183.281 229.902 183.061 230.126 182.901 230.414C182.741 230.702 182.661 231.03 182.661 231.398C182.661 231.774 182.741 232.11 182.901 232.406C183.061 232.694 183.281 232.922 183.561 233.09C183.841 233.258 184.161 233.342 184.521 233.342ZM192.746 234.266V230.942C192.746 230.51 192.61 230.154 192.338 229.874C192.066 229.594 191.714 229.454 191.282 229.454C190.994 229.454 190.738 229.518 190.514 229.646C190.29 229.774 190.114 229.95 189.986 230.174C189.858 230.398 189.794 230.654 189.794 230.942L189.35 230.69C189.35 230.258 189.446 229.874 189.638 229.538C189.83 229.202 190.098 228.938 190.442 228.746C190.786 228.546 191.174 228.446 191.606 228.446C192.038 228.446 192.418 228.554 192.746 228.77C193.082 228.986 193.346 229.27 193.538 229.622C193.73 229.966 193.826 230.334 193.826 230.726V234.266H192.746ZM188.714 234.266V228.566H189.794V234.266H188.714ZM197.1 234.386C196.78 234.386 196.476 234.346 196.188 234.266C195.908 234.178 195.648 234.058 195.408 233.906C195.168 233.746 194.96 233.558 194.784 233.342L195.48 232.646C195.688 232.902 195.928 233.094 196.2 233.222C196.472 233.342 196.776 233.402 197.112 233.402C197.448 233.402 197.708 233.346 197.892 233.234C198.076 233.114 198.168 232.95 198.168 232.742C198.168 232.534 198.092 232.374 197.94 232.262C197.796 232.142 197.608 232.046 197.376 231.974C197.144 231.894 196.896 231.818 196.632 231.746C196.376 231.666 196.132 231.566 195.9 231.446C195.668 231.326 195.476 231.162 195.324 230.954C195.18 230.746 195.108 230.47 195.108 230.126C195.108 229.782 195.192 229.486 195.36 229.238C195.528 228.982 195.76 228.786 196.056 228.65C196.36 228.514 196.724 228.446 197.148 228.446C197.596 228.446 197.992 228.526 198.336 228.686C198.688 228.838 198.976 229.07 199.2 229.382L198.504 230.078C198.344 229.87 198.144 229.71 197.904 229.598C197.672 229.486 197.408 229.43 197.112 229.43C196.8 229.43 196.56 229.486 196.392 229.598C196.232 229.702 196.152 229.85 196.152 230.042C196.152 230.234 196.224 230.382 196.368 230.486C196.512 230.59 196.7 230.678 196.932 230.75C197.172 230.822 197.42 230.898 197.676 230.978C197.932 231.05 198.176 231.15 198.408 231.278C198.64 231.406 198.828 231.578 198.972 231.794C199.124 232.01 199.2 232.294 199.2 232.646C199.2 233.182 199.008 233.606 198.624 233.918C198.248 234.23 197.74 234.386 197.1 234.386ZM200.733 231.626L200.577 225.698H201.729L201.573 231.626H200.733ZM201.141 234.386C200.917 234.386 200.733 234.31 200.589 234.158C200.445 234.006 200.373 233.818 200.373 233.594C200.373 233.37 200.445 233.186 200.589 233.042C200.733 232.89 200.917 232.814 201.141 232.814C201.373 232.814 201.561 232.89 201.705 233.042C201.849 233.186 201.921 233.37 201.921 233.594C201.921 233.818 201.849 234.006 201.705 234.158C201.561 234.31 201.373 234.386 201.141 234.386Z" fill="black"/>
<path d="M115.938 242.292L114.027 239.408H114.79L116.33 241.767H115.987L117.534 239.408H118.283L116.358 242.292H115.938ZM115.826 244.266V241.858H116.484V244.266H115.826ZM119.428 244.336C119.102 244.336 118.808 244.259 118.546 244.105C118.285 243.951 118.077 243.743 117.923 243.482C117.769 243.216 117.692 242.92 117.692 242.593C117.692 242.271 117.769 241.982 117.923 241.725C118.077 241.464 118.285 241.256 118.546 241.102C118.808 240.948 119.102 240.871 119.428 240.871C119.75 240.871 120.042 240.948 120.303 241.102C120.569 241.251 120.779 241.457 120.933 241.718C121.087 241.979 121.164 242.271 121.164 242.593C121.164 242.92 121.087 243.216 120.933 243.482C120.779 243.743 120.569 243.951 120.303 244.105C120.042 244.259 119.75 244.336 119.428 244.336ZM119.428 243.727C119.638 243.727 119.825 243.678 119.988 243.58C120.152 243.482 120.28 243.349 120.373 243.181C120.467 243.008 120.513 242.812 120.513 242.593C120.513 242.378 120.464 242.187 120.366 242.019C120.273 241.851 120.145 241.72 119.981 241.627C119.823 241.529 119.638 241.48 119.428 241.48C119.218 241.48 119.032 241.529 118.868 241.627C118.705 241.72 118.577 241.851 118.483 242.019C118.39 242.187 118.343 242.378 118.343 242.593C118.343 242.812 118.39 243.008 118.483 243.181C118.577 243.349 118.705 243.482 118.868 243.58C119.032 243.678 119.218 243.727 119.428 243.727ZM123.211 244.336C122.94 244.336 122.695 244.275 122.476 244.154C122.261 244.028 122.093 243.855 121.972 243.636C121.851 243.417 121.79 243.162 121.79 242.873V240.941H122.42V242.845C122.42 243.027 122.45 243.186 122.511 243.321C122.576 243.452 122.67 243.552 122.791 243.622C122.912 243.692 123.055 243.727 123.218 243.727C123.465 243.727 123.659 243.65 123.799 243.496C123.939 243.337 124.009 243.12 124.009 242.845V240.941H124.639V242.873C124.639 243.162 124.578 243.417 124.457 243.636C124.336 243.855 124.168 244.028 123.953 244.154C123.743 244.275 123.496 244.336 123.211 244.336ZM128.69 244.336C128.438 244.336 128.209 244.285 128.004 244.182C127.803 244.075 127.642 243.928 127.521 243.741C127.399 243.554 127.332 243.342 127.318 243.104V242.103C127.332 241.86 127.399 241.648 127.521 241.466C127.647 241.279 127.81 241.135 128.011 241.032C128.216 240.925 128.442 240.871 128.69 240.871C128.993 240.871 129.266 240.948 129.509 241.102C129.756 241.256 129.95 241.464 130.09 241.725C130.23 241.986 130.3 242.28 130.3 242.607C130.3 242.934 130.23 243.228 130.09 243.489C129.95 243.75 129.756 243.958 129.509 244.112C129.266 244.261 128.993 244.336 128.69 244.336ZM128.585 243.741C128.795 243.741 128.979 243.692 129.138 243.594C129.296 243.496 129.422 243.363 129.516 243.195C129.609 243.022 129.656 242.824 129.656 242.6C129.656 242.381 129.609 242.185 129.516 242.012C129.422 241.839 129.296 241.706 129.138 241.613C128.979 241.515 128.797 241.466 128.592 241.466C128.382 241.466 128.197 241.515 128.039 241.613C127.88 241.706 127.756 241.839 127.668 242.012C127.579 242.185 127.535 242.383 127.535 242.607C127.535 242.826 127.577 243.022 127.661 243.195C127.749 243.363 127.873 243.496 128.032 243.594C128.195 243.692 128.379 243.741 128.585 243.741ZM126.94 245.659V240.941H127.57V241.816L127.451 242.621L127.57 243.433V245.659H126.94ZM132.428 244.336C132.124 244.336 131.849 244.261 131.602 244.112C131.354 243.958 131.158 243.75 131.014 243.489C130.874 243.228 130.804 242.934 130.804 242.607C130.804 242.28 130.874 241.986 131.014 241.725C131.158 241.464 131.352 241.256 131.595 241.102C131.842 240.948 132.12 240.871 132.428 240.871C132.68 240.871 132.904 240.925 133.1 241.032C133.3 241.135 133.461 241.279 133.583 241.466C133.704 241.648 133.772 241.86 133.786 242.103V243.104C133.772 243.342 133.704 243.554 133.583 243.741C133.466 243.928 133.307 244.075 133.107 244.182C132.911 244.285 132.684 244.336 132.428 244.336ZM132.533 243.741C132.845 243.741 133.097 243.636 133.289 243.426C133.48 243.211 133.576 242.938 133.576 242.607C133.576 242.378 133.531 242.18 133.443 242.012C133.359 241.839 133.237 241.706 133.079 241.613C132.92 241.515 132.736 241.466 132.526 241.466C132.316 241.466 132.129 241.515 131.966 241.613C131.807 241.711 131.681 241.846 131.588 242.019C131.499 242.187 131.455 242.381 131.455 242.6C131.455 242.824 131.499 243.022 131.588 243.195C131.681 243.363 131.809 243.496 131.973 243.594C132.136 243.692 132.323 243.741 132.533 243.741ZM133.534 244.266V243.37L133.653 242.558L133.534 241.753V240.941H134.171V244.266H133.534ZM136.145 244.336C135.958 244.336 135.781 244.313 135.613 244.266C135.45 244.215 135.298 244.145 135.158 244.056C135.018 243.963 134.897 243.853 134.794 243.727L135.2 243.321C135.321 243.47 135.461 243.582 135.62 243.657C135.779 243.727 135.956 243.762 136.152 243.762C136.348 243.762 136.5 243.729 136.607 243.664C136.714 243.594 136.768 243.498 136.768 243.377C136.768 243.256 136.724 243.162 136.635 243.097C136.551 243.027 136.441 242.971 136.306 242.929C136.171 242.882 136.026 242.838 135.872 242.796C135.723 242.749 135.58 242.691 135.445 242.621C135.31 242.551 135.198 242.455 135.109 242.334C135.025 242.213 134.983 242.052 134.983 241.851C134.983 241.65 135.032 241.478 135.13 241.333C135.228 241.184 135.363 241.069 135.536 240.99C135.713 240.911 135.926 240.871 136.173 240.871C136.434 240.871 136.665 240.918 136.866 241.011C137.071 241.1 137.239 241.235 137.37 241.417L136.964 241.823C136.871 241.702 136.754 241.608 136.614 241.543C136.479 241.478 136.325 241.445 136.152 241.445C135.97 241.445 135.83 241.478 135.732 241.543C135.639 241.604 135.592 241.69 135.592 241.802C135.592 241.914 135.634 242 135.718 242.061C135.802 242.122 135.912 242.173 136.047 242.215C136.187 242.257 136.332 242.301 136.481 242.348C136.63 242.39 136.773 242.448 136.908 242.523C137.043 242.598 137.153 242.698 137.237 242.824C137.326 242.95 137.37 243.116 137.37 243.321C137.37 243.634 137.258 243.881 137.034 244.063C136.815 244.245 136.518 244.336 136.145 244.336ZM139.132 244.336C138.946 244.336 138.768 244.313 138.6 244.266C138.437 244.215 138.285 244.145 138.145 244.056C138.005 243.963 137.884 243.853 137.781 243.727L138.187 243.321C138.309 243.47 138.449 243.582 138.607 243.657C138.766 243.727 138.943 243.762 139.139 243.762C139.335 243.762 139.487 243.729 139.594 243.664C139.702 243.594 139.755 243.498 139.755 243.377C139.755 243.256 139.711 243.162 139.622 243.097C139.538 243.027 139.429 242.971 139.293 242.929C139.158 242.882 139.013 242.838 138.859 242.796C138.71 242.749 138.568 242.691 138.432 242.621C138.297 242.551 138.185 242.455 138.096 242.334C138.012 242.213 137.97 242.052 137.97 241.851C137.97 241.65 138.019 241.478 138.117 241.333C138.215 241.184 138.351 241.069 138.523 240.99C138.701 240.911 138.913 240.871 139.16 240.871C139.422 240.871 139.653 240.918 139.853 241.011C140.059 241.1 140.227 241.235 140.357 241.417L139.951 241.823C139.858 241.702 139.741 241.608 139.601 241.543C139.466 241.478 139.312 241.445 139.139 241.445C138.957 241.445 138.817 241.478 138.719 241.543C138.626 241.604 138.579 241.69 138.579 241.802C138.579 241.914 138.621 242 138.705 242.061C138.789 242.122 138.899 242.173 139.034 242.215C139.174 242.257 139.319 242.301 139.468 242.348C139.618 242.39 139.76 242.448 139.895 242.523C140.031 242.598 140.14 242.698 140.224 242.824C140.313 242.95 140.357 243.116 140.357 243.321C140.357 243.634 140.245 243.881 140.021 244.063C139.802 244.245 139.506 244.336 139.132 244.336ZM142.603 244.336C142.271 244.336 141.973 244.261 141.707 244.112C141.441 243.958 141.231 243.75 141.077 243.489C140.923 243.228 140.846 242.931 140.846 242.6C140.846 242.273 140.92 241.979 141.07 241.718C141.224 241.457 141.429 241.251 141.686 241.102C141.947 240.948 142.239 240.871 142.561 240.871C142.869 240.871 143.139 240.941 143.373 241.081C143.611 241.221 143.795 241.415 143.926 241.662C144.061 241.909 144.129 242.189 144.129 242.502C144.129 242.549 144.126 242.6 144.122 242.656C144.117 242.707 144.108 242.768 144.094 242.838H141.287V242.313H143.758L143.527 242.516C143.527 242.292 143.487 242.103 143.408 241.949C143.328 241.79 143.216 241.669 143.072 241.585C142.927 241.496 142.752 241.452 142.547 241.452C142.332 241.452 142.143 241.499 141.98 241.592C141.816 241.685 141.69 241.816 141.602 241.984C141.513 242.152 141.469 242.35 141.469 242.579C141.469 242.812 141.515 243.018 141.609 243.195C141.702 243.368 141.835 243.503 142.008 243.601C142.18 243.694 142.379 243.741 142.603 243.741C142.789 243.741 142.96 243.708 143.114 243.643C143.272 243.578 143.408 243.48 143.52 243.349L143.926 243.762C143.767 243.949 143.571 244.091 143.338 244.189C143.109 244.287 142.864 244.336 142.603 244.336ZM146.223 244.336C145.915 244.336 145.639 244.261 145.397 244.112C145.154 243.958 144.96 243.75 144.816 243.489C144.676 243.228 144.606 242.934 144.606 242.607C144.606 242.28 144.676 241.986 144.816 241.725C144.96 241.464 145.154 241.256 145.397 241.102C145.639 240.948 145.915 240.871 146.223 240.871C146.47 240.871 146.694 240.925 146.895 241.032C147.095 241.135 147.256 241.279 147.378 241.466C147.504 241.648 147.574 241.86 147.588 242.103V243.104C147.574 243.342 147.506 243.554 147.385 243.741C147.263 243.928 147.102 244.075 146.902 244.182C146.701 244.285 146.475 244.336 146.223 244.336ZM146.328 243.741C146.538 243.741 146.72 243.692 146.874 243.594C147.032 243.496 147.156 243.363 147.245 243.195C147.333 243.022 147.378 242.826 147.378 242.607C147.378 242.378 147.331 242.18 147.238 242.012C147.149 241.844 147.025 241.711 146.867 241.613C146.713 241.515 146.531 241.466 146.321 241.466C146.111 241.466 145.926 241.515 145.768 241.613C145.609 241.711 145.483 241.846 145.39 242.019C145.301 242.187 145.257 242.381 145.257 242.6C145.257 242.824 145.301 243.022 145.39 243.195C145.483 243.363 145.609 243.496 145.768 243.594C145.931 243.692 146.118 243.741 146.328 243.741ZM147.973 244.266H147.336V243.37L147.455 242.558L147.336 241.753V239.268H147.973V244.266ZM152.663 244.336C152.313 244.336 151.988 244.273 151.69 244.147C151.391 244.016 151.13 243.837 150.906 243.608C150.686 243.379 150.516 243.113 150.395 242.81C150.273 242.507 150.213 242.182 150.213 241.837C150.213 241.487 150.273 241.16 150.395 240.857C150.516 240.554 150.686 240.29 150.906 240.066C151.13 239.837 151.389 239.66 151.683 239.534C151.981 239.403 152.306 239.338 152.656 239.338C153.038 239.338 153.374 239.403 153.664 239.534C153.953 239.665 154.21 239.842 154.434 240.066L153.979 240.521C153.825 240.348 153.636 240.213 153.412 240.115C153.192 240.017 152.94 239.968 152.656 239.968C152.399 239.968 152.163 240.015 151.949 240.108C151.734 240.197 151.547 240.325 151.389 240.493C151.23 240.661 151.106 240.859 151.018 241.088C150.934 241.317 150.892 241.566 150.892 241.837C150.892 242.108 150.934 242.357 151.018 242.586C151.106 242.815 151.23 243.013 151.389 243.181C151.547 243.349 151.734 243.48 151.949 243.573C152.163 243.662 152.399 243.706 152.656 243.706C152.959 243.706 153.223 243.657 153.447 243.559C153.671 243.456 153.86 243.319 154.014 243.146L154.469 243.594C154.245 243.827 153.981 244.009 153.678 244.14C153.379 244.271 153.041 244.336 152.663 244.336ZM156.463 244.336C156.16 244.336 155.884 244.261 155.637 244.112C155.39 243.958 155.194 243.75 155.049 243.489C154.909 243.228 154.839 242.934 154.839 242.607C154.839 242.28 154.909 241.986 155.049 241.725C155.194 241.464 155.387 241.256 155.63 241.102C155.877 240.948 156.155 240.871 156.463 240.871C156.715 240.871 156.939 240.925 157.135 241.032C157.336 241.135 157.497 241.279 157.618 241.466C157.739 241.648 157.807 241.86 157.821 242.103V243.104C157.807 243.342 157.739 243.554 157.618 243.741C157.501 243.928 157.343 244.075 157.142 244.182C156.946 244.285 156.72 244.336 156.463 244.336ZM156.568 243.741C156.881 243.741 157.133 243.636 157.324 243.426C157.515 243.211 157.611 242.938 157.611 242.607C157.611 242.378 157.567 242.18 157.478 242.012C157.394 241.839 157.273 241.706 157.114 241.613C156.955 241.515 156.771 241.466 156.561 241.466C156.351 241.466 156.164 241.515 156.001 241.613C155.842 241.711 155.716 241.846 155.623 242.019C155.534 242.187 155.49 242.381 155.49 242.6C155.49 242.824 155.534 243.022 155.623 243.195C155.716 243.363 155.845 243.496 156.008 243.594C156.171 243.692 156.358 243.741 156.568 243.741ZM157.569 244.266V243.37L157.688 242.558L157.569 241.753V240.941H158.206V244.266H157.569ZM159.123 244.266V239.268H159.753V244.266H159.123ZM162.194 244.336C161.867 244.336 161.571 244.259 161.305 244.105C161.044 243.951 160.836 243.743 160.682 243.482C160.533 243.216 160.458 242.922 160.458 242.6C160.458 242.273 160.533 241.979 160.682 241.718C160.836 241.457 161.044 241.251 161.305 241.102C161.571 240.948 161.867 240.871 162.194 240.871C162.451 240.871 162.689 240.92 162.908 241.018C163.127 241.111 163.316 241.249 163.475 241.431L163.055 241.851C162.952 241.73 162.826 241.639 162.677 241.578C162.532 241.513 162.371 241.48 162.194 241.48C161.984 241.48 161.797 241.529 161.634 241.627C161.471 241.72 161.342 241.851 161.249 242.019C161.156 242.187 161.109 242.381 161.109 242.6C161.109 242.819 161.156 243.013 161.249 243.181C161.342 243.349 161.471 243.482 161.634 243.58C161.797 243.678 161.984 243.727 162.194 243.727C162.371 243.727 162.532 243.697 162.677 243.636C162.826 243.571 162.955 243.477 163.062 243.356L163.475 243.776C163.321 243.953 163.132 244.091 162.908 244.189C162.689 244.287 162.451 244.336 162.194 244.336ZM165.437 244.336C165.166 244.336 164.921 244.275 164.702 244.154C164.487 244.028 164.319 243.855 164.198 243.636C164.076 243.417 164.016 243.162 164.016 242.873V240.941H164.646V242.845C164.646 243.027 164.676 243.186 164.737 243.321C164.802 243.452 164.895 243.552 165.017 243.622C165.138 243.692 165.28 243.727 165.444 243.727C165.691 243.727 165.885 243.65 166.025 243.496C166.165 243.337 166.235 243.12 166.235 242.845V240.941H166.865V242.873C166.865 243.162 166.804 243.417 166.683 243.636C166.561 243.855 166.393 244.028 166.179 244.154C165.969 244.275 165.721 244.336 165.437 244.336ZM167.709 244.266V239.268H168.339V244.266H167.709ZM170.598 244.336C170.327 244.336 170.082 244.275 169.863 244.154C169.648 244.028 169.48 243.855 169.359 243.636C169.237 243.417 169.177 243.162 169.177 242.873V240.941H169.807V242.845C169.807 243.027 169.837 243.186 169.898 243.321C169.963 243.452 170.056 243.552 170.178 243.622C170.299 243.692 170.441 243.727 170.605 243.727C170.852 243.727 171.046 243.65 171.186 243.496C171.326 243.337 171.396 243.12 171.396 242.845V240.941H172.026V242.873C172.026 243.162 171.965 243.417 171.844 243.636C171.722 243.855 171.554 244.028 171.34 244.154C171.13 244.275 170.882 244.336 170.598 244.336ZM173.927 244.336C173.741 244.336 173.563 244.313 173.395 244.266C173.232 244.215 173.08 244.145 172.94 244.056C172.8 243.963 172.679 243.853 172.576 243.727L172.982 243.321C173.104 243.47 173.244 243.582 173.402 243.657C173.561 243.727 173.738 243.762 173.934 243.762C174.13 243.762 174.282 243.729 174.389 243.664C174.497 243.594 174.55 243.498 174.55 243.377C174.55 243.256 174.506 243.162 174.417 243.097C174.333 243.027 174.224 242.971 174.088 242.929C173.953 242.882 173.808 242.838 173.654 242.796C173.505 242.749 173.363 242.691 173.227 242.621C173.092 242.551 172.98 242.455 172.891 242.334C172.807 242.213 172.765 242.052 172.765 241.851C172.765 241.65 172.814 241.478 172.912 241.333C173.01 241.184 173.146 241.069 173.318 240.99C173.496 240.911 173.708 240.871 173.955 240.871C174.217 240.871 174.448 240.918 174.648 241.011C174.854 241.1 175.022 241.235 175.152 241.417L174.746 241.823C174.653 241.702 174.536 241.608 174.396 241.543C174.261 241.478 174.107 241.445 173.934 241.445C173.752 241.445 173.612 241.478 173.514 241.543C173.421 241.604 173.374 241.69 173.374 241.802C173.374 241.914 173.416 242 173.5 242.061C173.584 242.122 173.694 242.173 173.829 242.215C173.969 242.257 174.114 242.301 174.263 242.348C174.413 242.39 174.555 242.448 174.69 242.523C174.826 242.598 174.935 242.698 175.019 242.824C175.108 242.95 175.152 243.116 175.152 243.321C175.152 243.634 175.04 243.881 174.816 244.063C174.597 244.245 174.301 244.336 173.927 244.336ZM176.047 242.726L175.956 239.268H176.628L176.537 242.726H176.047ZM176.285 244.336C176.154 244.336 176.047 244.292 175.963 244.203C175.879 244.114 175.837 244.005 175.837 243.874C175.837 243.743 175.879 243.636 175.963 243.552C176.047 243.463 176.154 243.419 176.285 243.419C176.42 243.419 176.53 243.463 176.614 243.552C176.698 243.636 176.74 243.743 176.74 243.874C176.74 244.005 176.698 244.114 176.614 244.203C176.53 244.292 176.42 244.336 176.285 244.336Z" fill="#717171"/>
<circle cx="239.824" cy="51.2663" r="44" transform="rotate(7.00455 239.824 51.2663)" fill="#DFDAFF" stroke="white" stroke-width="4"/>
<path d="M218.096 64.1124C216.164 63.875 214.445 63.3279 212.938 62.4711C211.434 61.5878 210.231 60.4459 209.329 59.0454L213.336 55.951C213.768 56.81 214.444 57.5379 215.365 58.1347C216.312 58.7347 217.381 59.1078 218.572 59.2542C219.657 59.3875 220.621 59.3044 221.464 59.005C222.334 58.7088 223.037 58.231 223.575 57.5717C224.142 56.8891 224.486 56.0582 224.607 55.0789C224.733 54.0466 224.602 53.1439 224.214 52.3708C223.852 51.6009 223.31 50.9835 222.588 50.5186C221.866 50.0538 221.028 49.7628 220.075 49.6457C219.069 49.5222 218.14 49.5423 217.287 49.7062C216.464 49.8468 215.647 50.1495 214.838 50.6143L215.575 47.239C216.143 46.7714 216.724 46.413 217.319 46.1637C217.917 45.8879 218.57 45.7129 219.278 45.6386C220.015 45.5411 220.86 45.5509 221.813 45.668C223.851 45.9184 225.493 46.55 226.739 47.5628C228.015 48.5524 228.923 49.7925 229.466 51.2831C230.011 52.7472 230.182 54.313 229.977 55.9805C229.752 57.8067 229.102 59.3792 228.027 60.6979C226.951 62.0166 225.556 62.987 223.841 63.6091C222.155 64.208 220.24 64.3758 218.096 64.1124ZM214.838 50.6143L212.57 47.7563L215.421 35.0492L220.304 35.6492L217.27 48.5353L214.838 50.6143ZM215.679 39.8364L215.421 35.0492L230.745 36.932L230.17 41.6168L215.679 39.8364ZM230.173 67.0873L244.492 36.8076L249.177 37.3832L234.858 67.6629L230.173 67.0873ZM255.627 68.7236C253.694 68.4862 251.975 67.9391 250.468 67.0823C248.965 66.199 247.762 65.0571 246.859 63.6566L250.866 60.5621C251.298 61.4212 251.974 62.1491 252.895 62.7458C253.842 63.3458 254.912 63.719 256.103 63.8653C257.188 63.9987 258.152 63.9156 258.995 63.6162C259.864 63.3199 260.567 62.8422 261.105 62.1828C261.673 61.5003 262.016 60.6693 262.137 59.69C262.264 58.6578 262.133 57.7551 261.744 56.9819C261.382 56.212 260.84 55.5946 260.118 55.1298C259.396 54.6649 258.558 54.374 257.606 54.2569C256.6 54.1333 255.67 54.1535 254.817 54.3173C253.994 54.458 253.178 54.7607 252.368 55.2255L253.105 51.8502C253.673 51.3826 254.255 51.0242 254.85 50.7748C255.448 50.499 256.101 50.324 256.808 50.2498C257.546 50.1523 258.391 50.1621 259.344 50.2792C261.382 50.5296 263.024 51.1612 264.269 52.174C265.545 53.1636 266.454 54.4037 266.996 55.8943C267.541 57.3584 267.712 58.9242 267.507 60.5916C267.283 62.4179 266.633 63.9904 265.557 65.3091C264.482 66.6278 263.086 67.5982 261.371 68.2203C259.685 68.8192 257.77 68.987 255.627 68.7236ZM252.368 55.2255L250.1 52.3675L252.951 39.6603L257.834 40.2603L254.8 53.1465L252.368 55.2255ZM253.209 44.4475L252.951 39.6603L268.276 41.5432L267.7 46.228L253.209 44.4475Z" fill="#7646EB"/>
<g filter="url(#filter2_d_1134_1125)">
<rect y="47.23" width="112" height="34" rx="17" transform="rotate(-3.69816 0 47.23)" fill="white"/>
</g>
<circle cx="18.0614" cy="63.0983" r="13" transform="rotate(-3.69816 18.0614 63.0983)" fill="#DFDAFF"/>
<path d="M40.321 61.7794C39.6663 61.8217 39.0998 61.7381 38.6212 61.5285C38.1427 61.3189 37.7091 60.9982 37.3205 60.5664L38.0373 59.7504C38.3245 60.1006 38.646 60.3605 39.0016 60.5299C39.3568 60.6913 39.7858 60.7558 40.2888 60.7232C40.7837 60.6913 41.172 60.5579 41.4534 60.3233C41.7428 60.0881 41.8754 59.783 41.8512 59.4077C41.8311 59.0964 41.743 58.8496 41.5869 58.6672C41.4308 58.4849 41.2251 58.3419 40.9699 58.2381C40.7221 58.1259 40.4515 58.0311 40.1579 57.9539C39.8638 57.8687 39.5694 57.7795 39.2748 57.6863C38.9796 57.5852 38.7069 57.4585 38.4566 57.3063C38.2057 57.1462 37.9954 56.9313 37.8257 56.6617C37.6639 56.3915 37.5694 56.0449 37.542 55.6218C37.5116 55.1508 37.5975 54.7444 37.7999 54.4026C38.0098 54.0524 38.3046 53.7768 38.6844 53.5758C39.0717 53.3664 39.5129 53.2457 40.0078 53.2137C40.5507 53.1786 41.0446 53.2549 41.4897 53.4426C41.9342 53.6223 42.3033 53.8751 42.5969 54.2008L41.88 55.0167C41.614 54.7453 41.3326 54.5471 41.0359 54.4219C40.7472 54.2963 40.4192 54.2453 40.052 54.2691C39.6049 54.298 39.2561 54.4207 39.0056 54.6373C38.7545 54.846 38.6403 55.1259 38.663 55.4772C38.6811 55.7566 38.7676 55.9795 38.9227 56.1458C39.0852 56.3037 39.2901 56.4347 39.5373 56.539C39.7846 56.6433 40.0552 56.738 40.3494 56.8232C40.6509 56.8999 40.9493 56.9889 41.2444 57.09C41.5396 57.1912 41.8128 57.3259 42.0642 57.494C42.3156 57.6621 42.5226 57.8893 42.6854 58.1754C42.8557 58.453 42.955 58.8113 42.9834 59.2504C43.0309 59.9848 42.8125 60.5762 42.3284 61.0243C41.8523 61.472 41.1832 61.7236 40.321 61.7794ZM45.327 61.3356L44.8053 53.2644L45.8831 53.1947L46.4048 61.2659L45.327 61.3356ZM43.6218 56.7199L43.5583 55.738L47.4382 55.4872L47.5017 56.4692L43.6218 56.7199ZM51.1129 61.0818C50.594 61.1154 50.1147 61.0181 49.6751 60.79C49.2349 60.5539 48.8767 60.2203 48.6003 59.7892C48.3319 59.3576 48.1796 58.8624 48.1435 58.3036C48.1074 57.7447 48.1946 57.2341 48.4052 56.7715C48.6238 56.3084 48.9322 55.9318 49.3303 55.6415C49.7364 55.3507 50.2029 55.1883 50.7298 55.1542C51.1609 55.1263 51.55 55.1934 51.8972 55.3553C52.2518 55.5088 52.5432 55.7385 52.7714 56.0444C52.9991 56.3423 53.1383 56.6981 53.1891 57.1117L53.2998 58.8241C53.3022 59.2328 53.2099 59.6035 53.023 59.9363C52.844 60.2685 52.5888 60.5375 52.2574 60.7433C51.9335 60.9406 51.552 61.0535 51.1129 61.0818ZM51.2267 60.0524C51.7616 60.0178 52.1811 59.8103 52.4852 59.4299C52.7888 59.0415 52.9222 58.5639 52.8856 57.9971C52.8603 57.6059 52.7626 57.2715 52.5923 56.9939C52.4295 56.7078 52.2072 56.4937 51.9255 56.3516C51.6432 56.2015 51.3224 56.138 50.9632 56.1612C50.6039 56.1845 50.29 56.2889 50.0214 56.4746C49.7608 56.6598 49.5603 56.9053 49.4197 57.211C49.2866 57.5082 49.2322 57.8444 49.2564 58.2196C49.2812 58.6028 49.3789 58.9372 49.5497 59.2228C49.728 59.4999 49.9622 59.7132 50.2525 59.8628C50.5427 60.0124 50.8675 60.0756 51.2267 60.0524ZM52.9972 60.8398L52.8981 59.307L53.0119 57.9047L52.7193 56.5408L52.6295 55.1517L53.7193 55.0812L54.0869 60.7694L52.9972 60.8398ZM56.5068 60.613L55.9851 52.5418L57.0629 52.4721L57.5846 60.5433L56.5068 60.613ZM54.8015 55.9973L54.7381 55.0154L58.618 54.7646L58.6815 55.7466L54.8015 55.9973ZM62.3364 60.3564C61.8733 60.3863 61.4475 60.3096 61.0589 60.1263C60.6777 59.9345 60.3712 59.6577 60.1394 59.2959C59.9076 58.9341 59.7757 58.5057 59.7437 58.0108L59.5301 54.7057L60.6078 54.636L60.8183 57.8932C60.8385 58.2045 60.9079 58.4726 61.0266 58.6974C61.1529 58.9137 61.3236 59.0751 61.5389 59.1814C61.7542 59.2877 62.0016 59.3319 62.281 59.3138C62.7041 59.2865 63.0269 59.1333 63.2494 58.8544C63.4713 58.5675 63.5671 58.1885 63.5367 57.7175L63.3261 54.4603L64.4039 54.3906L64.6175 57.6957C64.6495 58.1907 64.5738 58.6325 64.3905 59.0211C64.2072 59.4098 63.9389 59.7237 63.5856 59.963C63.2398 60.1938 62.8234 60.3249 62.3364 60.3564ZM68.032 59.9883C67.7127 60.0089 67.4067 59.9886 67.1141 59.9273C66.8291 59.8576 66.5619 59.7546 66.3125 59.6184C66.0627 59.4742 65.843 59.3 65.6535 59.0958L66.3031 58.3564C66.5272 58.5984 66.7791 58.7746 67.0588 58.8847C67.338 58.987 67.6452 59.0272 67.9805 59.0056C68.3158 58.9839 68.5716 58.9112 68.748 58.7876C68.9239 58.656 69.0051 58.4864 68.9917 58.2788C68.9783 58.0712 68.8921 57.9165 68.7332 57.8145C68.5818 57.7041 68.388 57.6204 68.1518 57.5635C67.9152 57.4986 67.6628 57.4388 67.3947 57.384C67.1341 57.3206 66.8841 57.2366 66.6449 57.1318C66.4056 57.027 66.2034 56.8757 66.0383 56.678C65.8812 56.4797 65.7915 56.2089 65.7694 55.8656C65.7472 55.5223 65.8119 55.2215 65.9636 54.9632C66.1147 54.6969 66.3336 54.4864 66.6202 54.3316C66.9148 54.1762 67.2736 54.0849 67.6968 54.0575C68.1438 54.0287 68.5442 54.0829 68.8978 54.2204C69.2588 54.3494 69.5612 54.5623 69.8049 54.8592L69.1552 55.5987C68.9821 55.4014 68.7722 55.2547 68.5255 55.1584C68.2867 55.0616 68.0197 55.0227 67.7243 55.0418C67.4129 55.0619 67.1771 55.1333 67.0166 55.2559C66.8637 55.37 66.7934 55.5229 66.8058 55.7145C66.8182 55.9061 66.8995 56.0491 67.05 56.1436C67.2004 56.2381 67.3937 56.3138 67.6298 56.3707C67.874 56.4271 68.1263 56.4869 68.387 56.5502C68.6471 56.6056 68.897 56.6896 69.1368 56.8024C69.3766 56.9152 69.5753 57.0747 69.7329 57.2809C69.8985 57.4867 69.9927 57.7652 70.0154 58.1164C70.05 58.6513 69.8857 59.0868 69.5226 59.423C69.1675 59.7586 68.6707 59.947 68.032 59.9883ZM72.1605 59.7214C71.9369 59.7359 71.7444 59.6722 71.5829 59.5303C71.4289 59.3799 71.3452 59.2009 71.3318 58.9934C71.3168 58.7618 71.3765 58.5696 71.5109 58.4166C71.6528 58.2551 71.8355 58.1672 72.0591 58.1527C72.2826 58.1383 72.4711 58.2022 72.6246 58.3446C72.7856 58.4785 72.8736 58.6612 72.8885 58.8927C72.9019 59.1003 72.838 59.2888 72.6966 59.4583C72.5627 59.6193 72.384 59.707 72.1605 59.7214ZM71.919 55.9852C71.6954 55.9997 71.5029 55.936 71.3414 55.7941C71.1879 55.6517 71.1042 55.4727 71.0903 55.2572C71.0753 55.0256 71.135 54.8334 71.2695 54.6804C71.4113 54.5189 71.594 54.4309 71.8176 54.4165C72.0411 54.4021 72.2296 54.466 72.3831 54.6084C72.5441 54.7423 72.6321 54.925 72.647 55.1565C72.661 55.3721 72.597 55.5606 72.4551 55.7221C72.3212 55.8831 72.1425 55.9708 71.919 55.9852Z" fill="black"/>
<path d="M77.8054 55.9896L77.7419 55.0076L80.0052 54.8613C80.3166 54.8412 80.5879 54.7595 80.8191 54.6163C81.0583 54.4726 81.2383 54.2806 81.3591 54.0403C81.4878 53.7995 81.5419 53.5194 81.5212 53.2001C81.5006 52.8807 81.4109 52.61 81.2523 52.3877C81.1016 52.165 80.8984 51.9978 80.6426 51.886C80.3949 51.7738 80.1153 51.7277 79.804 51.7478L77.5407 51.8941L77.4772 50.9122L79.8124 50.7612C80.3233 50.7282 80.7851 50.8026 81.1976 50.9843C81.6182 51.1656 81.9566 51.4403 82.2129 51.8086C82.4767 52.1683 82.6253 52.6076 82.6589 53.1266C82.6919 53.6375 82.601 54.0923 82.3863 54.491C82.179 54.8812 81.8788 55.1972 81.4856 55.439C81.0998 55.6724 80.6515 55.8056 80.1405 55.8386L77.8054 55.9896ZM77.26 59.2716L76.7228 50.9609L77.8485 50.8882L78.3856 59.1988L77.26 59.2716ZM86.4298 58.7991C85.9109 58.8327 85.4316 58.7354 84.992 58.5073C84.5518 58.2712 84.1936 57.9376 83.9172 57.5065C83.6488 57.0749 83.4966 56.5797 83.4604 56.0209C83.4243 55.462 83.5116 54.9514 83.7222 54.4888C83.9407 54.0257 84.2491 53.6491 84.6472 53.3588C85.0533 53.068 85.5198 52.9056 86.0467 52.8715C86.4778 52.8436 86.8669 52.9107 87.2141 53.0726C87.5687 53.2261 87.8601 53.4558 88.0883 53.7617C88.316 54.0596 88.4553 54.4154 88.5061 54.8289L88.6167 56.5414C88.6191 56.9501 88.5268 57.3208 88.3399 57.6535C88.161 57.9858 87.9058 58.2548 87.5744 58.4606C87.2504 58.6579 86.8689 58.7708 86.4298 58.7991ZM86.5436 57.7696C87.0785 57.7351 87.498 57.5276 87.8021 57.1472C88.1057 56.7588 88.2392 56.2812 88.2025 55.7144C88.1773 55.3232 88.0795 54.9888 87.9092 54.7112C87.7464 54.4251 87.5242 54.211 87.2424 54.0689C86.9601 53.9188 86.6394 53.8553 86.2801 53.8785C85.9209 53.9018 85.607 54.0062 85.3384 54.1919C85.0778 54.3771 84.8772 54.6226 84.7366 54.9283C84.6035 55.2255 84.5491 55.5617 84.5733 55.9369C84.5981 56.3201 84.6959 56.6545 84.8666 56.9401C85.0449 57.2172 85.2791 57.4305 85.5694 57.5801C85.8596 57.7297 86.1844 57.7929 86.5436 57.7696ZM88.3141 58.5571L88.2151 57.0243L88.3288 55.622L88.0363 54.2581L87.9465 52.869L89.0362 52.7985L89.4039 58.4867L88.3141 58.5571ZM92.7889 58.3881C92.4696 58.4088 92.1636 58.3884 91.8711 58.3272C91.586 58.2574 91.3188 58.1545 91.0695 58.0182C90.8197 57.8741 90.6 57.6999 90.4104 57.4957L91.0601 56.7562C91.2841 56.9983 91.536 57.1744 91.8157 57.2846C92.0949 57.3868 92.4021 57.4271 92.7374 57.4054C93.0727 57.3837 93.3286 57.3111 93.505 57.1874C93.6808 57.0558 93.7621 56.8862 93.7487 56.6787C93.7352 56.4711 93.6491 56.3163 93.4902 56.2144C93.3387 56.1039 93.1449 56.0202 92.9088 55.9633C92.6721 55.8985 92.4197 55.8386 92.1516 55.7838C91.891 55.7205 91.641 55.6364 91.4018 55.5316C91.1625 55.4269 90.9604 55.2756 90.7953 55.0778C90.6381 54.8795 90.5485 54.6088 90.5263 54.2655C90.5041 53.9222 90.5688 53.6214 90.7205 53.3631C90.8716 53.0968 91.0905 52.8862 91.3771 52.7314C91.6717 52.5761 92.0306 52.4847 92.4537 52.4574C92.9008 52.4285 93.3011 52.4828 93.6547 52.6203C94.0158 52.7492 94.3181 52.9622 94.5618 53.2591L93.9121 53.9985C93.739 53.8013 93.5291 53.6545 93.2824 53.5582C93.0437 53.4614 92.7766 53.4226 92.4812 53.4417C92.1699 53.4618 91.934 53.5331 91.7736 53.6558C91.6206 53.7699 91.5503 53.9227 91.5627 54.1143C91.5751 54.3059 91.6565 54.449 91.8069 54.5435C91.9573 54.6379 92.1506 54.7136 92.3867 54.7705C92.6309 54.8269 92.8833 54.8867 93.1439 54.9501C93.404 55.0054 93.654 55.0895 93.8937 55.2022C94.1335 55.315 94.3322 55.4745 94.4898 55.6808C94.6555 55.8865 94.7496 56.165 94.7723 56.5163C94.8069 57.0512 94.6426 57.4867 94.2796 57.8228C93.9245 58.1584 93.4276 58.3468 92.7889 58.3881ZM97.8993 58.0578C97.58 58.0784 97.2741 58.0581 96.9815 57.9969C96.6964 57.9271 96.4292 57.8241 96.1799 57.6879C95.9301 57.5438 95.7104 57.3696 95.5208 57.1654L96.1705 56.4259C96.3946 56.668 96.6465 56.8441 96.9261 56.9543C97.2053 57.0565 97.5126 57.0968 97.8479 57.0751C98.1832 57.0534 98.439 56.9808 98.6154 56.8571C98.7913 56.7255 98.8725 56.5559 98.8591 56.3483C98.8457 56.1408 98.7595 55.986 98.6006 55.884C98.4492 55.7736 98.2554 55.6899 98.0192 55.633C97.7825 55.5682 97.5301 55.5083 97.262 55.4535C97.0014 55.3902 96.7515 55.3061 96.5122 55.2013C96.273 55.0965 96.0708 54.9453 95.9057 54.7475C95.7486 54.5492 95.6589 54.2784 95.6367 53.9352C95.6145 53.5919 95.6793 53.2911 95.8309 53.0328C95.9821 52.7665 96.2009 52.5559 96.4875 52.4011C96.7821 52.2458 97.141 52.1544 97.5641 52.1271C98.0112 52.0982 98.4115 52.1525 98.7651 52.29C99.1262 52.4189 99.4286 52.6319 99.6722 52.9288L99.0226 53.6682C98.8495 53.471 98.6396 53.3242 98.3928 53.2279C98.1541 53.1311 97.887 53.0923 97.5917 53.1113C97.2803 53.1315 97.0444 53.2028 96.884 53.3254C96.731 53.4395 96.6607 53.5924 96.6731 53.784C96.6855 53.9756 96.7669 54.1186 96.9173 54.2131C97.0677 54.3076 97.261 54.3833 97.4972 54.4402C97.7413 54.4966 97.9937 54.5564 98.2543 54.6197C98.5144 54.6751 98.7644 54.7591 99.0042 54.8719C99.2439 54.9847 99.4426 55.1442 99.6003 55.3505C99.7659 55.5562 99.86 55.8347 99.8827 56.186C99.9173 56.7209 99.7531 57.1564 99.39 57.4925C99.0349 57.8281 98.538 58.0165 97.8993 58.0578Z" fill="#7D4FED"/>
<g opacity="0.2">
<mask id="path-34-inside-1_1134_1125" fill="white">
<path d="M31.0344 62.2598C31.4975 69.4245 26.0647 75.6081 18.8999 76.0712C11.7352 76.5343 5.5516 71.1015 5.0885 63.9368C4.62541 56.772 10.0582 50.5885 17.2229 50.1254C24.3877 49.6623 30.5713 55.095 31.0344 62.2598ZM6.77498 63.8278C7.17787 70.0611 12.5576 74.7876 18.7909 74.3847C25.0243 73.9819 29.7508 68.6021 29.3479 62.3688C28.945 56.1355 23.5653 51.409 17.3319 51.8118C11.0986 52.2147 6.37209 57.5945 6.77498 63.8278Z"/>
</mask>
<path d="M31.0344 62.2598C31.4975 69.4245 26.0647 75.6081 18.8999 76.0712C11.7352 76.5343 5.5516 71.1015 5.0885 63.9368C4.62541 56.772 10.0582 50.5885 17.2229 50.1254C24.3877 49.6623 30.5713 55.095 31.0344 62.2598ZM6.77498 63.8278C7.17787 70.0611 12.5576 74.7876 18.7909 74.3847C25.0243 73.9819 29.7508 68.6021 29.3479 62.3688C28.945 56.1355 23.5653 51.409 17.3319 51.8118C11.0986 52.2147 6.37209 57.5945 6.77498 63.8278Z" stroke="url(#paint6_linear_1134_1125)" stroke-width="32" stroke-linecap="round" mask="url(#path-34-inside-1_1134_1125)"/>
</g>
<mask id="path-35-inside-2_1134_1125" fill="white">
<path d="M30.1911 62.3143C30.6568 62.2842 31.0616 62.6375 31.0614 63.1042C31.0603 65.798 30.2218 68.4329 28.6513 70.6385C26.917 73.0743 24.396 74.8377 21.5133 75.6316C18.6305 76.4256 15.5622 76.2015 12.8253 74.9972C10.0885 73.7928 7.85051 71.6819 6.48848 69.02C5.12644 66.3581 4.72364 63.3081 5.34796 60.3839C5.97229 57.4598 7.58556 54.8402 9.91591 52.9666C12.2463 51.0931 15.1512 50.0802 18.1413 50.0985C20.8489 50.1152 23.4763 50.9765 25.6618 52.5515C26.0404 52.8243 26.0901 53.3594 25.7933 53.7194V53.7194C25.4964 54.0795 24.9655 54.1279 24.5842 53.8587C22.7009 52.5291 20.4497 51.8027 18.1309 51.7885C15.5296 51.7725 13.0022 52.6538 10.9748 54.2838C8.94742 55.9137 7.54387 58.1928 7.00071 60.7368C6.45756 63.2808 6.80799 65.9344 7.99296 68.2502C9.17793 70.566 11.125 72.4025 13.506 73.4503C15.8871 74.4981 18.5565 74.693 21.0645 74.0023C23.5725 73.3116 25.7657 71.7774 27.2746 69.6583C28.6196 67.7694 29.3475 65.5186 29.3709 63.2133C29.3756 62.7467 29.7254 62.3444 30.1911 62.3143V62.3143Z"/>
</mask>
<path d="M30.1911 62.3143C30.6568 62.2842 31.0616 62.6375 31.0614 63.1042C31.0603 65.798 30.2218 68.4329 28.6513 70.6385C26.917 73.0743 24.396 74.8377 21.5133 75.6316C18.6305 76.4256 15.5622 76.2015 12.8253 74.9972C10.0885 73.7928 7.85051 71.6819 6.48848 69.02C5.12644 66.3581 4.72364 63.3081 5.34796 60.3839C5.97229 57.4598 7.58556 54.8402 9.91591 52.9666C12.2463 51.0931 15.1512 50.0802 18.1413 50.0985C20.8489 50.1152 23.4763 50.9765 25.6618 52.5515C26.0404 52.8243 26.0901 53.3594 25.7933 53.7194V53.7194C25.4964 54.0795 24.9655 54.1279 24.5842 53.8587C22.7009 52.5291 20.4497 51.8027 18.1309 51.7885C15.5296 51.7725 13.0022 52.6538 10.9748 54.2838C8.94742 55.9137 7.54387 58.1928 7.00071 60.7368C6.45756 63.2808 6.80799 65.9344 7.99296 68.2502C9.17793 70.566 11.125 72.4025 13.506 73.4503C15.8871 74.4981 18.5565 74.693 21.0645 74.0023C23.5725 73.3116 25.7657 71.7774 27.2746 69.6583C28.6196 67.7694 29.3475 65.5186 29.3709 63.2133C29.3756 62.7467 29.7254 62.3444 30.1911 62.3143V62.3143Z" stroke="url(#paint7_linear_1134_1125)" stroke-width="32" stroke-linecap="round" mask="url(#path-35-inside-2_1134_1125)"/>
<path d="M39.6486 69.7454L37.5556 66.9907L38.317 66.9414L40.0059 69.1962L39.6637 69.2183L41.0553 66.7645L41.8027 66.7161L40.0677 69.7183L39.6486 69.7454ZM39.6642 71.7225L39.5089 69.3195L40.1655 69.2771L40.3208 71.6801L39.6642 71.7225ZM43.2632 71.56C42.9373 71.5811 42.6389 71.5232 42.3682 71.3864C42.0975 71.2496 41.8768 71.0557 41.7063 70.8049C41.5355 70.5494 41.4395 70.2586 41.4184 69.9326C41.3977 69.6113 41.4558 69.3176 41.593 69.0515C41.7298 68.7808 41.9236 68.5602 42.1745 68.3896C42.4253 68.2191 42.7138 68.1233 43.0397 68.1022C43.3611 68.0815 43.6571 68.1395 43.9278 68.2763C44.2029 68.4082 44.4257 68.5995 44.5962 68.8504C44.7668 69.1013 44.8624 69.3874 44.8832 69.7087C44.9043 70.0347 44.8465 70.3354 44.71 70.6107C44.5732 70.8815 44.377 71.1022 44.1215 71.2731C43.8707 71.4436 43.5846 71.5393 43.2632 71.56ZM43.224 70.9523C43.4335 70.9387 43.6166 70.8778 43.7733 70.7695C43.93 70.6611 44.0495 70.5201 44.1318 70.3465C44.2138 70.1682 44.2477 69.9695 44.2336 69.7507C44.2197 69.5365 44.1585 69.3487 44.0498 69.1873C43.9459 69.0257 43.8094 68.9036 43.6404 68.821C43.4757 68.7334 43.2886 68.6964 43.079 68.71C42.8695 68.7235 42.6863 68.7845 42.5297 68.8928C42.3727 68.9965 42.2531 69.1351 42.1708 69.3088C42.0885 69.4825 42.0542 69.6764 42.0681 69.8906C42.0822 70.1095 42.1414 70.3021 42.2457 70.4684C42.3497 70.63 42.4863 70.7545 42.6556 70.8417C42.825 70.929 43.0144 70.9658 43.224 70.9523ZM47.0382 71.316C46.7681 71.3335 46.5197 71.2888 46.293 71.1818C46.0706 71.0699 45.8919 70.9085 45.7566 70.6974C45.6214 70.4864 45.5445 70.2365 45.5258 69.9477L45.4012 68.0198L46.0299 67.9791L46.1527 69.8792C46.1644 70.0608 46.2049 70.2172 46.2742 70.3483C46.3478 70.4745 46.4474 70.5686 46.573 70.6306C46.6986 70.6926 46.8429 70.7184 47.0059 70.7078C47.2527 70.6919 47.441 70.6026 47.5708 70.4399C47.7003 70.2725 47.7561 70.0514 47.7384 69.7767L47.6156 67.8766L48.2443 67.836L48.3689 69.764C48.3875 70.0527 48.3434 70.3104 48.2365 70.5371C48.1295 70.7638 47.973 70.947 47.7669 71.0866C47.5652 71.2212 47.3223 71.2977 47.0382 71.316ZM52.5052 70.9627C52.2538 70.9789 52.0222 70.9424 51.8107 70.8532C51.6035 70.7591 51.4334 70.6228 51.3003 70.4443C51.1672 70.2659 51.0859 70.0583 51.0566 69.8217L50.9921 68.8228C50.9904 68.5798 51.0442 68.3635 51.1535 68.174C51.2672 67.9796 51.4209 67.8247 51.6145 67.7093C51.8125 67.589 52.0349 67.5208 52.2817 67.5049C52.5844 67.4853 52.8618 67.5446 53.1139 67.6826C53.3707 67.8203 53.5773 68.015 53.7339 68.2668C53.8905 68.5186 53.9793 68.8074 54.0004 69.1334C54.0214 69.4594 53.9705 69.7573 53.8477 70.0271C53.7248 70.297 53.545 70.5167 53.3081 70.6863C53.0755 70.851 52.8079 70.9431 52.5052 70.9627ZM52.3621 70.3757C52.5716 70.3621 52.7524 70.3014 52.9044 70.1933C53.0564 70.0853 53.1736 69.9444 53.2559 69.7708C53.3379 69.5924 53.3717 69.3915 53.3572 69.168C53.3431 68.9491 53.2839 68.7565 53.1796 68.5902C53.0753 68.4239 52.941 68.2994 52.7767 68.2164C52.612 68.1289 52.4272 68.0917 52.2223 68.105C52.0128 68.1185 51.832 68.1793 51.6799 68.2873C51.5276 68.3907 51.4128 68.5314 51.3355 68.7094C51.2581 68.8875 51.2267 69.0882 51.2411 69.3118C51.2553 69.5306 51.3098 69.7235 51.4048 69.8904C51.5041 70.0524 51.6361 70.1771 51.8007 70.2647C51.9701 70.3519 52.1572 70.3889 52.3621 70.3757ZM50.8442 72.3958L50.5399 67.6876L51.1686 67.647L51.225 68.5202L51.1582 69.3312L51.3293 70.1338L51.4729 72.3552L50.8442 72.3958ZM56.2357 70.7216C55.933 70.7411 55.6534 70.6844 55.3969 70.5513C55.1402 70.4136 54.9312 70.219 54.77 69.9675C54.6134 69.7158 54.5246 69.4269 54.5035 69.1009C54.4825 68.7749 54.5333 68.477 54.6562 68.2072C54.7837 67.9371 54.9636 67.7174 55.1958 67.548C55.4327 67.3784 55.7048 67.2836 56.0122 67.2638C56.2636 67.2475 56.4906 67.2866 56.6932 67.3811C56.9 67.4706 57.07 67.6046 57.2031 67.783C57.336 67.9568 57.4172 68.1644 57.4468 68.4056L57.5114 69.4045C57.5127 69.6429 57.4589 69.8592 57.3499 70.0533C57.2455 70.2471 57.0966 70.404 56.9033 70.5241C56.7143 70.6392 56.4918 70.705 56.2357 70.7216ZM56.3021 70.121C56.6141 70.1009 56.8588 69.9798 57.0362 69.7579C57.2133 69.5314 57.2911 69.2528 57.2697 68.9221C57.255 68.6939 57.198 68.4989 57.0986 68.3369C57.0037 68.17 56.874 68.0451 56.7097 67.9622C56.545 67.8747 56.3579 67.8377 56.1483 67.8512C55.9388 67.8648 55.7557 67.9257 55.599 68.034C55.447 68.1421 55.33 68.2852 55.248 68.4636C55.1703 68.6369 55.1386 68.8331 55.1527 69.0519C55.1672 69.2755 55.2242 69.4705 55.3238 69.6371C55.4278 69.7987 55.5644 69.9232 55.7337 70.0104C55.9031 70.0977 56.0925 70.1346 56.3021 70.121ZM57.3348 70.5804L57.2771 69.6862L57.3434 68.8682L57.1728 68.0726L57.1204 67.2623L57.7561 67.2212L57.9705 70.5393L57.3348 70.5804ZM59.9451 70.4818C59.7589 70.4938 59.5804 70.482 59.4097 70.4463C59.2434 70.4056 59.0876 70.3455 58.9421 70.266C58.7964 70.1819 58.6683 70.0803 58.5577 69.9612L58.9366 69.5299C59.0674 69.6711 59.2143 69.7738 59.3774 69.8381C59.5403 69.8977 59.7195 69.9212 59.9151 69.9085C60.1107 69.8959 60.2599 69.8535 60.3628 69.7814C60.4654 69.7046 60.5128 69.6057 60.505 69.4846C60.4972 69.3635 60.4469 69.2732 60.3542 69.2138C60.2659 69.1493 60.1528 69.1005 60.0151 69.0673C59.877 69.0295 59.7298 68.9946 59.5734 68.9626C59.4213 68.9257 59.2755 68.8766 59.136 68.8155C58.9964 68.7544 58.8785 68.6661 58.7822 68.5508C58.6905 68.4351 58.6382 68.2772 58.6253 68.0769C58.6123 67.8767 58.6501 67.7012 58.7386 67.5505C58.8267 67.3952 58.9544 67.2723 59.1216 67.182C59.2934 67.0914 59.5028 67.0382 59.7496 67.0222C60.0104 67.0053 60.2439 67.037 60.4502 67.1172C60.6608 67.1925 60.8372 67.3167 60.9793 67.4899L60.6003 67.9212C60.4994 67.8061 60.3769 67.7205 60.233 67.6644C60.0937 67.6079 59.938 67.5852 59.7657 67.5964C59.584 67.6081 59.4464 67.6497 59.3528 67.7212C59.2636 67.7878 59.2226 67.877 59.2298 67.9887C59.2371 68.1005 59.2846 68.184 59.3723 68.2391C59.46 68.2942 59.5728 68.3383 59.7105 68.3715C59.853 68.4044 60.0002 68.4393 60.1522 68.4763C60.3039 68.5085 60.4497 68.5576 60.5896 68.6234C60.7295 68.6891 60.8454 68.7822 60.9373 68.9025C61.0339 69.0225 61.0889 69.185 61.1021 69.3899C61.1223 69.7019 61.0265 69.956 60.8147 70.152C60.6075 70.3478 60.3177 70.4577 59.9451 70.4818ZM62.9262 70.2891C62.7399 70.3012 62.5615 70.2893 62.3908 70.2536C62.2245 70.2129 62.0686 70.1528 61.9232 70.0734C61.7775 69.9892 61.6493 69.8876 61.5388 69.7685L61.9177 69.3372C62.0484 69.4784 62.1954 69.5811 62.3585 69.6454C62.5214 69.705 62.7006 69.7285 62.8962 69.7159C63.0918 69.7032 63.241 69.6608 63.3439 69.5887C63.4465 69.5119 63.4939 69.413 63.4861 69.2919C63.4782 69.1708 63.428 69.0806 63.3353 69.0211C63.2469 68.9567 63.1339 68.9078 62.9961 68.8747C62.8581 68.8368 62.7108 68.8019 62.5545 68.7699C62.4024 68.733 62.2566 68.684 62.1171 68.6228C61.9775 68.5617 61.8596 68.4735 61.7633 68.3581C61.6716 68.2424 61.6193 68.0845 61.6064 67.8842C61.5934 67.684 61.6312 67.5085 61.7196 67.3578C61.8078 67.2025 61.9355 67.0797 62.1027 66.9894C62.2745 66.8988 62.4839 66.8455 62.7307 66.8295C62.9915 66.8127 63.225 66.8443 63.4313 66.9245C63.6419 66.9998 63.8183 67.124 63.9604 67.2972L63.5814 67.7285C63.4805 67.6135 63.358 67.5278 63.2141 67.4717C63.0748 67.4152 62.919 67.3925 62.7467 67.4037C62.5651 67.4154 62.4275 67.457 62.3339 67.5286C62.2447 67.5951 62.2037 67.6843 62.2109 67.7961C62.2182 67.9078 62.2656 67.9913 62.3534 68.0464C62.4411 68.1015 62.5539 68.1457 62.6916 68.1789C62.834 68.2117 62.9813 68.2466 63.1333 68.2836C63.285 68.3159 63.4308 68.3649 63.5707 68.4307C63.7106 68.4965 63.8265 68.5895 63.9184 68.7098C64.015 68.8298 64.07 68.9923 64.0832 69.1972C64.1034 69.5092 64.0076 69.7633 63.7958 69.9593C63.5886 70.1551 63.2988 70.265 62.9262 70.2891ZM66.3893 70.0653C66.0587 70.0866 65.7558 70.0314 65.4807 69.8995C65.2053 69.763 64.9824 69.5693 64.8118 69.3185C64.6413 69.0676 64.5454 68.7769 64.524 68.4462C64.5029 68.1202 64.5585 67.822 64.6906 67.5516C64.8275 67.2809 65.0191 67.0627 65.2656 66.8972C65.5165 66.7266 65.8026 66.631 66.1239 66.6102C66.4313 66.5903 66.7059 66.6427 66.9477 66.7674C67.1943 66.8917 67.3907 67.0731 67.5371 67.3115C67.6881 67.5496 67.7737 67.8247 67.7938 68.1367C67.7968 68.1832 67.7978 68.2346 67.7968 68.2908C67.7954 68.3423 67.79 68.4035 67.7806 68.4742L64.9794 68.6553L64.9456 68.1314L67.4114 67.972L67.194 68.1895C67.1795 67.9659 67.1278 67.7799 67.0387 67.6313C66.9493 67.4781 66.8297 67.3642 66.6799 67.2898C66.5298 67.2106 66.3523 67.1777 66.1474 67.1909C65.9332 67.2047 65.7476 67.2635 65.5906 67.3672C65.4336 67.4708 65.3163 67.6094 65.2387 67.7827C65.161 67.9561 65.1296 68.1569 65.1443 68.3851C65.1594 68.6179 65.2192 68.8198 65.3238 68.9908C65.4281 69.1571 65.5695 69.2835 65.7481 69.3702C65.9265 69.4522 66.1274 69.486 66.3509 69.4715C66.5372 69.4595 66.7051 69.4159 66.8545 69.3408C67.0087 69.2653 67.1374 69.1588 67.2407 69.0212L67.6725 69.4071C67.5262 69.6037 67.3398 69.7583 67.1133 69.8712C66.8914 69.9837 66.6501 70.0484 66.3893 70.0653ZM70.0017 69.8318C69.6943 69.8517 69.4148 69.7949 69.163 69.6615C68.9109 69.5235 68.7042 69.3288 68.543 69.0773C68.3864 68.8255 68.2976 68.5367 68.2765 68.2107C68.2555 67.8847 68.3064 67.5868 68.4292 67.317C68.5567 67.0469 68.7366 66.8271 68.9688 66.6578C69.201 66.4885 69.4708 66.3939 69.7782 66.374C70.025 66.3581 70.252 66.3972 70.4592 66.4913C70.6661 66.5808 70.8361 66.7148 70.9692 66.8933C71.1066 67.0668 71.1902 67.2741 71.2198 67.5154L71.2844 68.5143C71.2858 68.7527 71.2319 68.969 71.1229 69.1631C71.0139 69.3572 70.8627 69.5143 70.6693 69.6343C70.4757 69.7497 70.2532 69.8155 70.0017 69.8318ZM70.0681 69.2313C70.2777 69.2177 70.4561 69.1571 70.6035 69.0493C70.7555 68.9413 70.8703 68.8006 70.948 68.6272C71.0253 68.4492 71.0569 68.2508 71.0428 68.0319C71.028 67.8037 70.9687 67.6088 70.8647 67.4472C70.7654 67.2852 70.6334 67.1605 70.4687 67.0729C70.3087 66.9851 70.1239 66.9479 69.9144 66.9614C69.7048 66.975 69.524 67.0358 69.372 67.1438C69.22 67.2518 69.103 67.395 69.021 67.5733C68.9433 67.7467 68.9116 67.9428 68.9257 68.1617C68.9402 68.3852 68.9972 68.5803 69.0968 68.7469C69.2008 68.9085 69.3351 69.0331 69.4998 69.1207C69.6691 69.2079 69.8585 69.2448 70.0681 69.2313ZM71.7435 69.6491L71.1079 69.6901L71.0501 68.796L71.1164 67.978L70.9458 67.1824L70.7855 64.7026L71.4212 64.6615L71.7435 69.6491ZM74.6218 69.463L74.3175 64.7548L74.9462 64.7142L75.2505 69.4224L74.6218 69.463ZM73.6271 66.7706L73.59 66.1978L75.8533 66.0515L75.8903 66.6243L73.6271 66.7706ZM79.0307 69.1781L78.9057 67.2431C78.8894 66.9916 78.7969 66.7895 78.628 66.6367C78.4591 66.484 78.249 66.4157 77.9975 66.432C77.8298 66.4428 77.6832 66.4897 77.5576 66.5726C77.4321 66.6556 77.3362 66.7647 77.2701 66.8999C77.2041 67.0351 77.1764 67.1865 77.1873 67.3542L76.9193 67.2242C76.9031 66.9727 76.9445 66.7456 77.0436 66.5427C77.1428 66.3399 77.2888 66.1762 77.4819 66.0514C77.6746 65.9221 77.8967 65.8493 78.1482 65.833C78.3996 65.8168 78.6244 65.8583 78.8226 65.9578C79.0254 66.0569 79.1892 66.203 79.3139 66.396C79.4386 66.589 79.5094 66.8159 79.5262 67.0767L79.6594 69.1374L79.0307 69.1781ZM76.6836 69.3298L76.3613 64.3422L76.99 64.3015L77.3123 69.2891L76.6836 69.3298ZM82.0519 69.0529C81.7213 69.0743 81.4184 69.0191 81.1433 68.8872C80.868 68.7507 80.645 68.557 80.4745 68.3061C80.3039 68.0553 80.208 67.7645 80.1866 67.4339C80.1655 67.1079 80.2211 66.8097 80.3533 66.5393C80.4901 66.2685 80.6817 66.0504 80.9282 65.8848C81.1791 65.7143 81.4652 65.6186 81.7865 65.5979C82.0939 65.578 82.3685 65.6304 82.6104 65.755C82.8569 65.8794 83.0534 66.0608 83.1997 66.2992C83.3507 66.5373 83.4363 66.8123 83.4565 67.1243C83.4595 67.1709 83.4605 67.2223 83.4594 67.2784C83.4581 67.33 83.4527 67.3911 83.4432 67.4619L80.642 67.6429L80.6082 67.119L83.074 66.9596L82.8566 67.1771C82.8422 66.9536 82.7904 66.7675 82.7013 66.619C82.6119 66.4658 82.4923 66.3519 82.3425 66.2774C82.1924 66.1983 82.0149 66.1653 81.81 66.1785C81.5958 66.1924 81.4102 66.2512 81.2532 66.3548C81.0963 66.4585 80.979 66.597 80.9013 66.7704C80.8237 66.9438 80.7922 67.1445 80.807 67.3727C80.822 67.6056 80.8818 67.8075 80.9864 67.9784C81.0907 68.1447 81.2321 68.2712 81.4108 68.3578C81.5891 68.4398 81.79 68.4736 82.0136 68.4592C82.1998 68.4471 82.3677 68.4035 82.5172 68.3284C82.6713 68.253 82.8 68.1465 82.9034 68.0088L83.3352 68.3948C83.1889 68.5913 83.0024 68.746 82.7759 68.8588C82.554 68.9714 82.3127 69.0361 82.0519 69.0529ZM85.2664 68.775L86.937 63.7989L87.412 63.7682L89.7022 68.4883L88.9897 68.5344L87.097 64.5391L87.3415 64.5233L85.965 68.7299L85.2664 68.775ZM86.1386 67.6173L86.1016 67.0445L88.6512 66.8797L88.6883 67.4525L86.1386 67.6173ZM90.432 68.4411L90.1187 63.5933L90.5797 63.5635L92.8515 66.8047L92.5371 66.825L94.3728 63.3183L94.8338 63.2885L95.1472 68.1364L94.4905 68.1788L94.2517 64.4835L94.4081 64.5155L92.9595 67.2817L92.4984 67.3115L90.7058 64.7548L90.8498 64.7034L91.0886 68.3987L90.432 68.4411ZM98.4968 67.99C98.1475 68.0126 97.8198 67.9706 97.5136 67.8642C97.2071 67.753 96.9347 67.5906 96.6965 67.3769C96.4628 67.1628 96.2757 66.9084 96.1351 66.6135C95.9944 66.3186 95.913 65.9989 95.8907 65.6542C95.8681 65.305 95.9076 64.9751 96.0091 64.6645C96.1106 64.354 96.2636 64.0799 96.468 63.8422C96.6768 63.5996 96.9238 63.4059 97.2091 63.2612C97.4987 63.1116 97.8181 63.0255 98.1674 63.0029C98.5493 62.9782 98.8888 63.0217 99.1859 63.1335C99.4831 63.2452 99.7507 63.4056 99.9887 63.6147L99.564 64.0981C99.3991 63.9357 99.2018 63.8128 98.9719 63.7295C98.7468 63.6458 98.4921 63.6132 98.208 63.6316C97.9519 63.6481 97.7197 63.7099 97.5115 63.8169C97.303 63.9192 97.125 64.0593 96.9775 64.2372C96.83 64.4151 96.7194 64.621 96.6457 64.8549C96.5766 65.0885 96.5508 65.3403 96.5683 65.6105C96.5857 65.8806 96.6437 66.127 96.7423 66.3498C96.8455 66.5722 96.9817 66.7622 97.1509 66.9196C97.3201 67.077 97.5148 67.1954 97.735 67.2747C97.955 67.3493 98.193 67.3783 98.4491 67.3618C98.7518 67.3422 99.0118 67.2763 99.229 67.1641C99.4459 67.0472 99.6257 66.8976 99.7682 66.7154L100.251 67.1331C100.043 67.3804 99.7913 67.579 99.497 67.729C99.2074 67.8786 98.874 67.9656 98.4968 67.99ZM101.079 66.2098L100.765 62.7648L101.435 62.7215L101.568 66.1782L101.079 66.2098ZM101.42 67.8011C101.29 67.8095 101.18 67.7722 101.09 67.6891C101.001 67.6061 100.952 67.4993 100.943 67.3689C100.935 67.2385 100.97 67.1287 101.048 67.0395C101.126 66.9456 101.23 66.8944 101.361 66.886C101.496 66.8773 101.608 66.9144 101.698 66.9975C101.787 67.0759 101.836 67.1803 101.844 67.3107C101.853 67.4411 101.818 67.5532 101.74 67.6471C101.662 67.741 101.555 67.7923 101.42 67.8011Z" fill="#717171"/>
<path d="M13.7015 69.3925L12.9853 58.3117L14.4702 58.2157L15.1864 69.2966L13.7015 69.3925ZM10.8047 59.7994L10.718 58.4582L14.3105 58.226L14.3972 59.5672L10.8047 59.7994ZM21.7539 69.0324C20.9236 69.0861 20.1474 68.9011 19.4253 68.4774C18.7138 68.0531 18.1282 67.4283 17.6687 66.6028C17.2085 65.7668 16.9409 64.7686 16.8659 63.6084C16.7909 62.4481 16.9228 61.4295 17.2616 60.5525C17.6111 59.6748 18.1116 58.9851 18.7633 58.4833C19.4142 57.9709 20.1495 57.6883 20.9692 57.6353C21.8101 57.5809 22.5863 57.7659 23.2978 58.1902C24.0086 58.6039 24.5885 59.2238 25.0374 60.0499C25.4969 60.8753 25.7645 61.8735 25.8402 63.0444C25.9152 64.2046 25.7783 65.2289 25.4295 66.1173C25.0907 66.9943 24.5958 67.689 23.9449 68.2014C23.3039 68.7024 22.5735 68.9794 21.7539 69.0324ZM21.6301 67.6134C22.2156 67.5756 22.7162 67.3829 23.132 67.0354C23.5577 66.6765 23.8777 66.1695 24.0919 65.5143C24.306 64.8591 24.3829 64.0632 24.3223 63.1264C24.2618 62.1897 24.0835 61.4156 23.7874 60.8041C23.4907 60.1819 23.1084 59.7257 22.6407 59.4352C22.1723 59.1341 21.6454 59.0025 21.06 59.0404C20.4852 59.0775 19.9849 59.2755 19.5592 59.6344C19.1327 59.9826 18.8124 60.4843 18.5982 61.1395C18.394 61.7834 18.3222 62.5736 18.3827 63.5103C18.4433 64.4471 18.6166 65.2268 18.9027 65.8497C19.1994 66.4718 19.582 66.9335 20.0504 67.2345C20.5181 67.525 21.0447 67.6513 21.6301 67.6134Z" fill="#8052EE"/>
<defs>
<filter id="filter0_d_1134_1125" x="207.525" y="143.47" width="35.0438" height="47.5604" filterUnits="userSpaceOnUse" color-interpolation-filters="sRGB">
<feFlood flood-opacity="0" result="BackgroundImageFix"/>
<feColorMatrix in="SourceAlpha" type="matrix" values="0 0 0 0 0 0 0 0 0 0 0 0 0 0 0 0 0 0 127 0" result="hardAlpha"/>
<feOffset dx="5.48449" dy="5.48449"/>
<feGaussianBlur stdDeviation="3.13399"/>
<feComposite in2="hardAlpha" operator="out"/>
<feColorMatrix type="matrix" values="0 0 0 0 0 0 0 0 0 0 0 0 0 0 0 0 0 0 0.3 0"/>
<feBlend mode="normal" in2="BackgroundImageFix" result="effect1_dropShadow_1134_1125"/>
<feBlend mode="normal" in="SourceGraphic" in2="effect1_dropShadow_1134_1125" result="shape"/>
</filter>
<filter id="filter1_d_1134_1125" x="77.8242" y="217.266" width="139" height="37.3" filterUnits="userSpaceOnUse" color-interpolation-filters="sRGB">
<feFlood flood-opacity="0" result="BackgroundImageFix"/>
<feColorMatrix in="SourceAlpha" type="matrix" values="0 0 0 0 0 0 0 0 0 0 0 0 0 0 0 0 0 0 127 0" result="hardAlpha"/>
<feMorphology radius="7" operator="erode" in="SourceAlpha" result="effect1_dropShadow_1134_1125"/>
<feOffset dy="4"/>
<feGaussianBlur stdDeviation="3.15"/>
<feComposite in2="hardAlpha" operator="out"/>
<feColorMatrix type="matrix" values="0 0 0 0 0 0 0 0 0 0 0 0 0 0 0 0 0 0 0.25 0"/>
<feBlend mode="normal" in2="BackgroundImageFix" result="effect1_dropShadow_1134_1125"/>
<feBlend mode="normal" in="SourceGraphic" in2="effect1_dropShadow_1134_1125" result="shape"/>
</filter>
<filter id="filter2_d_1134_1125" x="1.05859" y="41.0664" width="111.84" height="43.0322" filterUnits="userSpaceOnUse" color-interpolation-filters="sRGB">
<feFlood flood-opacity="0" result="BackgroundImageFix"/>
<feColorMatrix in="SourceAlpha" type="matrix" values="0 0 0 0 0 0 0 0 0 0 0 0 0 0 0 0 0 0 127 0" result="hardAlpha"/>
<feMorphology radius="4" operator="erode" in="SourceAlpha" result="effect1_dropShadow_1134_1125"/>
<feOffset dy="4"/>
<feGaussianBlur stdDeviation="2"/>
<feComposite in2="hardAlpha" operator="out"/>
<feColorMatrix type="matrix" values="0 0 0 0 0 0 0 0 0 0 0 0 0 0 0 0 0 0 0.25 0"/>
<feBlend mode="normal" in2="BackgroundImageFix" result="effect1_dropShadow_1134_1125"/>
<feBlend mode="normal" in="SourceGraphic" in2="effect1_dropShadow_1134_1125" result="shape"/>
</filter>
<linearGradient id="paint0_linear_1134_1125" x1="147.324" y1="21.2661" x2="147.324" y2="244.266" gradientUnits="userSpaceOnUse">
<stop stop-color="#A988F9"/>
<stop offset="1" stop-color="#6D3AE9"/>
</linearGradient>
<linearGradient id="paint1_linear_1134_1125" x1="215.027" y1="147.555" x2="214.596" y2="146.035" gradientUnits="userSpaceOnUse">
<stop stop-color="#73488D" stop-opacity="0"/>
<stop offset="1" stop-color="#73488D" stop-opacity="0.48"/>
</linearGradient>
<linearGradient id="paint2_linear_1134_1125" x1="217.525" y1="156.1" x2="217.76" y2="156.929" gradientUnits="userSpaceOnUse">
<stop stop-color="#73488D" stop-opacity="0"/>
<stop offset="1" stop-color="#73488D" stop-opacity="0.48"/>
</linearGradient>
<linearGradient id="paint3_linear_1134_1125" x1="218.552" y1="159.991" x2="224.091" y2="179.533" gradientUnits="userSpaceOnUse">
<stop stop-color="#FFD951"/>
<stop offset="1" stop-color="#A96500"/>
</linearGradient>
<linearGradient id="paint4_linear_1134_1125" x1="221.565" y1="164.651" x2="221.565" y2="175.183" gradientUnits="userSpaceOnUse">
<stop stop-color="#D79B00"/>
<stop offset="1" stop-color="#FFDD64"/>
</linearGradient>
<linearGradient id="paint5_linear_1134_1125" x1="221.628" y1="166.99" x2="221.628" y2="172.619" gradientUnits="userSpaceOnUse">
<stop offset="0.0001" stop-color="#FFDA95"/>
<stop offset="0.0002" stop-color="#FFE2A9"/>
<stop offset="1" stop-color="#E6D224"/>
</linearGradient>
<linearGradient id="paint6_linear_1134_1125" x1="26.5664" y1="53.0142" x2="10.0826" y2="73.2899" gradientUnits="userSpaceOnUse">
<stop stop-color="#A583F8"/>
<stop offset="1" stop-color="#7140EA"/>
</linearGradient>
<linearGradient id="paint7_linear_1134_1125" x1="26.5664" y1="53.0142" x2="10.0826" y2="73.2899" gradientUnits="userSpaceOnUse">
<stop stop-color="#A583F8"/>
<stop offset="1" stop-color="#7140EA"/>
</linearGradient>
</defs>
</svg>
