<svg width="328" height="104" viewBox="0 0 328 104" fill="none" xmlns="http://www.w3.org/2000/svg">
<rect x="2" y="2" width="324" height="76" rx="6" fill="white"/>
<rect x="2" y="2" width="324" height="76" rx="6" stroke="#E1CFFF" stroke-width="4"/>
<path d="M18.7483 18.76L16.5643 15.4H17.6283L19.3323 18.08H18.8363L20.5403 15.4H21.5883L19.3883 18.76H18.7483ZM18.6203 21V18.184H19.5403V21H18.6203ZM23.4394 21.08C23.0661 21.08 22.7274 20.992 22.4234 20.816C22.1194 20.6347 21.8767 20.392 21.6954 20.088C21.5194 19.784 21.4314 19.4453 21.4314 19.072C21.4314 18.6987 21.5194 18.3627 21.6954 18.064C21.8767 17.7653 22.1194 17.528 22.4234 17.352C22.7274 17.1707 23.0661 17.08 23.4394 17.08C23.8181 17.08 24.1594 17.168 24.4634 17.344C24.7674 17.52 25.0074 17.76 25.1834 18.064C25.3647 18.3627 25.4554 18.6987 25.4554 19.072C25.4554 19.4453 25.3647 19.784 25.1834 20.088C25.0074 20.392 24.7674 20.6347 24.4634 20.816C24.1594 20.992 23.8181 21.08 23.4394 21.08ZM23.4394 20.232C23.6581 20.232 23.8501 20.184 24.0154 20.088C24.1861 19.9867 24.3167 19.848 24.4074 19.672C24.5034 19.496 24.5514 19.296 24.5514 19.072C24.5514 18.848 24.5034 18.6507 24.4074 18.48C24.3114 18.3093 24.1807 18.176 24.0154 18.08C23.8501 17.9787 23.6581 17.928 23.4394 17.928C23.2261 17.928 23.0341 17.9787 22.8634 18.08C22.6981 18.176 22.5674 18.3093 22.4714 18.48C22.3807 18.6507 22.3354 18.848 22.3354 19.072C22.3354 19.296 22.3807 19.496 22.4714 19.672C22.5674 19.848 22.6981 19.9867 22.8634 20.088C23.0341 20.184 23.2261 20.232 23.4394 20.232ZM28.3632 21.08C28.0379 21.08 27.7472 21.008 27.4912 20.864C27.2406 20.72 27.0432 20.5227 26.8992 20.272C26.7606 20.016 26.6912 19.7227 26.6912 19.392V17.16H27.5712V19.352C27.5712 19.5387 27.6006 19.6987 27.6592 19.832C27.7232 19.96 27.8139 20.0587 27.9312 20.128C28.0539 20.1973 28.1979 20.232 28.3632 20.232C28.6192 20.232 28.8139 20.1573 28.9472 20.008C29.0859 19.8533 29.1552 19.6347 29.1552 19.352V17.16H30.0352V19.392C30.0352 19.728 29.9632 20.024 29.8192 20.28C29.6806 20.5307 29.4859 20.728 29.2352 20.872C28.9846 21.0107 28.6939 21.08 28.3632 21.08ZM31.52 21V17.16H32.4V21H31.52ZM32.4 18.864L32.096 18.712C32.096 18.2267 32.2027 17.8347 32.416 17.536C32.6347 17.232 32.9627 17.08 33.4 17.08C33.592 17.08 33.7654 17.1147 33.92 17.184C34.0747 17.2533 34.2187 17.3653 34.352 17.52L33.776 18.112C33.7067 18.0373 33.6294 17.984 33.544 17.952C33.4587 17.92 33.36 17.904 33.248 17.904C33.0027 17.904 32.8 17.9813 32.64 18.136C32.48 18.2907 32.4 18.5333 32.4 18.864ZM39.776 21.08C39.4827 21.08 39.2214 21.0187 38.992 20.896C38.7627 20.768 38.5814 20.5947 38.448 20.376C38.32 20.1573 38.256 19.9093 38.256 19.632V18.528C38.256 18.2507 38.3227 18.0027 38.456 17.784C38.5894 17.5653 38.7707 17.3947 39 17.272C39.2294 17.144 39.488 17.08 39.776 17.08C40.1227 17.08 40.4347 17.1707 40.712 17.352C40.9947 17.528 41.216 17.768 41.376 18.072C41.5414 18.3707 41.624 18.7093 41.624 19.088C41.624 19.4613 41.5414 19.8 41.376 20.104C41.216 20.4027 40.9947 20.64 40.712 20.816C40.4347 20.992 40.1227 21.08 39.776 21.08ZM39.632 20.248C39.8454 20.248 40.032 20.2 40.192 20.104C40.3574 20.0027 40.4854 19.864 40.576 19.688C40.672 19.512 40.72 19.3093 40.72 19.08C40.72 18.8507 40.672 18.648 40.576 18.472C40.4854 18.296 40.3574 18.16 40.192 18.064C40.032 17.9627 39.8454 17.912 39.632 17.912C39.4187 17.912 39.2294 17.9627 39.064 18.064C38.8987 18.16 38.7707 18.296 38.68 18.472C38.5894 18.648 38.544 18.8507 38.544 19.08C38.544 19.3093 38.5894 19.512 38.68 19.688C38.7707 19.864 38.8987 20.0027 39.064 20.104C39.2294 20.2 39.4187 20.248 39.632 20.248ZM37.72 22.6V17.16H38.6V18.192L38.448 19.128L38.6 20.056V22.6H37.72ZM42.9607 21V17.16H43.8407V21H42.9607ZM43.8407 18.864L43.5367 18.712C43.5367 18.2267 43.6433 17.8347 43.8567 17.536C44.0753 17.232 44.4033 17.08 44.8407 17.08C45.0327 17.08 45.206 17.1147 45.3607 17.184C45.5153 17.2533 45.6593 17.3653 45.7927 17.52L45.2167 18.112C45.1473 18.0373 45.07 17.984 44.9847 17.952C44.8993 17.92 44.8007 17.904 44.6887 17.904C44.4433 17.904 44.2407 17.9813 44.0807 18.136C43.9207 18.2907 43.8407 18.5333 43.8407 18.864ZM48.4613 21.08C48.0879 21.08 47.7493 20.992 47.4453 20.816C47.1413 20.6347 46.8986 20.392 46.7173 20.088C46.5413 19.784 46.4533 19.4453 46.4533 19.072C46.4533 18.6987 46.5413 18.3627 46.7173 18.064C46.8986 17.7653 47.1413 17.528 47.4453 17.352C47.7493 17.1707 48.0879 17.08 48.4613 17.08C48.8399 17.08 49.1813 17.168 49.4853 17.344C49.7893 17.52 50.0293 17.76 50.2053 18.064C50.3866 18.3627 50.4773 18.6987 50.4773 19.072C50.4773 19.4453 50.3866 19.784 50.2053 20.088C50.0293 20.392 49.7893 20.6347 49.4853 20.816C49.1813 20.992 48.8399 21.08 48.4613 21.08ZM48.4613 20.232C48.6799 20.232 48.8719 20.184 49.0373 20.088C49.2079 19.9867 49.3386 19.848 49.4293 19.672C49.5253 19.496 49.5733 19.296 49.5733 19.072C49.5733 18.848 49.5253 18.6507 49.4293 18.48C49.3333 18.3093 49.2026 18.176 49.0373 18.08C48.8719 17.9787 48.6799 17.928 48.4613 17.928C48.2479 17.928 48.0559 17.9787 47.8853 18.08C47.7199 18.176 47.5893 18.3093 47.4933 18.48C47.4026 18.6507 47.3573 18.848 47.3573 19.072C47.3573 19.296 47.4026 19.496 47.4933 19.672C47.5893 19.848 47.7199 19.9867 47.8853 20.088C48.0559 20.184 48.2479 20.232 48.4613 20.232ZM53.4091 22.68C53.0038 22.68 52.6491 22.6053 52.3451 22.456C52.0411 22.312 51.7958 22.1067 51.6091 21.84L52.1851 21.264C52.3398 21.456 52.5158 21.6 52.7131 21.696C52.9104 21.792 53.1478 21.84 53.4251 21.84C53.7718 21.84 54.0464 21.7493 54.2491 21.568C54.4518 21.392 54.5531 21.1493 54.5531 20.84V19.896L54.7051 19.048L54.5531 18.192V17.16H55.4331V20.84C55.4331 21.208 55.3478 21.528 55.1771 21.8C55.0064 22.0773 54.7691 22.2933 54.4651 22.448C54.1611 22.6027 53.8091 22.68 53.4091 22.68ZM53.3691 20.92C53.0278 20.92 52.7184 20.8373 52.4411 20.672C52.1691 20.5013 51.9531 20.2693 51.7931 19.976C51.6384 19.6827 51.5611 19.3547 51.5611 18.992C51.5611 18.6293 51.6384 18.304 51.7931 18.016C51.9531 17.728 52.1691 17.5013 52.4411 17.336C52.7184 17.1653 53.0278 17.08 53.3691 17.08C53.6731 17.08 53.9398 17.1413 54.1691 17.264C54.3984 17.3867 54.5771 17.5573 54.7051 17.776C54.8331 17.9893 54.8971 18.24 54.8971 18.528V19.472C54.8971 19.7547 54.8304 20.0053 54.6971 20.224C54.5691 20.4427 54.3904 20.6133 54.1611 20.736C53.9318 20.8587 53.6678 20.92 53.3691 20.92ZM53.5451 20.088C53.7584 20.088 53.9451 20.0427 54.1051 19.952C54.2651 19.8613 54.3878 19.736 54.4731 19.576C54.5638 19.4107 54.6091 19.2187 54.6091 19C54.6091 18.7813 54.5638 18.592 54.4731 18.432C54.3878 18.2667 54.2651 18.1387 54.1051 18.048C53.9451 17.9573 53.7584 17.912 53.5451 17.912C53.3318 17.912 53.1424 17.9573 52.9771 18.048C52.8171 18.1387 52.6918 18.2667 52.6011 18.432C52.5104 18.592 52.4651 18.7813 52.4651 19C52.4651 19.2133 52.5104 19.4027 52.6011 19.568C52.6918 19.7333 52.8171 19.8613 52.9771 19.952C53.1424 20.0427 53.3318 20.088 53.5451 20.088ZM57.0107 21V17.16H57.8907V21H57.0107ZM57.8907 18.864L57.5867 18.712C57.5867 18.2267 57.6933 17.8347 57.9067 17.536C58.1253 17.232 58.4533 17.08 58.8907 17.08C59.0827 17.08 59.256 17.1147 59.4107 17.184C59.5653 17.2533 59.7093 17.3653 59.8427 17.52L59.2667 18.112C59.1973 18.0373 59.12 17.984 59.0347 17.952C58.9493 17.92 58.8507 17.904 58.7387 17.904C58.4933 17.904 58.2907 17.9813 58.1307 18.136C57.9707 18.2907 57.8907 18.5333 57.8907 18.864ZM62.5353 21.08C62.1513 21.08 61.8046 20.9947 61.4953 20.824C61.1913 20.648 60.9486 20.408 60.7673 20.104C60.5913 19.8 60.5033 19.4587 60.5033 19.08C60.5033 18.7013 60.5913 18.3627 60.7673 18.064C60.9433 17.76 61.1806 17.52 61.4793 17.344C61.7833 17.168 62.1193 17.08 62.4873 17.08C62.8446 17.08 63.1593 17.1627 63.4313 17.328C63.7086 17.4933 63.9246 17.72 64.0793 18.008C64.2393 18.296 64.3193 18.624 64.3193 18.992C64.3193 19.056 64.3139 19.1227 64.3033 19.192C64.2979 19.256 64.2873 19.328 64.2713 19.408H61.1193V18.688H63.8153L63.4873 18.976C63.4766 18.7413 63.4313 18.544 63.3513 18.384C63.2713 18.224 63.1566 18.1013 63.0073 18.016C62.8633 17.9307 62.6846 17.888 62.4713 17.888C62.2473 17.888 62.0526 17.936 61.8873 18.032C61.7219 18.128 61.5939 18.264 61.5033 18.44C61.4126 18.6107 61.3673 18.816 61.3673 19.056C61.3673 19.296 61.4153 19.5067 61.5113 19.688C61.6073 19.8693 61.7433 20.0107 61.9193 20.112C62.0953 20.208 62.2979 20.256 62.5273 20.256C62.7246 20.256 62.9059 20.2213 63.0713 20.152C63.2419 20.0827 63.3859 19.9813 63.5033 19.848L64.0633 20.416C63.8766 20.6347 63.6499 20.8 63.3833 20.912C63.1166 21.024 62.8339 21.08 62.5353 21.08ZM66.8807 21.08C66.6674 21.08 66.4621 21.0533 66.2647 21C66.0674 20.9413 65.8861 20.8613 65.7207 20.76C65.5554 20.6533 65.4114 20.5253 65.2887 20.376L65.8487 19.816C65.9821 19.9707 66.1341 20.088 66.3047 20.168C66.4807 20.2427 66.6781 20.28 66.8967 20.28C67.0941 20.28 67.2434 20.2507 67.3447 20.192C67.4461 20.1333 67.4967 20.048 67.4967 19.936C67.4967 19.8187 67.4487 19.728 67.3527 19.664C67.2567 19.6 67.1314 19.5467 66.9767 19.504C66.8274 19.456 66.6674 19.408 66.4967 19.36C66.3314 19.312 66.1714 19.248 66.0167 19.168C65.8674 19.0827 65.7447 18.968 65.6487 18.824C65.5527 18.68 65.5047 18.4933 65.5047 18.264C65.5047 18.0187 65.5607 17.808 65.6727 17.632C65.7901 17.456 65.9527 17.32 66.1607 17.224C66.3741 17.128 66.6274 17.08 66.9207 17.08C67.2301 17.08 67.5021 17.136 67.7367 17.248C67.9767 17.3547 68.1767 17.5173 68.3367 17.736L67.7767 18.296C67.6647 18.1573 67.5367 18.0533 67.3927 17.984C67.2487 17.9147 67.0834 17.88 66.8967 17.88C66.7207 17.88 66.5847 17.9067 66.4887 17.96C66.3927 18.0133 66.3447 18.0907 66.3447 18.192C66.3447 18.2987 66.3927 18.3813 66.4887 18.44C66.5847 18.4987 66.7074 18.5493 66.8567 18.592C67.0114 18.6347 67.1714 18.6827 67.3367 18.736C67.5074 18.784 67.6674 18.8533 67.8167 18.944C67.9714 19.0293 68.0967 19.1467 68.1927 19.296C68.2887 19.44 68.3367 19.6293 68.3367 19.864C68.3367 20.2373 68.2061 20.5333 67.9447 20.752C67.6834 20.9707 67.3287 21.08 66.8807 21.08ZM70.9182 21.08C70.7049 21.08 70.4996 21.0533 70.3022 21C70.1049 20.9413 69.9236 20.8613 69.7582 20.76C69.5929 20.6533 69.4489 20.5253 69.3262 20.376L69.8862 19.816C70.0196 19.9707 70.1716 20.088 70.3422 20.168C70.5182 20.2427 70.7156 20.28 70.9342 20.28C71.1316 20.28 71.2809 20.2507 71.3822 20.192C71.4836 20.1333 71.5342 20.048 71.5342 19.936C71.5342 19.8187 71.4862 19.728 71.3902 19.664C71.2942 19.6 71.1689 19.5467 71.0142 19.504C70.8649 19.456 70.7049 19.408 70.5342 19.36C70.3689 19.312 70.2089 19.248 70.0542 19.168C69.9049 19.0827 69.7822 18.968 69.6862 18.824C69.5902 18.68 69.5422 18.4933 69.5422 18.264C69.5422 18.0187 69.5982 17.808 69.7102 17.632C69.8276 17.456 69.9902 17.32 70.1982 17.224C70.4116 17.128 70.6649 17.08 70.9582 17.08C71.2676 17.08 71.5396 17.136 71.7742 17.248C72.0142 17.3547 72.2142 17.5173 72.3742 17.736L71.8142 18.296C71.7022 18.1573 71.5742 18.0533 71.4302 17.984C71.2862 17.9147 71.1209 17.88 70.9342 17.88C70.7582 17.88 70.6222 17.9067 70.5262 17.96C70.4302 18.0133 70.3822 18.0907 70.3822 18.192C70.3822 18.2987 70.4302 18.3813 70.5262 18.44C70.6222 18.4987 70.7449 18.5493 70.8942 18.592C71.0489 18.6347 71.2089 18.6827 71.3742 18.736C71.5449 18.784 71.7049 18.8533 71.8542 18.944C72.0089 19.0293 72.1342 19.1467 72.2302 19.296C72.3262 19.44 72.3742 19.6293 72.3742 19.864C72.3742 20.2373 72.2436 20.5333 71.9822 20.752C71.7209 20.9707 71.3662 21.08 70.9182 21.08Z" fill="#7949EC"/>
<path d="M20.5678 41.792L16.2158 34.704H19.1278L22.4718 40.432H20.5998L23.9438 34.704H26.7918L22.4078 41.792H20.5678ZM20.2638 46V40.64H22.7758V46H20.2638ZM29.3189 46.176C28.5189 46.176 27.7936 46 27.1429 45.648C26.5029 45.2853 25.9963 44.7947 25.6229 44.176C25.2496 43.5573 25.0629 42.864 25.0629 42.096C25.0629 41.328 25.2496 40.64 25.6229 40.032C25.9963 39.424 26.5029 38.944 27.1429 38.592C27.7829 38.2293 28.5083 38.048 29.3189 38.048C30.1296 38.048 30.8549 38.224 31.4949 38.576C32.1349 38.928 32.6416 39.4133 33.0149 40.032C33.3883 40.64 33.5749 41.328 33.5749 42.096C33.5749 42.864 33.3883 43.5573 33.0149 44.176C32.6416 44.7947 32.1349 45.2853 31.4949 45.648C30.8549 46 30.1296 46.176 29.3189 46.176ZM29.3189 43.952C29.6709 43.952 29.9803 43.8773 30.2469 43.728C30.5136 43.568 30.7163 43.3493 30.8549 43.072C31.0043 42.784 31.0789 42.4587 31.0789 42.096C31.0789 41.7333 31.0043 41.4187 30.8549 41.152C30.7056 40.8747 30.4976 40.6613 30.2309 40.512C29.9749 40.352 29.6709 40.272 29.3189 40.272C28.9776 40.272 28.6736 40.352 28.4069 40.512C28.1403 40.6613 27.9323 40.8747 27.7829 41.152C27.6336 41.4293 27.5589 41.7493 27.5589 42.112C27.5589 42.464 27.6336 42.784 27.7829 43.072C27.9323 43.3493 28.1403 43.568 28.4069 43.728C28.6736 43.8773 28.9776 43.952 29.3189 43.952ZM38.2497 46.176C37.535 46.176 36.9004 46.032 36.3457 45.744C35.8017 45.4453 35.375 45.04 35.0657 44.528C34.7564 44.0053 34.6017 43.408 34.6017 42.736V38.224H37.0497V42.704C37.0497 42.9707 37.0924 43.2 37.1777 43.392C37.2737 43.584 37.4124 43.7333 37.5937 43.84C37.775 43.9467 37.9937 44 38.2497 44C38.6124 44 38.9004 43.888 39.1137 43.664C39.327 43.4293 39.4337 43.1093 39.4337 42.704V38.224H41.8817V42.72C41.8817 43.4027 41.727 44.0053 41.4177 44.528C41.1084 45.04 40.6817 45.4453 40.1377 45.744C39.5937 46.032 38.9644 46.176 38.2497 46.176ZM43.4187 46V38.224H45.8667V46H43.4187ZM45.8667 41.728L44.8427 40.928C45.0454 40.0213 45.3867 39.3173 45.8667 38.816C46.3467 38.3147 47.0134 38.064 47.8667 38.064C48.24 38.064 48.5654 38.1227 48.8427 38.24C49.1307 38.3467 49.3814 38.5173 49.5947 38.752L48.1387 40.592C48.032 40.4747 47.8987 40.384 47.7387 40.32C47.5787 40.256 47.3974 40.224 47.1947 40.224C46.7894 40.224 46.464 40.352 46.2187 40.608C45.984 40.8533 45.8667 41.2267 45.8667 41.728ZM53.7989 46V34.704H56.3109V46H53.7989ZM55.7189 41.568V39.408H61.3669V41.568H55.7189ZM55.7189 36.864V34.704H61.6229V36.864H55.7189ZM63.0124 46V38.224H65.4604V46H63.0124ZM64.2444 37.152C63.8604 37.152 63.5404 37.024 63.2844 36.768C63.0391 36.5013 62.9164 36.1813 62.9164 35.808C62.9164 35.424 63.0391 35.104 63.2844 34.848C63.5404 34.592 63.8604 34.464 64.2444 34.464C64.6284 34.464 64.9431 34.592 65.1884 34.848C65.4338 35.104 65.5564 35.424 65.5564 35.808C65.5564 36.1813 65.4338 36.5013 65.1884 36.768C64.9431 37.024 64.6284 37.152 64.2444 37.152ZM67.1843 46V38.224H69.6323V46H67.1843ZM69.6323 41.728L68.6083 40.928C68.811 40.0213 69.1523 39.3173 69.6323 38.816C70.1123 38.3147 70.779 38.064 71.6323 38.064C72.0056 38.064 72.331 38.1227 72.6083 38.24C72.8963 38.3467 73.147 38.5173 73.3603 38.752L71.9043 40.592C71.7976 40.4747 71.6643 40.384 71.5043 40.32C71.3443 40.256 71.163 40.224 70.9603 40.224C70.555 40.224 70.2296 40.352 69.9843 40.608C69.7496 40.8533 69.6323 41.2267 69.6323 41.728ZM76.6726 46.192C76.2139 46.192 75.7606 46.1333 75.3126 46.016C74.8752 45.8987 74.4646 45.7333 74.0806 45.52C73.7072 45.296 73.3872 45.04 73.1206 44.752L74.5126 43.344C74.7686 43.6213 75.0726 43.84 75.4246 44C75.7766 44.1493 76.1606 44.224 76.5766 44.224C76.8646 44.224 77.0832 44.1813 77.2326 44.096C77.3926 44.0107 77.4726 43.8933 77.4726 43.744C77.4726 43.552 77.3766 43.408 77.1846 43.312C77.0032 43.2053 76.7686 43.1147 76.4806 43.04C76.1926 42.9547 75.8886 42.864 75.5686 42.768C75.2486 42.672 74.9446 42.5387 74.6566 42.368C74.3686 42.1973 74.1339 41.9627 73.9526 41.664C73.7712 41.3547 73.6806 40.9653 73.6806 40.496C73.6806 39.9947 73.8086 39.5627 74.0646 39.2C74.3206 38.8267 74.6832 38.5333 75.1526 38.32C75.6219 38.1067 76.1712 38 76.8006 38C77.4619 38 78.0699 38.1173 78.6246 38.352C79.1899 38.576 79.6486 38.912 80.0006 39.36L78.6086 40.768C78.3632 40.48 78.0859 40.2773 77.7766 40.16C77.4779 40.0427 77.1846 39.984 76.8966 39.984C76.6192 39.984 76.4112 40.0267 76.2726 40.112C76.1339 40.1867 76.0646 40.2987 76.0646 40.448C76.0646 40.608 76.1552 40.736 76.3366 40.832C76.5179 40.928 76.7526 41.0133 77.0406 41.088C77.3286 41.1627 77.6326 41.2533 77.9526 41.36C78.2726 41.4667 78.5766 41.6107 78.8646 41.792C79.1526 41.9733 79.3872 42.2187 79.5686 42.528C79.7499 42.8267 79.8406 43.2213 79.8406 43.712C79.8406 44.4693 79.5526 45.072 78.9766 45.52C78.4112 45.968 77.6432 46.192 76.6726 46.192ZM82.2727 46V35.008H84.7207V46H82.2727ZM80.5127 40.304V38.224H86.4807V40.304H80.5127ZM94.2222 46.176C93.2942 46.176 92.4942 46.0267 91.8222 45.728C91.1609 45.4187 90.5529 44.9547 89.9982 44.336L91.6302 42.72C91.9929 43.136 92.3929 43.4613 92.8302 43.696C93.2782 43.92 93.7955 44.032 94.3822 44.032C94.9155 44.032 95.3262 43.936 95.6142 43.744C95.9129 43.552 96.0622 43.2853 96.0622 42.944C96.0622 42.6347 95.9662 42.384 95.7742 42.192C95.5822 42 95.3262 41.8347 95.0062 41.696C94.6969 41.5573 94.3502 41.424 93.9662 41.296C93.5929 41.168 93.2195 41.024 92.8462 40.864C92.4729 40.6933 92.1262 40.4853 91.8062 40.24C91.4969 39.984 91.2462 39.6693 91.0542 39.296C90.8622 38.912 90.7662 38.432 90.7662 37.856C90.7662 37.1627 90.9315 36.5653 91.2622 36.064C91.6035 35.5627 92.0729 35.184 92.6702 34.928C93.2675 34.6613 93.9555 34.528 94.7342 34.528C95.5235 34.528 96.2435 34.6667 96.8942 34.944C97.5555 35.2213 98.0995 35.6 98.5262 36.08L96.8942 37.696C96.5529 37.344 96.2062 37.0827 95.8542 36.912C95.5129 36.7413 95.1235 36.656 94.6862 36.656C94.2489 36.656 93.9022 36.7413 93.6462 36.912C93.3902 37.072 93.2622 37.3067 93.2622 37.616C93.2622 37.904 93.3582 38.1387 93.5502 38.32C93.7422 38.4907 93.9929 38.64 94.3022 38.768C94.6222 38.896 94.9689 39.024 95.3422 39.152C95.7262 39.28 96.1049 39.4293 96.4782 39.6C96.8515 39.7707 97.1929 39.9893 97.5022 40.256C97.8222 40.512 98.0782 40.8427 98.2702 41.248C98.4622 41.6427 98.5582 42.1333 98.5582 42.72C98.5582 43.7973 98.1742 44.6453 97.4062 45.264C96.6382 45.872 95.5769 46.176 94.2222 46.176ZM103.727 46.176C102.885 46.176 102.133 46.0053 101.471 45.664C100.821 45.312 100.309 44.8267 99.9354 44.208C99.5621 43.5893 99.3754 42.8907 99.3754 42.112C99.3754 41.3333 99.5568 40.64 99.9194 40.032C100.293 39.4133 100.794 38.928 101.423 38.576C102.053 38.224 102.762 38.048 103.551 38.048C104.319 38.048 104.997 38.2133 105.583 38.544C106.17 38.8747 106.629 39.3333 106.959 39.92C107.301 40.5067 107.471 41.1787 107.471 41.936C107.471 42.0747 107.461 42.224 107.439 42.384C107.429 42.5333 107.402 42.7093 107.359 42.912L100.655 42.928V41.248L106.319 41.232L105.263 41.936C105.253 41.488 105.183 41.12 105.055 40.832C104.927 40.5333 104.735 40.3093 104.479 40.16C104.234 40 103.93 39.92 103.567 39.92C103.183 39.92 102.847 40.0107 102.559 40.192C102.282 40.3627 102.063 40.608 101.903 40.928C101.754 41.248 101.679 41.6373 101.679 42.096C101.679 42.5547 101.759 42.9493 101.919 43.28C102.09 43.6 102.325 43.8507 102.623 44.032C102.933 44.2027 103.295 44.288 103.711 44.288C104.095 44.288 104.442 44.224 104.751 44.096C105.061 43.9573 105.333 43.7547 105.567 43.488L106.911 44.832C106.527 45.28 106.063 45.616 105.519 45.84C104.975 46.064 104.378 46.176 103.727 46.176ZM111.485 46.192C111.026 46.192 110.573 46.1333 110.125 46.016C109.688 45.8987 109.277 45.7333 108.893 45.52C108.52 45.296 108.2 45.04 107.933 44.752L109.325 43.344C109.581 43.6213 109.885 43.84 110.237 44C110.589 44.1493 110.973 44.224 111.389 44.224C111.677 44.224 111.896 44.1813 112.045 44.096C112.205 44.0107 112.285 43.8933 112.285 43.744C112.285 43.552 112.189 43.408 111.997 43.312C111.816 43.2053 111.581 43.1147 111.293 43.04C111.005 42.9547 110.701 42.864 110.381 42.768C110.061 42.672 109.757 42.5387 109.469 42.368C109.181 42.1973 108.946 41.9627 108.765 41.664C108.584 41.3547 108.493 40.9653 108.493 40.496C108.493 39.9947 108.621 39.5627 108.877 39.2C109.133 38.8267 109.496 38.5333 109.965 38.32C110.434 38.1067 110.984 38 111.613 38C112.274 38 112.882 38.1173 113.437 38.352C114.002 38.576 114.461 38.912 114.813 39.36L113.421 40.768C113.176 40.48 112.898 40.2773 112.589 40.16C112.29 40.0427 111.997 39.984 111.709 39.984C111.432 39.984 111.224 40.0267 111.085 40.112C110.946 40.1867 110.877 40.2987 110.877 40.448C110.877 40.608 110.968 40.736 111.149 40.832C111.33 40.928 111.565 41.0133 111.853 41.088C112.141 41.1627 112.445 41.2533 112.765 41.36C113.085 41.4667 113.389 41.6107 113.677 41.792C113.965 41.9733 114.2 42.2187 114.381 42.528C114.562 42.8267 114.653 43.2213 114.653 43.712C114.653 44.4693 114.365 45.072 113.789 45.52C113.224 45.968 112.456 46.192 111.485 46.192ZM118.813 46.192C118.355 46.192 117.901 46.1333 117.453 46.016C117.016 45.8987 116.605 45.7333 116.221 45.52C115.848 45.296 115.528 45.04 115.261 44.752L116.653 43.344C116.909 43.6213 117.213 43.84 117.565 44C117.917 44.1493 118.301 44.224 118.717 44.224C119.005 44.224 119.224 44.1813 119.373 44.096C119.533 44.0107 119.613 43.8933 119.613 43.744C119.613 43.552 119.517 43.408 119.325 43.312C119.144 43.2053 118.909 43.1147 118.621 43.04C118.333 42.9547 118.029 42.864 117.709 42.768C117.389 42.672 117.085 42.5387 116.797 42.368C116.509 42.1973 116.275 41.9627 116.093 41.664C115.912 41.3547 115.821 40.9653 115.821 40.496C115.821 39.9947 115.949 39.5627 116.205 39.2C116.461 38.8267 116.824 38.5333 117.293 38.32C117.763 38.1067 118.312 38 118.941 38C119.603 38 120.211 38.1173 120.765 38.352C121.331 38.576 121.789 38.912 122.141 39.36L120.749 40.768C120.504 40.48 120.227 40.2773 119.917 40.16C119.619 40.0427 119.325 39.984 119.037 39.984C118.76 39.984 118.552 40.0267 118.413 40.112C118.275 40.1867 118.205 40.2987 118.205 40.448C118.205 40.608 118.296 40.736 118.477 40.832C118.659 40.928 118.893 41.0133 119.181 41.088C119.469 41.1627 119.773 41.2533 120.093 41.36C120.413 41.4667 120.717 41.6107 121.005 41.792C121.293 41.9733 121.528 42.2187 121.709 42.528C121.891 42.8267 121.981 43.2213 121.981 43.712C121.981 44.4693 121.693 45.072 121.117 45.52C120.552 45.968 119.784 46.192 118.813 46.192ZM123.309 46V38.224H125.757V46H123.309ZM124.541 37.152C124.157 37.152 123.837 37.024 123.581 36.768C123.336 36.5013 123.213 36.1813 123.213 35.808C123.213 35.424 123.336 35.104 123.581 34.848C123.837 34.592 124.157 34.464 124.541 34.464C124.925 34.464 125.24 34.592 125.485 34.848C125.731 35.104 125.853 35.424 125.853 35.808C125.853 36.1813 125.731 36.5013 125.485 36.768C125.24 37.024 124.925 37.152 124.541 37.152ZM131.225 46.176C130.425 46.176 129.7 46 129.049 45.648C128.409 45.2853 127.903 44.7947 127.529 44.176C127.156 43.5573 126.969 42.864 126.969 42.096C126.969 41.328 127.156 40.64 127.529 40.032C127.903 39.424 128.409 38.944 129.049 38.592C129.689 38.2293 130.415 38.048 131.225 38.048C132.036 38.048 132.761 38.224 133.401 38.576C134.041 38.928 134.548 39.4133 134.921 40.032C135.295 40.64 135.481 41.328 135.481 42.096C135.481 42.864 135.295 43.5573 134.921 44.176C134.548 44.7947 134.041 45.2853 133.401 45.648C132.761 46 132.036 46.176 131.225 46.176ZM131.225 43.952C131.577 43.952 131.887 43.8773 132.153 43.728C132.42 43.568 132.623 43.3493 132.761 43.072C132.911 42.784 132.985 42.4587 132.985 42.096C132.985 41.7333 132.911 41.4187 132.761 41.152C132.612 40.8747 132.404 40.6613 132.137 40.512C131.881 40.352 131.577 40.272 131.225 40.272C130.884 40.272 130.58 40.352 130.313 40.512C130.047 40.6613 129.839 40.8747 129.689 41.152C129.54 41.4293 129.465 41.7493 129.465 42.112C129.465 42.464 129.54 42.784 129.689 43.072C129.839 43.3493 130.047 43.568 130.313 43.728C130.58 43.8773 130.884 43.952 131.225 43.952ZM141.836 46V41.568C141.836 41.1627 141.708 40.8373 141.452 40.592C141.207 40.336 140.892 40.208 140.508 40.208C140.241 40.208 140.007 40.2667 139.804 40.384C139.601 40.4907 139.441 40.6507 139.324 40.864C139.207 41.0667 139.148 41.3013 139.148 41.568L138.204 41.104C138.204 40.496 138.337 39.9627 138.604 39.504C138.871 39.0453 139.239 38.6933 139.708 38.448C140.188 38.192 140.727 38.064 141.324 38.064C141.9 38.064 142.407 38.2027 142.844 38.48C143.292 38.7467 143.644 39.104 143.9 39.552C144.156 40 144.284 40.4907 144.284 41.024V46H141.836ZM136.7 46V38.224H139.148V46H136.7Z" fill="#936BF3"/>
<path d="M284.001 43.5832C282.025 43.5832 280.418 41.9765 280.418 39.9998C280.418 38.0232 282.025 36.4165 284.001 36.4165C285.978 36.4165 287.585 38.0232 287.585 39.9998C287.585 41.9765 285.978 43.5832 284.001 43.5832ZM284.001 36.9165C282.301 36.9165 280.918 38.2998 280.918 39.9998C280.918 41.6998 282.301 43.0832 284.001 43.0832C285.701 43.0832 287.085 41.6998 287.085 39.9998C287.085 38.2998 285.701 36.9165 284.001 36.9165Z" fill="#7949EC"/>
<path d="M285.236 41.3101C285.192 41.3101 285.149 41.3001 285.109 41.2734L284.076 40.6568C283.819 40.5034 283.629 40.1668 283.629 39.8701V38.5034C283.629 38.3668 283.742 38.2534 283.879 38.2534C284.016 38.2534 284.129 38.3668 284.129 38.5034V39.8701C284.129 39.9901 284.229 40.1668 284.332 40.2268L285.366 40.8434C285.486 40.9134 285.522 41.0668 285.452 41.1868C285.402 41.2668 285.319 41.3101 285.236 41.3101Z" fill="#7949EC"/>
<path d="M291.976 42.58C291.602 42.58 291.264 42.5133 290.96 42.38C290.661 42.2413 290.408 42.0413 290.2 41.78L290.824 41.156C290.936 41.3267 291.093 41.4627 291.296 41.564C291.498 41.6653 291.72 41.716 291.96 41.716C292.189 41.716 292.386 41.6733 292.552 41.588C292.717 41.5027 292.845 41.3827 292.936 41.228C293.032 41.0733 293.08 40.8947 293.08 40.692C293.08 40.4787 293.032 40.2973 292.936 40.148C292.845 39.9987 292.712 39.884 292.536 39.804C292.365 39.7187 292.157 39.676 291.912 39.676C291.816 39.676 291.717 39.684 291.616 39.7C291.514 39.7107 291.424 39.7293 291.344 39.756L291.752 39.228C291.864 39.1853 291.981 39.1507 292.104 39.124C292.232 39.092 292.354 39.076 292.472 39.076C292.76 39.076 293.018 39.1453 293.248 39.284C293.482 39.4227 293.666 39.6173 293.8 39.868C293.938 40.1133 294.008 40.404 294.008 40.74C294.008 41.1027 293.922 41.4227 293.752 41.7C293.581 41.9773 293.344 42.1933 293.04 42.348C292.736 42.5027 292.381 42.58 291.976 42.58ZM291.344 39.756V39.212L292.84 37.468L293.944 37.444L292.384 39.236L291.344 39.756ZM290.48 37.724V36.9H293.944V37.444L293.152 37.724H290.48ZM295.424 42.5L297.064 40.204L297.392 40.004C297.339 40.1213 297.269 40.2253 297.184 40.316C297.104 40.4067 296.997 40.476 296.864 40.524C296.731 40.572 296.56 40.596 296.352 40.596C296.032 40.596 295.739 40.5213 295.472 40.372C295.205 40.2173 294.992 40.004 294.832 39.732C294.672 39.46 294.592 39.1453 294.592 38.788C294.592 38.4253 294.68 38.0947 294.856 37.796C295.037 37.4973 295.277 37.26 295.576 37.084C295.875 36.908 296.208 36.82 296.576 36.82C296.949 36.82 297.285 36.908 297.584 37.084C297.883 37.2547 298.117 37.4867 298.288 37.78C298.464 38.068 298.552 38.3933 298.552 38.756C298.552 39.268 298.373 39.7853 298.016 40.308L296.488 42.5H295.424ZM296.576 39.876C296.779 39.876 296.96 39.828 297.12 39.732C297.28 39.636 297.405 39.5053 297.496 39.34C297.587 39.1747 297.632 38.9907 297.632 38.788C297.632 38.5747 297.587 38.3853 297.496 38.22C297.405 38.0547 297.28 37.924 297.12 37.828C296.96 37.732 296.779 37.684 296.576 37.684C296.373 37.684 296.192 37.732 296.032 37.828C295.872 37.924 295.744 38.0547 295.648 38.22C295.557 38.3853 295.512 38.5747 295.512 38.788C295.512 38.996 295.557 39.1827 295.648 39.348C295.744 39.508 295.872 39.636 296.032 39.732C296.197 39.828 296.379 39.876 296.576 39.876ZM299.308 42.5V38.66H300.188V42.5H299.308ZM301.86 42.5V40.212C301.86 39.956 301.78 39.7587 301.62 39.62C301.46 39.476 301.263 39.404 301.028 39.404C300.868 39.404 300.724 39.436 300.596 39.5C300.474 39.564 300.375 39.6573 300.3 39.78C300.226 39.8973 300.188 40.0413 300.188 40.212L299.844 40.02C299.844 39.7267 299.908 39.4733 300.036 39.26C300.164 39.0467 300.338 38.8813 300.556 38.764C300.775 38.6413 301.02 38.58 301.292 38.58C301.564 38.58 301.81 38.6387 302.028 38.756C302.247 38.8733 302.42 39.0387 302.548 39.252C302.676 39.4653 302.74 39.7213 302.74 40.02V42.5H301.86ZM304.412 42.5V40.212C304.412 39.956 304.332 39.7587 304.172 39.62C304.012 39.476 303.815 39.404 303.58 39.404C303.426 39.404 303.284 39.436 303.156 39.5C303.028 39.564 302.927 39.6573 302.852 39.78C302.778 39.8973 302.74 40.0413 302.74 40.212L302.244 40.02C302.271 39.7267 302.356 39.4733 302.5 39.26C302.644 39.0467 302.828 38.8813 303.052 38.764C303.282 38.6413 303.532 38.58 303.804 38.58C304.082 38.58 304.332 38.6387 304.556 38.756C304.78 38.8733 304.959 39.0387 305.092 39.252C305.226 39.4653 305.292 39.7213 305.292 40.02V42.5H304.412ZM306.207 42.5V38.66H307.087V42.5H306.207ZM306.647 37.956C306.498 37.956 306.372 37.9053 306.271 37.804C306.175 37.7027 306.127 37.5773 306.127 37.428C306.127 37.2787 306.175 37.1533 306.271 37.052C306.372 36.9507 306.498 36.9 306.647 36.9C306.802 36.9 306.927 36.9507 307.023 37.052C307.119 37.1533 307.167 37.2787 307.167 37.428C307.167 37.5773 307.119 37.7027 307.023 37.804C306.927 37.9053 306.802 37.956 306.647 37.956ZM310.706 42.5V40.284C310.706 40.028 310.623 39.8173 310.458 39.652C310.298 39.4867 310.09 39.404 309.834 39.404C309.663 39.404 309.511 39.4413 309.378 39.516C309.245 39.5907 309.141 39.6947 309.066 39.828C308.991 39.9613 308.954 40.1133 308.954 40.284L308.61 40.092C308.61 39.7987 308.674 39.54 308.802 39.316C308.93 39.0867 309.106 38.908 309.33 38.78C309.559 38.6467 309.815 38.58 310.098 38.58C310.386 38.58 310.642 38.6547 310.866 38.804C311.09 38.948 311.266 39.1373 311.394 39.372C311.522 39.6013 311.586 39.8413 311.586 40.092V42.5H310.706ZM308.074 42.5V38.66H308.954V42.5H308.074Z" fill="#7949EC"/>
<rect x="16" y="58" width="296" height="12" rx="6" fill="#E0E0E0"/>
<rect x="16" y="58" width="96" height="12" rx="6" fill="#7849EC"/>
<circle cx="55" cy="64" r="2" fill="#EDF5FF"/>
<circle cx="98" cy="64" r="2" fill="#EDF5FF"/>
<circle cx="178" cy="64" r="2" fill="#7849EC"/>
<circle cx="268" cy="64" r="2" fill="#7849EC"/>
<g filter="url(#filter0_d_1124_463)">
<path d="M54.7076 69.0294C55.1079 68.5094 55.8921 68.5094 56.2924 69.0294L59.4568 73.14C59.963 73.7976 59.4942 74.75 58.6644 74.75L52.3356 74.75C51.5058 74.75 51.037 73.7976 51.5432 73.14L54.7076 69.0294Z" fill="#7747EB"/>
<rect x="22" y="72" width="67" height="26" rx="6" fill="#7747EB"/>
<path d="M35.5525 88V87.16H37.0245C37.4085 87.16 37.7445 87.0773 38.0325 86.912C38.3258 86.7467 38.5525 86.5173 38.7125 86.224C38.8778 85.9253 38.9605 85.5813 38.9605 85.192C38.9605 84.808 38.8778 84.4693 38.7125 84.176C38.5472 83.8827 38.3178 83.6533 38.0245 83.488C37.7365 83.3227 37.4032 83.24 37.0245 83.24H35.5525V82.4H37.0485C37.4538 82.4 37.8298 82.472 38.1765 82.616C38.5232 82.7547 38.8245 82.952 39.0805 83.208C39.3418 83.4587 39.5445 83.7547 39.6885 84.096C39.8325 84.432 39.9045 84.8 39.9045 85.2C39.9045 85.5947 39.8325 85.9627 39.6885 86.304C39.5445 86.6453 39.3445 86.944 39.0885 87.2C38.8325 87.4507 38.5312 87.648 38.1845 87.792C37.8378 87.9307 37.4645 88 37.0645 88H35.5525ZM34.9205 88V82.4H35.8405V88H34.9205ZM41.2304 88V84.16H42.1104V88H41.2304ZM41.6704 83.456C41.521 83.456 41.3957 83.4053 41.2944 83.304C41.1984 83.2027 41.1504 83.0773 41.1504 82.928C41.1504 82.7787 41.1984 82.6533 41.2944 82.552C41.3957 82.4507 41.521 82.4 41.6704 82.4C41.825 82.4 41.9504 82.4507 42.0464 82.552C42.1424 82.6533 42.1904 82.7787 42.1904 82.928C42.1904 83.0773 42.1424 83.2027 42.0464 83.304C41.9504 83.4053 41.825 83.456 41.6704 83.456ZM45.2054 88.08C44.8587 88.08 44.544 87.992 44.2614 87.816C43.984 87.64 43.7627 87.4027 43.5974 87.104C43.4374 86.8 43.3574 86.4613 43.3574 86.088C43.3574 85.7093 43.4374 85.3707 43.5974 85.072C43.7627 84.768 43.984 84.528 44.2614 84.352C44.544 84.1707 44.8587 84.08 45.2054 84.08C45.4987 84.08 45.7574 84.144 45.9814 84.272C46.2107 84.3947 46.392 84.5653 46.5254 84.784C46.6587 85.0027 46.7254 85.2507 46.7254 85.528V86.632C46.7254 86.9093 46.6587 87.1573 46.5254 87.376C46.3974 87.5947 46.2187 87.768 45.9894 87.896C45.76 88.0187 45.4987 88.08 45.2054 88.08ZM45.3494 87.248C45.6747 87.248 45.936 87.1387 46.1334 86.92C46.336 86.7013 46.4374 86.4213 46.4374 86.08C46.4374 85.8507 46.392 85.648 46.3014 85.472C46.2107 85.296 46.0827 85.16 45.9174 85.064C45.7574 84.9627 45.568 84.912 45.3494 84.912C45.136 84.912 44.9467 84.9627 44.7814 85.064C44.6214 85.16 44.4934 85.296 44.3974 85.472C44.3067 85.648 44.2614 85.8507 44.2614 86.08C44.2614 86.3093 44.3067 86.512 44.3974 86.688C44.4934 86.864 44.6214 87.0027 44.7814 87.104C44.9467 87.2 45.136 87.248 45.3494 87.248ZM46.3814 88V86.968L46.5334 86.032L46.3814 85.104V84.16H47.2614V88H46.3814ZM50.338 89.68C49.9327 89.68 49.578 89.6053 49.274 89.456C48.97 89.312 48.7247 89.1067 48.538 88.84L49.114 88.264C49.2687 88.456 49.4447 88.6 49.642 88.696C49.8393 88.792 50.0767 88.84 50.354 88.84C50.7007 88.84 50.9753 88.7493 51.178 88.568C51.3807 88.392 51.482 88.1493 51.482 87.84V86.896L51.634 86.048L51.482 85.192V84.16H52.362V87.84C52.362 88.208 52.2767 88.528 52.106 88.8C51.9353 89.0773 51.698 89.2933 51.394 89.448C51.09 89.6027 50.738 89.68 50.338 89.68ZM50.298 87.92C49.9567 87.92 49.6473 87.8373 49.37 87.672C49.098 87.5013 48.882 87.2693 48.722 86.976C48.5673 86.6827 48.49 86.3547 48.49 85.992C48.49 85.6293 48.5673 85.304 48.722 85.016C48.882 84.728 49.098 84.5013 49.37 84.336C49.6473 84.1653 49.9567 84.08 50.298 84.08C50.602 84.08 50.8687 84.1413 51.098 84.264C51.3273 84.3867 51.506 84.5573 51.634 84.776C51.762 84.9893 51.826 85.24 51.826 85.528V86.472C51.826 86.7547 51.7593 87.0053 51.626 87.224C51.498 87.4427 51.3193 87.6133 51.09 87.736C50.8607 87.8587 50.5967 87.92 50.298 87.92ZM50.474 87.088C50.6873 87.088 50.874 87.0427 51.034 86.952C51.194 86.8613 51.3167 86.736 51.402 86.576C51.4927 86.4107 51.538 86.2187 51.538 86C51.538 85.7813 51.4927 85.592 51.402 85.432C51.3167 85.2667 51.194 85.1387 51.034 85.048C50.874 84.9573 50.6873 84.912 50.474 84.912C50.2607 84.912 50.0713 84.9573 49.906 85.048C49.746 85.1387 49.6207 85.2667 49.53 85.432C49.4393 85.592 49.394 85.7813 49.394 86C49.394 86.2133 49.4393 86.4027 49.53 86.568C49.6207 86.7333 49.746 86.8613 49.906 86.952C50.0713 87.0427 50.2607 87.088 50.474 87.088ZM56.4716 88V85.784C56.4716 85.528 56.3889 85.3173 56.2236 85.152C56.0636 84.9867 55.8556 84.904 55.5996 84.904C55.4289 84.904 55.2769 84.9413 55.1436 85.016C55.0102 85.0907 54.9062 85.1947 54.8316 85.328C54.7569 85.4613 54.7196 85.6133 54.7196 85.784L54.3756 85.592C54.3756 85.2987 54.4396 85.04 54.5676 84.816C54.6956 84.5867 54.8716 84.408 55.0956 84.28C55.3249 84.1467 55.5809 84.08 55.8636 84.08C56.1516 84.08 56.4076 84.1547 56.6316 84.304C56.8556 84.448 57.0316 84.6373 57.1596 84.872C57.2876 85.1013 57.3516 85.3413 57.3516 85.592V88H56.4716ZM53.8396 88V84.16H54.7196V88H53.8396ZM60.5058 88.08C60.1325 88.08 59.7938 87.992 59.4898 87.816C59.1858 87.6347 58.9431 87.392 58.7618 87.088C58.5858 86.784 58.4978 86.4453 58.4978 86.072C58.4978 85.6987 58.5858 85.3627 58.7618 85.064C58.9431 84.7653 59.1858 84.528 59.4898 84.352C59.7938 84.1707 60.1325 84.08 60.5058 84.08C60.8845 84.08 61.2258 84.168 61.5298 84.344C61.8338 84.52 62.0738 84.76 62.2498 85.064C62.4311 85.3627 62.5218 85.6987 62.5218 86.072C62.5218 86.4453 62.4311 86.784 62.2498 87.088C62.0738 87.392 61.8338 87.6347 61.5298 87.816C61.2258 87.992 60.8845 88.08 60.5058 88.08ZM60.5058 87.232C60.7245 87.232 60.9165 87.184 61.0818 87.088C61.2525 86.9867 61.3831 86.848 61.4738 86.672C61.5698 86.496 61.6178 86.296 61.6178 86.072C61.6178 85.848 61.5698 85.6507 61.4738 85.48C61.3778 85.3093 61.2471 85.176 61.0818 85.08C60.9165 84.9787 60.7245 84.928 60.5058 84.928C60.2925 84.928 60.1005 84.9787 59.9298 85.08C59.7645 85.176 59.6338 85.3093 59.5378 85.48C59.4471 85.6507 59.4018 85.848 59.4018 86.072C59.4018 86.296 59.4471 86.496 59.5378 86.672C59.6338 86.848 59.7645 86.9867 59.9298 87.088C60.1005 87.184 60.2925 87.232 60.5058 87.232ZM65.0096 88.08C64.7963 88.08 64.591 88.0533 64.3936 88C64.1963 87.9413 64.015 87.8613 63.8496 87.76C63.6843 87.6533 63.5403 87.5253 63.4176 87.376L63.9776 86.816C64.111 86.9707 64.263 87.088 64.4336 87.168C64.6096 87.2427 64.807 87.28 65.0256 87.28C65.223 87.28 65.3723 87.2507 65.4736 87.192C65.575 87.1333 65.6256 87.048 65.6256 86.936C65.6256 86.8187 65.5776 86.728 65.4816 86.664C65.3856 86.6 65.2603 86.5467 65.1056 86.504C64.9563 86.456 64.7963 86.408 64.6256 86.36C64.4603 86.312 64.3003 86.248 64.1456 86.168C63.9963 86.0827 63.8736 85.968 63.7776 85.824C63.6816 85.68 63.6336 85.4933 63.6336 85.264C63.6336 85.0187 63.6896 84.808 63.8016 84.632C63.919 84.456 64.0816 84.32 64.2896 84.224C64.503 84.128 64.7563 84.08 65.0496 84.08C65.359 84.08 65.631 84.136 65.8656 84.248C66.1056 84.3547 66.3056 84.5173 66.4656 84.736L65.9056 85.296C65.7936 85.1573 65.6656 85.0533 65.5216 84.984C65.3776 84.9147 65.2123 84.88 65.0256 84.88C64.8496 84.88 64.7136 84.9067 64.6176 84.96C64.5216 85.0133 64.4736 85.0907 64.4736 85.192C64.4736 85.2987 64.5216 85.3813 64.6176 85.44C64.7136 85.4987 64.8363 85.5493 64.9856 85.592C65.1403 85.6347 65.3003 85.6827 65.4656 85.736C65.6363 85.784 65.7963 85.8533 65.9456 85.944C66.1003 86.0293 66.2256 86.1467 66.3216 86.296C66.4176 86.44 66.4656 86.6293 66.4656 86.864C66.4656 87.2373 66.335 87.5333 66.0736 87.752C65.8123 87.9707 65.4576 88.08 65.0096 88.08ZM68.2751 88V82.56H69.1551V88H68.2751ZM67.3551 84.96V84.16H70.0751V84.96H67.3551ZM71.2226 88V84.16H72.1026V88H71.2226ZM71.6626 83.456C71.5132 83.456 71.3879 83.4053 71.2866 83.304C71.1906 83.2027 71.1426 83.0773 71.1426 82.928C71.1426 82.7787 71.1906 82.6533 71.2866 82.552C71.3879 82.4507 71.5132 82.4 71.6626 82.4C71.8172 82.4 71.9426 82.4507 72.0386 82.552C72.1346 82.6533 72.1826 82.7787 72.1826 82.928C72.1826 83.0773 72.1346 83.2027 72.0386 83.304C71.9426 83.4053 71.8172 83.456 71.6626 83.456ZM75.3576 88.08C74.9789 88.08 74.6349 87.992 74.3256 87.816C74.0216 87.64 73.7816 87.4 73.6056 87.096C73.4296 86.792 73.3416 86.4533 73.3416 86.08C73.3416 85.7013 73.4296 85.3627 73.6056 85.064C73.7816 84.76 74.0216 84.52 74.3256 84.344C74.6349 84.168 74.9789 84.08 75.3576 84.08C75.6562 84.08 75.9336 84.1387 76.1896 84.256C76.4509 84.368 76.6722 84.5307 76.8536 84.744L76.2776 85.328C76.1656 85.1947 76.0296 85.096 75.8696 85.032C75.7149 84.9627 75.5442 84.928 75.3576 84.928C75.1389 84.928 74.9442 84.9787 74.7736 85.08C74.6082 85.176 74.4776 85.3093 74.3816 85.48C74.2909 85.6507 74.2456 85.8507 74.2456 86.08C74.2456 86.304 74.2909 86.504 74.3816 86.68C74.4776 86.8507 74.6082 86.9867 74.7736 87.088C74.9442 87.184 75.1389 87.232 75.3576 87.232C75.5442 87.232 75.7149 87.2 75.8696 87.136C76.0296 87.0667 76.1656 86.9653 76.2776 86.832L76.8536 87.416C76.6722 87.6293 76.4509 87.7947 76.1896 87.912C75.9336 88.024 75.6562 88.08 75.3576 88.08Z" fill="white"/>
</g>
<g filter="url(#filter1_d_1124_463)">
<path d="M266.704 69.0299C267.104 68.5098 267.888 68.5098 268.288 69.0299L271.453 73.1405C271.959 73.7981 271.49 74.7505 270.66 74.7505L264.332 74.7505C263.502 74.7505 263.033 73.7981 263.539 73.1405L266.704 69.0299Z" fill="#7747EB"/>
<rect x="223.996" y="72.0005" width="87" height="26" rx="6" fill="#7747EB"/>
<g clip-path="url(#clip0_1124_463)">
<path d="M238.189 85.8885V85.0885H239.589C239.781 85.0885 239.949 85.0512 240.093 84.9765C240.243 84.8965 240.36 84.7872 240.445 84.6485C240.531 84.5045 240.573 84.3365 240.573 84.1445C240.573 83.9525 240.531 83.7872 240.445 83.6485C240.36 83.5045 240.243 83.3952 240.093 83.3205C239.949 83.2405 239.781 83.2005 239.589 83.2005H238.189V82.4005H239.637C239.989 82.4005 240.304 82.4725 240.581 82.6165C240.864 82.7605 241.085 82.9632 241.245 83.2245C241.411 83.4858 241.493 83.7925 241.493 84.1445C241.493 84.4965 241.411 84.8032 241.245 85.0645C241.085 85.3258 240.864 85.5285 240.581 85.6725C240.304 85.8165 239.989 85.8885 239.637 85.8885H238.189ZM237.557 88.0005V82.4005H238.477V88.0005H237.557ZM244.178 88.0805C243.831 88.0805 243.517 87.9925 243.234 87.8165C242.957 87.6405 242.735 87.4032 242.57 87.1045C242.41 86.8005 242.33 86.4618 242.33 86.0885C242.33 85.7098 242.41 85.3712 242.57 85.0725C242.735 84.7685 242.957 84.5285 243.234 84.3525C243.517 84.1712 243.831 84.0805 244.178 84.0805C244.471 84.0805 244.73 84.1445 244.954 84.2725C245.183 84.3952 245.365 84.5658 245.498 84.7845C245.631 85.0032 245.698 85.2512 245.698 85.5285V86.6325C245.698 86.9098 245.631 87.1578 245.498 87.3765C245.37 87.5952 245.191 87.7685 244.962 87.8965C244.733 88.0192 244.471 88.0805 244.178 88.0805ZM244.322 87.2485C244.647 87.2485 244.909 87.1392 245.106 86.9205C245.309 86.7018 245.41 86.4218 245.41 86.0805C245.41 85.8512 245.365 85.6485 245.274 85.4725C245.183 85.2965 245.055 85.1605 244.89 85.0645C244.73 84.9632 244.541 84.9125 244.322 84.9125C244.109 84.9125 243.919 84.9632 243.754 85.0645C243.594 85.1605 243.466 85.2965 243.37 85.4725C243.279 85.6485 243.234 85.8512 243.234 86.0805C243.234 86.3098 243.279 86.5125 243.37 86.6885C243.466 86.8645 243.594 87.0032 243.754 87.1045C243.919 87.2005 244.109 87.2485 244.322 87.2485ZM245.354 88.0005V86.9685L245.506 86.0325L245.354 85.1045V84.1605H246.234V88.0005H245.354ZM248.967 88.0805C248.753 88.0805 248.548 88.0538 248.351 88.0005C248.153 87.9418 247.972 87.8618 247.807 87.7605C247.641 87.6538 247.497 87.5258 247.375 87.3765L247.935 86.8165C248.068 86.9712 248.22 87.0885 248.391 87.1685C248.567 87.2432 248.764 87.2805 248.983 87.2805C249.18 87.2805 249.329 87.2512 249.431 87.1925C249.532 87.1338 249.583 87.0485 249.583 86.9365C249.583 86.8192 249.535 86.7285 249.439 86.6645C249.343 86.6005 249.217 86.5472 249.063 86.5045C248.913 86.4565 248.753 86.4085 248.583 86.3605C248.417 86.3125 248.257 86.2485 248.103 86.1685C247.953 86.0832 247.831 85.9685 247.735 85.8245C247.639 85.6805 247.591 85.4938 247.591 85.2645C247.591 85.0192 247.647 84.8085 247.759 84.6325C247.876 84.4565 248.039 84.3205 248.247 84.2245C248.46 84.1285 248.713 84.0805 249.007 84.0805C249.316 84.0805 249.588 84.1365 249.823 84.2485C250.063 84.3552 250.263 84.5178 250.423 84.7365L249.863 85.2965C249.751 85.1578 249.623 85.0538 249.479 84.9845C249.335 84.9152 249.169 84.8805 248.983 84.8805C248.807 84.8805 248.671 84.9072 248.575 84.9605C248.479 85.0138 248.431 85.0912 248.431 85.1925C248.431 85.2992 248.479 85.3818 248.575 85.4405C248.671 85.4992 248.793 85.5498 248.943 85.5925C249.097 85.6352 249.257 85.6832 249.423 85.7365C249.593 85.7845 249.753 85.8538 249.903 85.9445C250.057 86.0298 250.183 86.1472 250.279 86.2965C250.375 86.4405 250.423 86.6298 250.423 86.8645C250.423 87.2378 250.292 87.5338 250.031 87.7525C249.769 87.9712 249.415 88.0805 248.967 88.0805ZM252.904 88.0805C252.691 88.0805 252.485 88.0538 252.288 88.0005C252.091 87.9418 251.909 87.8618 251.744 87.7605C251.579 87.6538 251.435 87.5258 251.312 87.3765L251.872 86.8165C252.005 86.9712 252.157 87.0885 252.328 87.1685C252.504 87.2432 252.701 87.2805 252.92 87.2805C253.117 87.2805 253.267 87.2512 253.368 87.1925C253.469 87.1338 253.52 87.0485 253.52 86.9365C253.52 86.8192 253.472 86.7285 253.376 86.6645C253.28 86.6005 253.155 86.5472 253 86.5045C252.851 86.4565 252.691 86.4085 252.52 86.3605C252.355 86.3125 252.195 86.2485 252.04 86.1685C251.891 86.0832 251.768 85.9685 251.672 85.8245C251.576 85.6805 251.528 85.4938 251.528 85.2645C251.528 85.0192 251.584 84.8085 251.696 84.6325C251.813 84.4565 251.976 84.3205 252.184 84.2245C252.397 84.1285 252.651 84.0805 252.944 84.0805C253.253 84.0805 253.525 84.1365 253.76 84.2485C254 84.3552 254.2 84.5178 254.36 84.7365L253.8 85.2965C253.688 85.1578 253.56 85.0538 253.416 84.9845C253.272 84.9152 253.107 84.8805 252.92 84.8805C252.744 84.8805 252.608 84.9072 252.512 84.9605C252.416 85.0138 252.368 85.0912 252.368 85.1925C252.368 85.2992 252.416 85.3818 252.512 85.4405C252.608 85.4992 252.731 85.5498 252.88 85.5925C253.035 85.6352 253.195 85.6832 253.36 85.7365C253.531 85.7845 253.691 85.8538 253.84 85.9445C253.995 86.0298 254.12 86.1472 254.216 86.2965C254.312 86.4405 254.36 86.6298 254.36 86.8645C254.36 87.2378 254.229 87.5338 253.968 87.7525C253.707 87.9712 253.352 88.0805 252.904 88.0805ZM258.927 88.0405L257.287 84.1605H258.255L259.375 87.0085H259.095L260.279 84.1605H261.255L259.471 88.0405H258.927ZM257.783 89.6005L258.975 87.1445L259.471 88.0405L258.759 89.6005H257.783ZM263.893 88.0805C263.519 88.0805 263.181 87.9925 262.877 87.8165C262.573 87.6352 262.33 87.3925 262.149 87.0885C261.973 86.7845 261.885 86.4458 261.885 86.0725C261.885 85.6992 261.973 85.3632 262.149 85.0645C262.33 84.7658 262.573 84.5285 262.877 84.3525C263.181 84.1712 263.519 84.0805 263.893 84.0805C264.271 84.0805 264.613 84.1685 264.917 84.3445C265.221 84.5205 265.461 84.7605 265.637 85.0645C265.818 85.3632 265.909 85.6992 265.909 86.0725C265.909 86.4458 265.818 86.7845 265.637 87.0885C265.461 87.3925 265.221 87.6352 264.917 87.8165C264.613 87.9925 264.271 88.0805 263.893 88.0805ZM263.893 87.2325C264.111 87.2325 264.303 87.1845 264.469 87.0885C264.639 86.9872 264.77 86.8485 264.861 86.6725C264.957 86.4965 265.005 86.2965 265.005 86.0725C265.005 85.8485 264.957 85.6512 264.861 85.4805C264.765 85.3098 264.634 85.1765 264.469 85.0805C264.303 84.9792 264.111 84.9285 263.893 84.9285C263.679 84.9285 263.487 84.9792 263.317 85.0805C263.151 85.1765 263.021 85.3098 262.925 85.4805C262.834 85.6512 262.789 85.8485 262.789 86.0725C262.789 86.2965 262.834 86.4965 262.925 86.6725C263.021 86.8485 263.151 86.9872 263.317 87.0885C263.487 87.1845 263.679 87.2325 263.893 87.2325ZM268.716 88.0805C268.391 88.0805 268.1 88.0085 267.844 87.8645C267.594 87.7205 267.396 87.5232 267.252 87.2725C267.114 87.0165 267.044 86.7232 267.044 86.3925V84.1605H267.924V86.3525C267.924 86.5392 267.954 86.6992 268.012 86.8325C268.076 86.9605 268.167 87.0592 268.284 87.1285C268.407 87.1978 268.551 87.2325 268.716 87.2325C268.972 87.2325 269.167 87.1578 269.3 87.0085C269.439 86.8538 269.508 86.6352 269.508 86.3525V84.1605H270.388V86.3925C270.388 86.7285 270.316 87.0245 270.172 87.2805C270.034 87.5312 269.839 87.7285 269.588 87.8725C269.338 88.0112 269.047 88.0805 268.716 88.0805ZM271.773 88.0005V84.1605H272.653V88.0005H271.773ZM272.653 85.8645L272.349 85.7125C272.349 85.2272 272.456 84.8352 272.669 84.5365C272.888 84.2325 273.216 84.0805 273.653 84.0805C273.845 84.0805 274.018 84.1152 274.173 84.1845C274.328 84.2538 274.472 84.3658 274.605 84.5205L274.029 85.1125C273.96 85.0378 273.882 84.9845 273.797 84.9525C273.712 84.9205 273.613 84.9045 273.501 84.9045C273.256 84.9045 273.053 84.9818 272.893 85.1365C272.733 85.2912 272.653 85.5338 272.653 85.8645ZM277.893 88.0005V82.4005H278.813V88.0005H277.893ZM278.525 88.0005V87.1605H281.661V88.0005H278.525ZM278.525 85.5445V84.7365H281.389V85.5445H278.525ZM278.525 83.2405V82.4005H281.621V83.2405H278.525ZM285.424 88.0005L284.32 86.3765L284.16 86.2325L282.672 84.1605H283.736L284.72 85.5845L284.872 85.7205L286.48 88.0005H285.424ZM282.6 88.0005L284.152 85.8485L284.664 86.4805L283.624 88.0005H282.6ZM284.952 86.2165L284.432 85.5925L285.392 84.1605H286.408L284.952 86.2165ZM289.061 88.0805C288.714 88.0805 288.4 87.9925 288.117 87.8165C287.84 87.6405 287.618 87.4032 287.453 87.1045C287.293 86.8005 287.213 86.4618 287.213 86.0885C287.213 85.7098 287.293 85.3712 287.453 85.0725C287.618 84.7685 287.84 84.5285 288.117 84.3525C288.4 84.1712 288.714 84.0805 289.061 84.0805C289.354 84.0805 289.613 84.1445 289.837 84.2725C290.066 84.3952 290.248 84.5658 290.381 84.7845C290.514 85.0032 290.581 85.2512 290.581 85.5285V86.6325C290.581 86.9098 290.514 87.1578 290.381 87.3765C290.253 87.5952 290.074 87.7685 289.845 87.8965C289.616 88.0192 289.354 88.0805 289.061 88.0805ZM289.205 87.2485C289.53 87.2485 289.792 87.1392 289.989 86.9205C290.192 86.7018 290.293 86.4218 290.293 86.0805C290.293 85.8512 290.248 85.6485 290.157 85.4725C290.066 85.2965 289.938 85.1605 289.773 85.0645C289.613 84.9632 289.424 84.9125 289.205 84.9125C288.992 84.9125 288.802 84.9632 288.637 85.0645C288.477 85.1605 288.349 85.2965 288.253 85.4725C288.162 85.6485 288.117 85.8512 288.117 86.0805C288.117 86.3098 288.162 86.5125 288.253 86.6885C288.349 86.8645 288.477 87.0032 288.637 87.1045C288.802 87.2005 288.992 87.2485 289.205 87.2485ZM290.237 88.0005V86.9685L290.389 86.0325L290.237 85.1045V84.1605H291.117V88.0005H290.237ZM292.593 88.0005V84.1605H293.473V88.0005H292.593ZM295.145 88.0005V85.7125C295.145 85.4565 295.065 85.2592 294.905 85.1205C294.745 84.9765 294.548 84.9045 294.313 84.9045C294.153 84.9045 294.009 84.9365 293.881 85.0005C293.759 85.0645 293.66 85.1578 293.585 85.2805C293.511 85.3978 293.473 85.5418 293.473 85.7125L293.129 85.5205C293.129 85.2272 293.193 84.9738 293.321 84.7605C293.449 84.5472 293.623 84.3818 293.841 84.2645C294.06 84.1418 294.305 84.0805 294.577 84.0805C294.849 84.0805 295.095 84.1392 295.313 84.2565C295.532 84.3738 295.705 84.5392 295.833 84.7525C295.961 84.9658 296.025 85.2218 296.025 85.5205V88.0005H295.145ZM297.697 88.0005V85.7125C297.697 85.4565 297.617 85.2592 297.457 85.1205C297.297 84.9765 297.1 84.9045 296.865 84.9045C296.711 84.9045 296.569 84.9365 296.441 85.0005C296.313 85.0645 296.212 85.1578 296.137 85.2805C296.063 85.3978 296.025 85.5418 296.025 85.7125L295.529 85.5205C295.556 85.2272 295.641 84.9738 295.785 84.7605C295.929 84.5472 296.113 84.3818 296.337 84.2645C296.567 84.1418 296.817 84.0805 297.089 84.0805C297.367 84.0805 297.617 84.1392 297.841 84.2565C298.065 84.3738 298.244 84.5392 298.377 84.7525C298.511 84.9658 298.577 85.2218 298.577 85.5205V88.0005H297.697Z" fill="white"/>
</g>
</g>
<defs>
<filter id="filter0_d_1124_463" x="18" y="66" width="75" height="38" filterUnits="userSpaceOnUse" color-interpolation-filters="sRGB">
<feFlood flood-opacity="0" result="BackgroundImageFix"/>
<feColorMatrix in="SourceAlpha" type="matrix" values="0 0 0 0 0 0 0 0 0 0 0 0 0 0 0 0 0 0 127 0" result="hardAlpha"/>
<feOffset dy="2"/>
<feGaussianBlur stdDeviation="2"/>
<feComposite in2="hardAlpha" operator="out"/>
<feColorMatrix type="matrix" values="0 0 0 0 0.321569 0 0 0 0 0.321569 0 0 0 0 0.321569 0 0 0 0.32 0"/>
<feBlend mode="normal" in2="BackgroundImageFix" result="effect1_dropShadow_1124_463"/>
<feBlend mode="normal" in="SourceGraphic" in2="effect1_dropShadow_1124_463" result="shape"/>
</filter>
<filter id="filter1_d_1124_463" x="219.996" y="66.0005" width="95" height="38" filterUnits="userSpaceOnUse" color-interpolation-filters="sRGB">
<feFlood flood-opacity="0" result="BackgroundImageFix"/>
<feColorMatrix in="SourceAlpha" type="matrix" values="0 0 0 0 0 0 0 0 0 0 0 0 0 0 0 0 0 0 127 0" result="hardAlpha"/>
<feOffset dy="2"/>
<feGaussianBlur stdDeviation="2"/>
<feComposite in2="hardAlpha" operator="out"/>
<feColorMatrix type="matrix" values="0 0 0 0 0.321569 0 0 0 0 0.321569 0 0 0 0 0.321569 0 0 0 0.32 0"/>
<feBlend mode="normal" in2="BackgroundImageFix" result="effect1_dropShadow_1124_463"/>
<feBlend mode="normal" in="SourceGraphic" in2="effect1_dropShadow_1124_463" result="shape"/>
</filter>
<clipPath id="clip0_1124_463">
<rect width="63" height="18" fill="white" transform="translate(235.996 76.0005)"/>
</clipPath>
</defs>
</svg>
