<svg width="330" height="104" viewBox="0 0 330 104" fill="none" xmlns="http://www.w3.org/2000/svg">
<mask id="path-1-inside-1_1124_463" fill="white">
<rect width="328" height="80" rx="3"/>
</mask>
<rect width="328" height="80" rx="3" fill="white"/>
<rect width="328" height="80" rx="3" stroke="#A1B8CD" stroke-width="8" mask="url(#path-1-inside-1_1124_463)"/>
<path d="M19.5113 21.08C19.1113 21.08 18.738 21.0053 18.3913 20.856C18.0447 20.7067 17.7407 20.5013 17.4793 20.24C17.218 19.9733 17.0127 19.6667 16.8633 19.32C16.7193 18.968 16.6473 18.592 16.6473 18.192C16.6473 17.792 16.7193 17.4187 16.8633 17.072C17.0127 16.7253 17.2153 16.4213 17.4713 16.16C17.7327 15.8933 18.034 15.688 18.3753 15.544C18.722 15.3947 19.0953 15.32 19.4953 15.32C19.8953 15.32 20.266 15.3947 20.6073 15.544C20.954 15.688 21.258 15.8933 21.5193 16.16C21.7807 16.4213 21.9833 16.728 22.1273 17.08C22.2767 17.4267 22.3513 17.8 22.3513 18.2C22.3513 18.6 22.2767 18.976 22.1273 19.328C21.9833 19.6747 21.7807 19.9787 21.5193 20.24C21.2633 20.5013 20.962 20.7067 20.6153 20.856C20.274 21.0053 19.906 21.08 19.5113 21.08ZM19.4953 20.2C19.874 20.2 20.2047 20.1147 20.4873 19.944C20.7753 19.7733 20.9993 19.5387 21.1593 19.24C21.3247 18.936 21.4073 18.5867 21.4073 18.192C21.4073 17.8987 21.3593 17.632 21.2633 17.392C21.1727 17.1467 21.042 16.936 20.8713 16.76C20.7007 16.5787 20.498 16.44 20.2633 16.344C20.034 16.248 19.778 16.2 19.4953 16.2C19.122 16.2 18.7913 16.2853 18.5033 16.456C18.2207 16.6213 17.9967 16.8533 17.8313 17.152C17.6713 17.4507 17.5913 17.7973 17.5913 18.192C17.5913 18.4853 17.6367 18.7573 17.7273 19.008C17.8233 19.2533 17.954 19.464 18.1193 19.64C18.29 19.816 18.4927 19.9547 18.7273 20.056C18.962 20.152 19.218 20.2 19.4953 20.2ZM25.3429 21.08C25.0176 21.08 24.7269 21.008 24.4709 20.864C24.2202 20.72 24.0229 20.5227 23.8789 20.272C23.7402 20.016 23.6709 19.7227 23.6709 19.392V17.16H24.5509V19.352C24.5509 19.5387 24.5802 19.6987 24.6389 19.832C24.7029 19.96 24.7936 20.0587 24.9109 20.128C25.0336 20.1973 25.1776 20.232 25.3429 20.232C25.5989 20.232 25.7936 20.1573 25.9269 20.008C26.0656 19.8533 26.1349 19.6347 26.1349 19.352V17.16H27.0149V19.392C27.0149 19.728 26.9429 20.024 26.7989 20.28C26.6602 20.5307 26.4656 20.728 26.2149 20.872C25.9642 21.0107 25.6736 21.08 25.3429 21.08ZM28.4997 21V17.16H29.3797V21H28.4997ZM29.3797 18.864L29.0757 18.712C29.0757 18.2267 29.1824 17.8347 29.3957 17.536C29.6144 17.232 29.9424 17.08 30.3797 17.08C30.5717 17.08 30.7451 17.1147 30.8997 17.184C31.0544 17.2533 31.1984 17.3653 31.3317 17.52L30.7557 18.112C30.6864 18.0373 30.6091 17.984 30.5237 17.952C30.4384 17.92 30.3397 17.904 30.2277 17.904C29.9824 17.904 29.7797 17.9813 29.6197 18.136C29.4597 18.2907 29.3797 18.5333 29.3797 18.864ZM36.1027 21V15.56H37.0227V21H36.1027ZM34.2787 16.24V15.4H38.8467V16.24H34.2787ZM40.9197 21.08C40.5357 21.08 40.189 20.9947 39.8797 20.824C39.5757 20.648 39.333 20.408 39.1517 20.104C38.9757 19.8 38.8877 19.4587 38.8877 19.08C38.8877 18.7013 38.9757 18.3627 39.1517 18.064C39.3277 17.76 39.565 17.52 39.8637 17.344C40.1677 17.168 40.5037 17.08 40.8717 17.08C41.229 17.08 41.5437 17.1627 41.8157 17.328C42.093 17.4933 42.309 17.72 42.4637 18.008C42.6237 18.296 42.7037 18.624 42.7037 18.992C42.7037 19.056 42.6983 19.1227 42.6877 19.192C42.6823 19.256 42.6717 19.328 42.6557 19.408H39.5037V18.688H42.1997L41.8717 18.976C41.861 18.7413 41.8157 18.544 41.7357 18.384C41.6557 18.224 41.541 18.1013 41.3917 18.016C41.2477 17.9307 41.069 17.888 40.8557 17.888C40.6317 17.888 40.437 17.936 40.2717 18.032C40.1063 18.128 39.9783 18.264 39.8877 18.44C39.797 18.6107 39.7517 18.816 39.7517 19.056C39.7517 19.296 39.7997 19.5067 39.8957 19.688C39.9917 19.8693 40.1277 20.0107 40.3037 20.112C40.4797 20.208 40.6823 20.256 40.9117 20.256C41.109 20.256 41.2903 20.2213 41.4557 20.152C41.6263 20.0827 41.7703 19.9813 41.8877 19.848L42.4477 20.416C42.261 20.6347 42.0343 20.8 41.7677 20.912C41.501 21.024 41.2183 21.08 40.9197 21.08ZM45.6171 21.08C45.2704 21.08 44.9558 20.992 44.6731 20.816C44.3958 20.64 44.1744 20.4027 44.0091 20.104C43.8491 19.8 43.7691 19.4613 43.7691 19.088C43.7691 18.7093 43.8491 18.3707 44.0091 18.072C44.1744 17.768 44.3958 17.528 44.6731 17.352C44.9558 17.1707 45.2704 17.08 45.6171 17.08C45.9104 17.08 46.1691 17.144 46.3931 17.272C46.6224 17.3947 46.8038 17.5653 46.9371 17.784C47.0704 18.0027 47.1371 18.2507 47.1371 18.528V19.632C47.1371 19.9093 47.0704 20.1573 46.9371 20.376C46.8091 20.5947 46.6304 20.768 46.4011 20.896C46.1718 21.0187 45.9104 21.08 45.6171 21.08ZM45.7611 20.248C46.0864 20.248 46.3478 20.1387 46.5451 19.92C46.7478 19.7013 46.8491 19.4213 46.8491 19.08C46.8491 18.8507 46.8038 18.648 46.7131 18.472C46.6224 18.296 46.4944 18.16 46.3291 18.064C46.1691 17.9627 45.9798 17.912 45.7611 17.912C45.5478 17.912 45.3584 17.9627 45.1931 18.064C45.0331 18.16 44.9051 18.296 44.8091 18.472C44.7184 18.648 44.6731 18.8507 44.6731 19.08C44.6731 19.3093 44.7184 19.512 44.8091 19.688C44.9051 19.864 45.0331 20.0027 45.1931 20.104C45.3584 20.2 45.5478 20.248 45.7611 20.248ZM46.7931 21V19.968L46.9451 19.032L46.7931 18.104V17.16H47.6731V21H46.7931ZM51.0177 21.08C50.6391 21.08 50.2951 20.992 49.9857 20.816C49.6817 20.64 49.4417 20.4 49.2657 20.096C49.0897 19.792 49.0017 19.4533 49.0017 19.08C49.0017 18.7013 49.0897 18.3627 49.2657 18.064C49.4417 17.76 49.6817 17.52 49.9857 17.344C50.2951 17.168 50.6391 17.08 51.0177 17.08C51.3164 17.08 51.5937 17.1387 51.8497 17.256C52.1111 17.368 52.3324 17.5307 52.5137 17.744L51.9377 18.328C51.8257 18.1947 51.6897 18.096 51.5297 18.032C51.3751 17.9627 51.2044 17.928 51.0177 17.928C50.7991 17.928 50.6044 17.9787 50.4337 18.08C50.2684 18.176 50.1377 18.3093 50.0417 18.48C49.9511 18.6507 49.9057 18.8507 49.9057 19.08C49.9057 19.304 49.9511 19.504 50.0417 19.68C50.1377 19.8507 50.2684 19.9867 50.4337 20.088C50.6044 20.184 50.7991 20.232 51.0177 20.232C51.2044 20.232 51.3751 20.2 51.5297 20.136C51.6897 20.0667 51.8257 19.9653 51.9377 19.832L52.5137 20.416C52.3324 20.6293 52.1111 20.7947 51.8497 20.912C51.5937 21.024 51.3164 21.08 51.0177 21.08ZM56.3802 21V18.784C56.3802 18.528 56.2975 18.3173 56.1322 18.152C55.9722 17.9867 55.7642 17.904 55.5082 17.904C55.3375 17.904 55.1855 17.9413 55.0522 18.016C54.9188 18.0907 54.8148 18.1947 54.7402 18.328C54.6655 18.4613 54.6282 18.6133 54.6282 18.784L54.2842 18.592C54.2842 18.2987 54.3482 18.04 54.4762 17.816C54.6042 17.5867 54.7802 17.408 55.0042 17.28C55.2335 17.1467 55.4895 17.08 55.7722 17.08C56.0602 17.08 56.3162 17.144 56.5402 17.272C56.7642 17.4 56.9402 17.5787 57.0682 17.808C57.1962 18.032 57.2602 18.2933 57.2602 18.592V21H56.3802ZM53.7482 21V15.24H54.6282V21H53.7482ZM58.7624 21V17.16H59.6424V21H58.7624ZM59.2024 16.456C59.0531 16.456 58.9277 16.4053 58.8264 16.304C58.7304 16.2027 58.6824 16.0773 58.6824 15.928C58.6824 15.7787 58.7304 15.6533 58.8264 15.552C58.9277 15.4507 59.0531 15.4 59.2024 15.4C59.3571 15.4 59.4824 15.4507 59.5784 15.552C59.6744 15.6533 59.7224 15.7787 59.7224 15.928C59.7224 16.0773 59.6744 16.2027 59.5784 16.304C59.4824 16.4053 59.3571 16.456 59.2024 16.456ZM63.8614 21V18.784C63.8614 18.528 63.7787 18.3173 63.6134 18.152C63.4534 17.9867 63.2454 17.904 62.9894 17.904C62.8187 17.904 62.6667 17.9413 62.5334 18.016C62.4001 18.0907 62.2961 18.1947 62.2214 18.328C62.1467 18.4613 62.1094 18.6133 62.1094 18.784L61.7654 18.592C61.7654 18.2987 61.8294 18.04 61.9574 17.816C62.0854 17.5867 62.2614 17.408 62.4854 17.28C62.7147 17.1467 62.9707 17.08 63.2534 17.08C63.5414 17.08 63.7974 17.1547 64.0214 17.304C64.2454 17.448 64.4214 17.6373 64.5494 17.872C64.6774 18.1013 64.7414 18.3413 64.7414 18.592V21H63.8614ZM61.2294 21V17.16H62.1094V21H61.2294ZM67.8357 22.68C67.4303 22.68 67.0757 22.6053 66.7717 22.456C66.4677 22.312 66.2223 22.1067 66.0357 21.84L66.6117 21.264C66.7663 21.456 66.9423 21.6 67.1397 21.696C67.337 21.792 67.5743 21.84 67.8517 21.84C68.1983 21.84 68.473 21.7493 68.6757 21.568C68.8783 21.392 68.9797 21.1493 68.9797 20.84V19.896L69.1317 19.048L68.9797 18.192V17.16H69.8597V20.84C69.8597 21.208 69.7743 21.528 69.6037 21.8C69.433 22.0773 69.1957 22.2933 68.8917 22.448C68.5877 22.6027 68.2357 22.68 67.8357 22.68ZM67.7957 20.92C67.4543 20.92 67.145 20.8373 66.8677 20.672C66.5957 20.5013 66.3797 20.2693 66.2197 19.976C66.065 19.6827 65.9877 19.3547 65.9877 18.992C65.9877 18.6293 66.065 18.304 66.2197 18.016C66.3797 17.728 66.5957 17.5013 66.8677 17.336C67.145 17.1653 67.4543 17.08 67.7957 17.08C68.0997 17.08 68.3663 17.1413 68.5957 17.264C68.825 17.3867 69.0037 17.5573 69.1317 17.776C69.2597 17.9893 69.3237 18.24 69.3237 18.528V19.472C69.3237 19.7547 69.257 20.0053 69.1237 20.224C68.9957 20.4427 68.817 20.6133 68.5877 20.736C68.3583 20.8587 68.0943 20.92 67.7957 20.92ZM67.9717 20.088C68.185 20.088 68.3717 20.0427 68.5317 19.952C68.6917 19.8613 68.8143 19.736 68.8997 19.576C68.9903 19.4107 69.0357 19.2187 69.0357 19C69.0357 18.7813 68.9903 18.592 68.8997 18.432C68.8143 18.2667 68.6917 18.1387 68.5317 18.048C68.3717 17.9573 68.185 17.912 67.9717 17.912C67.7583 17.912 67.569 17.9573 67.4037 18.048C67.2437 18.1387 67.1183 18.2667 67.0277 18.432C66.937 18.592 66.8917 18.7813 66.8917 19C66.8917 19.2133 66.937 19.4027 67.0277 19.568C67.1183 19.7333 67.2437 19.8613 67.4037 19.952C67.569 20.0427 67.7583 20.088 67.9717 20.088ZM73.7588 21V15.4H74.3988L76.7268 19.232H76.3108L78.6388 15.4H79.2788V21H78.3588V17.016L78.5668 17.072L76.8388 19.912H76.1988L74.4708 17.072L74.6788 17.016V21H73.7588ZM82.7572 21.08C82.3732 21.08 82.0265 20.9947 81.7172 20.824C81.4132 20.648 81.1705 20.408 80.9892 20.104C80.8132 19.8 80.7252 19.4587 80.7252 19.08C80.7252 18.7013 80.8132 18.3627 80.9892 18.064C81.1652 17.76 81.4025 17.52 81.7012 17.344C82.0052 17.168 82.3412 17.08 82.7092 17.08C83.0665 17.08 83.3812 17.1627 83.6532 17.328C83.9305 17.4933 84.1465 17.72 84.3012 18.008C84.4612 18.296 84.5412 18.624 84.5412 18.992C84.5412 19.056 84.5358 19.1227 84.5252 19.192C84.5198 19.256 84.5092 19.328 84.4932 19.408H81.3412V18.688H84.0372L83.7092 18.976C83.6985 18.7413 83.6532 18.544 83.5732 18.384C83.4932 18.224 83.3785 18.1013 83.2292 18.016C83.0852 17.9307 82.9065 17.888 82.6932 17.888C82.4692 17.888 82.2745 17.936 82.1092 18.032C81.9438 18.128 81.8158 18.264 81.7252 18.44C81.6345 18.6107 81.5892 18.816 81.5892 19.056C81.5892 19.296 81.6372 19.5067 81.7332 19.688C81.8292 19.8693 81.9652 20.0107 82.1412 20.112C82.3172 20.208 82.5198 20.256 82.7492 20.256C82.9465 20.256 83.1278 20.2213 83.2932 20.152C83.4638 20.0827 83.6078 19.9813 83.7252 19.848L84.2852 20.416C84.0985 20.6347 83.8718 20.8 83.6052 20.912C83.3385 21.024 83.0558 21.08 82.7572 21.08ZM86.329 21V15.56H87.209V21H86.329ZM85.409 17.96V17.16H88.129V17.96H85.409ZM92.0005 21V18.784C92.0005 18.528 91.9178 18.3173 91.7525 18.152C91.5925 17.9867 91.3845 17.904 91.1285 17.904C90.9578 17.904 90.8058 17.9413 90.6725 18.016C90.5391 18.0907 90.4351 18.1947 90.3605 18.328C90.2858 18.4613 90.2485 18.6133 90.2485 18.784L89.9045 18.592C89.9045 18.2987 89.9685 18.04 90.0965 17.816C90.2245 17.5867 90.4005 17.408 90.6245 17.28C90.8538 17.1467 91.1098 17.08 91.3925 17.08C91.6805 17.08 91.9365 17.144 92.1605 17.272C92.3845 17.4 92.5605 17.5787 92.6885 17.808C92.8165 18.032 92.8805 18.2933 92.8805 18.592V21H92.0005ZM89.3685 21V15.24H90.2485V21H89.3685ZM96.1347 21.08C95.7614 21.08 95.4227 20.992 95.1187 20.816C94.8147 20.6347 94.5721 20.392 94.3907 20.088C94.2147 19.784 94.1267 19.4453 94.1267 19.072C94.1267 18.6987 94.2147 18.3627 94.3907 18.064C94.5721 17.7653 94.8147 17.528 95.1187 17.352C95.4227 17.1707 95.7614 17.08 96.1347 17.08C96.5134 17.08 96.8547 17.168 97.1587 17.344C97.4627 17.52 97.7027 17.76 97.8787 18.064C98.0601 18.3627 98.1507 18.6987 98.1507 19.072C98.1507 19.4453 98.0601 19.784 97.8787 20.088C97.7027 20.392 97.4627 20.6347 97.1587 20.816C96.8547 20.992 96.5134 21.08 96.1347 21.08ZM96.1347 20.232C96.3534 20.232 96.5454 20.184 96.7107 20.088C96.8814 19.9867 97.0121 19.848 97.1027 19.672C97.1987 19.496 97.2467 19.296 97.2467 19.072C97.2467 18.848 97.1987 18.6507 97.1027 18.48C97.0067 18.3093 96.8761 18.176 96.7107 18.08C96.5454 17.9787 96.3534 17.928 96.1347 17.928C95.9214 17.928 95.7294 17.9787 95.5587 18.08C95.3934 18.176 95.2627 18.3093 95.1667 18.48C95.0761 18.6507 95.0307 18.848 95.0307 19.072C95.0307 19.296 95.0761 19.496 95.1667 19.672C95.2627 19.848 95.3934 19.9867 95.5587 20.088C95.7294 20.184 95.9214 20.232 96.1347 20.232ZM101.091 21.08C100.744 21.08 100.429 20.992 100.147 20.816C99.8692 20.64 99.6479 20.4027 99.4825 20.104C99.3225 19.8 99.2425 19.4613 99.2425 19.088C99.2425 18.7093 99.3225 18.3707 99.4825 18.072C99.6479 17.768 99.8692 17.528 100.147 17.352C100.429 17.1707 100.744 17.08 101.091 17.08C101.384 17.08 101.643 17.144 101.867 17.272C102.096 17.3947 102.277 17.5653 102.411 17.784C102.544 18.0027 102.611 18.2507 102.611 18.528V19.632C102.611 19.9093 102.544 20.1573 102.411 20.376C102.283 20.5947 102.104 20.768 101.875 20.896C101.645 21.0187 101.384 21.08 101.091 21.08ZM101.235 20.248C101.453 20.248 101.643 20.2 101.803 20.104C101.968 20.0027 102.096 19.864 102.187 19.688C102.277 19.512 102.323 19.3093 102.323 19.08C102.323 18.8507 102.277 18.648 102.187 18.472C102.096 18.296 101.968 18.16 101.803 18.064C101.643 17.9627 101.453 17.912 101.235 17.912C101.021 17.912 100.832 17.9627 100.667 18.064C100.507 18.16 100.379 18.296 100.283 18.472C100.192 18.648 100.147 18.8507 100.147 19.08C100.147 19.3093 100.192 19.512 100.283 19.688C100.379 19.864 100.507 20.0027 100.667 20.104C100.832 20.2 101.021 20.248 101.235 20.248ZM103.147 21H102.267V19.968L102.419 19.032L102.267 18.104V15.24H103.147V21ZM105.979 21.08C105.766 21.08 105.56 21.0533 105.363 21C105.166 20.9413 104.984 20.8613 104.819 20.76C104.654 20.6533 104.51 20.5253 104.387 20.376L104.947 19.816C105.08 19.9707 105.232 20.088 105.403 20.168C105.579 20.2427 105.776 20.28 105.995 20.28C106.192 20.28 106.342 20.2507 106.443 20.192C106.544 20.1333 106.595 20.048 106.595 19.936C106.595 19.8187 106.547 19.728 106.451 19.664C106.355 19.6 106.23 19.5467 106.075 19.504C105.926 19.456 105.766 19.408 105.595 19.36C105.43 19.312 105.27 19.248 105.115 19.168C104.966 19.0827 104.843 18.968 104.747 18.824C104.651 18.68 104.603 18.4933 104.603 18.264C104.603 18.0187 104.659 17.808 104.771 17.632C104.888 17.456 105.051 17.32 105.259 17.224C105.472 17.128 105.726 17.08 106.019 17.08C106.328 17.08 106.6 17.136 106.835 17.248C107.075 17.3547 107.275 17.5173 107.435 17.736L106.875 18.296C106.763 18.1573 106.635 18.0533 106.491 17.984C106.347 17.9147 106.182 17.88 105.995 17.88C105.819 17.88 105.683 17.9067 105.587 17.96C105.491 18.0133 105.443 18.0907 105.443 18.192C105.443 18.2987 105.491 18.3813 105.587 18.44C105.683 18.4987 105.806 18.5493 105.955 18.592C106.11 18.6347 106.27 18.6827 106.435 18.736C106.606 18.784 106.766 18.8533 106.915 18.944C107.07 19.0293 107.195 19.1467 107.291 19.296C107.387 19.44 107.435 19.6293 107.435 19.864C107.435 20.2373 107.304 20.5333 107.043 20.752C106.782 20.9707 106.427 21.08 105.979 21.08Z" fill="#17346D"/>
<path d="M20.5678 41.792L16.2158 34.704H19.1278L22.4718 40.432H20.5998L23.9438 34.704H26.7918L22.4078 41.792H20.5678ZM20.2638 46V40.64H22.7758V46H20.2638ZM29.3189 46.176C28.5189 46.176 27.7936 46 27.1429 45.648C26.5029 45.2853 25.9963 44.7947 25.6229 44.176C25.2496 43.5573 25.0629 42.864 25.0629 42.096C25.0629 41.328 25.2496 40.64 25.6229 40.032C25.9963 39.424 26.5029 38.944 27.1429 38.592C27.7829 38.2293 28.5083 38.048 29.3189 38.048C30.1296 38.048 30.8549 38.224 31.4949 38.576C32.1349 38.928 32.6416 39.4133 33.0149 40.032C33.3883 40.64 33.5749 41.328 33.5749 42.096C33.5749 42.864 33.3883 43.5573 33.0149 44.176C32.6416 44.7947 32.1349 45.2853 31.4949 45.648C30.8549 46 30.1296 46.176 29.3189 46.176ZM29.3189 43.952C29.6709 43.952 29.9803 43.8773 30.2469 43.728C30.5136 43.568 30.7163 43.3493 30.8549 43.072C31.0043 42.784 31.0789 42.4587 31.0789 42.096C31.0789 41.7333 31.0043 41.4187 30.8549 41.152C30.7056 40.8747 30.4976 40.6613 30.2309 40.512C29.9749 40.352 29.6709 40.272 29.3189 40.272C28.9776 40.272 28.6736 40.352 28.4069 40.512C28.1403 40.6613 27.9323 40.8747 27.7829 41.152C27.6336 41.4293 27.5589 41.7493 27.5589 42.112C27.5589 42.464 27.6336 42.784 27.7829 43.072C27.9323 43.3493 28.1403 43.568 28.4069 43.728C28.6736 43.8773 28.9776 43.952 29.3189 43.952ZM38.2497 46.176C37.535 46.176 36.9004 46.032 36.3457 45.744C35.8017 45.4453 35.375 45.04 35.0657 44.528C34.7564 44.0053 34.6017 43.408 34.6017 42.736V38.224H37.0497V42.704C37.0497 42.9707 37.0924 43.2 37.1777 43.392C37.2737 43.584 37.4124 43.7333 37.5937 43.84C37.775 43.9467 37.9937 44 38.2497 44C38.6124 44 38.9004 43.888 39.1137 43.664C39.327 43.4293 39.4337 43.1093 39.4337 42.704V38.224H41.8817V42.72C41.8817 43.4027 41.727 44.0053 41.4177 44.528C41.1084 45.04 40.6817 45.4453 40.1377 45.744C39.5937 46.032 38.9644 46.176 38.2497 46.176ZM43.4187 46V38.224H45.8667V46H43.4187ZM45.8667 41.728L44.8427 40.928C45.0454 40.0213 45.3867 39.3173 45.8667 38.816C46.3467 38.3147 47.0134 38.064 47.8667 38.064C48.24 38.064 48.5654 38.1227 48.8427 38.24C49.1307 38.3467 49.3814 38.5173 49.5947 38.752L48.1387 40.592C48.032 40.4747 47.8987 40.384 47.7387 40.32C47.5787 40.256 47.3974 40.224 47.1947 40.224C46.7894 40.224 46.464 40.352 46.2187 40.608C45.984 40.8533 45.8667 41.2267 45.8667 41.728ZM53.7989 46V34.704H56.3109V46H53.7989ZM55.7189 41.568V39.408H61.3669V41.568H55.7189ZM55.7189 36.864V34.704H61.6229V36.864H55.7189ZM63.0124 46V38.224H65.4604V46H63.0124ZM64.2444 37.152C63.8604 37.152 63.5404 37.024 63.2844 36.768C63.0391 36.5013 62.9164 36.1813 62.9164 35.808C62.9164 35.424 63.0391 35.104 63.2844 34.848C63.5404 34.592 63.8604 34.464 64.2444 34.464C64.6284 34.464 64.9431 34.592 65.1884 34.848C65.4338 35.104 65.5564 35.424 65.5564 35.808C65.5564 36.1813 65.4338 36.5013 65.1884 36.768C64.9431 37.024 64.6284 37.152 64.2444 37.152ZM67.1843 46V38.224H69.6323V46H67.1843ZM69.6323 41.728L68.6083 40.928C68.811 40.0213 69.1523 39.3173 69.6323 38.816C70.1123 38.3147 70.779 38.064 71.6323 38.064C72.0056 38.064 72.331 38.1227 72.6083 38.24C72.8963 38.3467 73.147 38.5173 73.3603 38.752L71.9043 40.592C71.7976 40.4747 71.6643 40.384 71.5043 40.32C71.3443 40.256 71.163 40.224 70.9603 40.224C70.555 40.224 70.2296 40.352 69.9843 40.608C69.7496 40.8533 69.6323 41.2267 69.6323 41.728ZM76.6726 46.192C76.2139 46.192 75.7606 46.1333 75.3126 46.016C74.8752 45.8987 74.4646 45.7333 74.0806 45.52C73.7072 45.296 73.3872 45.04 73.1206 44.752L74.5126 43.344C74.7686 43.6213 75.0726 43.84 75.4246 44C75.7766 44.1493 76.1606 44.224 76.5766 44.224C76.8646 44.224 77.0832 44.1813 77.2326 44.096C77.3926 44.0107 77.4726 43.8933 77.4726 43.744C77.4726 43.552 77.3766 43.408 77.1846 43.312C77.0032 43.2053 76.7686 43.1147 76.4806 43.04C76.1926 42.9547 75.8886 42.864 75.5686 42.768C75.2486 42.672 74.9446 42.5387 74.6566 42.368C74.3686 42.1973 74.1339 41.9627 73.9526 41.664C73.7712 41.3547 73.6806 40.9653 73.6806 40.496C73.6806 39.9947 73.8086 39.5627 74.0646 39.2C74.3206 38.8267 74.6832 38.5333 75.1526 38.32C75.6219 38.1067 76.1712 38 76.8006 38C77.4619 38 78.0699 38.1173 78.6246 38.352C79.1899 38.576 79.6486 38.912 80.0006 39.36L78.6086 40.768C78.3632 40.48 78.0859 40.2773 77.7766 40.16C77.4779 40.0427 77.1846 39.984 76.8966 39.984C76.6192 39.984 76.4112 40.0267 76.2726 40.112C76.1339 40.1867 76.0646 40.2987 76.0646 40.448C76.0646 40.608 76.1552 40.736 76.3366 40.832C76.5179 40.928 76.7526 41.0133 77.0406 41.088C77.3286 41.1627 77.6326 41.2533 77.9526 41.36C78.2726 41.4667 78.5766 41.6107 78.8646 41.792C79.1526 41.9733 79.3872 42.2187 79.5686 42.528C79.7499 42.8267 79.8406 43.2213 79.8406 43.712C79.8406 44.4693 79.5526 45.072 78.9766 45.52C78.4112 45.968 77.6432 46.192 76.6726 46.192ZM82.2727 46V35.008H84.7207V46H82.2727ZM80.5127 40.304V38.224H86.4807V40.304H80.5127ZM94.2222 46.176C93.2942 46.176 92.4942 46.0267 91.8222 45.728C91.1609 45.4187 90.5529 44.9547 89.9982 44.336L91.6302 42.72C91.9929 43.136 92.3929 43.4613 92.8302 43.696C93.2782 43.92 93.7955 44.032 94.3822 44.032C94.9155 44.032 95.3262 43.936 95.6142 43.744C95.9129 43.552 96.0622 43.2853 96.0622 42.944C96.0622 42.6347 95.9662 42.384 95.7742 42.192C95.5822 42 95.3262 41.8347 95.0062 41.696C94.6969 41.5573 94.3502 41.424 93.9662 41.296C93.5929 41.168 93.2195 41.024 92.8462 40.864C92.4729 40.6933 92.1262 40.4853 91.8062 40.24C91.4969 39.984 91.2462 39.6693 91.0542 39.296C90.8622 38.912 90.7662 38.432 90.7662 37.856C90.7662 37.1627 90.9315 36.5653 91.2622 36.064C91.6035 35.5627 92.0729 35.184 92.6702 34.928C93.2675 34.6613 93.9555 34.528 94.7342 34.528C95.5235 34.528 96.2435 34.6667 96.8942 34.944C97.5555 35.2213 98.0995 35.6 98.5262 36.08L96.8942 37.696C96.5529 37.344 96.2062 37.0827 95.8542 36.912C95.5129 36.7413 95.1235 36.656 94.6862 36.656C94.2489 36.656 93.9022 36.7413 93.6462 36.912C93.3902 37.072 93.2622 37.3067 93.2622 37.616C93.2622 37.904 93.3582 38.1387 93.5502 38.32C93.7422 38.4907 93.9929 38.64 94.3022 38.768C94.6222 38.896 94.9689 39.024 95.3422 39.152C95.7262 39.28 96.1049 39.4293 96.4782 39.6C96.8515 39.7707 97.1929 39.9893 97.5022 40.256C97.8222 40.512 98.0782 40.8427 98.2702 41.248C98.4622 41.6427 98.5582 42.1333 98.5582 42.72C98.5582 43.7973 98.1742 44.6453 97.4062 45.264C96.6382 45.872 95.5769 46.176 94.2222 46.176ZM103.727 46.176C102.885 46.176 102.133 46.0053 101.471 45.664C100.821 45.312 100.309 44.8267 99.9354 44.208C99.5621 43.5893 99.3754 42.8907 99.3754 42.112C99.3754 41.3333 99.5568 40.64 99.9194 40.032C100.293 39.4133 100.794 38.928 101.423 38.576C102.053 38.224 102.762 38.048 103.551 38.048C104.319 38.048 104.997 38.2133 105.583 38.544C106.17 38.8747 106.629 39.3333 106.959 39.92C107.301 40.5067 107.471 41.1787 107.471 41.936C107.471 42.0747 107.461 42.224 107.439 42.384C107.429 42.5333 107.402 42.7093 107.359 42.912L100.655 42.928V41.248L106.319 41.232L105.263 41.936C105.253 41.488 105.183 41.12 105.055 40.832C104.927 40.5333 104.735 40.3093 104.479 40.16C104.234 40 103.93 39.92 103.567 39.92C103.183 39.92 102.847 40.0107 102.559 40.192C102.282 40.3627 102.063 40.608 101.903 40.928C101.754 41.248 101.679 41.6373 101.679 42.096C101.679 42.5547 101.759 42.9493 101.919 43.28C102.09 43.6 102.325 43.8507 102.623 44.032C102.933 44.2027 103.295 44.288 103.711 44.288C104.095 44.288 104.442 44.224 104.751 44.096C105.061 43.9573 105.333 43.7547 105.567 43.488L106.911 44.832C106.527 45.28 106.063 45.616 105.519 45.84C104.975 46.064 104.378 46.176 103.727 46.176ZM111.485 46.192C111.026 46.192 110.573 46.1333 110.125 46.016C109.688 45.8987 109.277 45.7333 108.893 45.52C108.52 45.296 108.2 45.04 107.933 44.752L109.325 43.344C109.581 43.6213 109.885 43.84 110.237 44C110.589 44.1493 110.973 44.224 111.389 44.224C111.677 44.224 111.896 44.1813 112.045 44.096C112.205 44.0107 112.285 43.8933 112.285 43.744C112.285 43.552 112.189 43.408 111.997 43.312C111.816 43.2053 111.581 43.1147 111.293 43.04C111.005 42.9547 110.701 42.864 110.381 42.768C110.061 42.672 109.757 42.5387 109.469 42.368C109.181 42.1973 108.946 41.9627 108.765 41.664C108.584 41.3547 108.493 40.9653 108.493 40.496C108.493 39.9947 108.621 39.5627 108.877 39.2C109.133 38.8267 109.496 38.5333 109.965 38.32C110.434 38.1067 110.984 38 111.613 38C112.274 38 112.882 38.1173 113.437 38.352C114.002 38.576 114.461 38.912 114.813 39.36L113.421 40.768C113.176 40.48 112.898 40.2773 112.589 40.16C112.29 40.0427 111.997 39.984 111.709 39.984C111.432 39.984 111.224 40.0267 111.085 40.112C110.946 40.1867 110.877 40.2987 110.877 40.448C110.877 40.608 110.968 40.736 111.149 40.832C111.33 40.928 111.565 41.0133 111.853 41.088C112.141 41.1627 112.445 41.2533 112.765 41.36C113.085 41.4667 113.389 41.6107 113.677 41.792C113.965 41.9733 114.2 42.2187 114.381 42.528C114.562 42.8267 114.653 43.2213 114.653 43.712C114.653 44.4693 114.365 45.072 113.789 45.52C113.224 45.968 112.456 46.192 111.485 46.192ZM118.813 46.192C118.355 46.192 117.901 46.1333 117.453 46.016C117.016 45.8987 116.605 45.7333 116.221 45.52C115.848 45.296 115.528 45.04 115.261 44.752L116.653 43.344C116.909 43.6213 117.213 43.84 117.565 44C117.917 44.1493 118.301 44.224 118.717 44.224C119.005 44.224 119.224 44.1813 119.373 44.096C119.533 44.0107 119.613 43.8933 119.613 43.744C119.613 43.552 119.517 43.408 119.325 43.312C119.144 43.2053 118.909 43.1147 118.621 43.04C118.333 42.9547 118.029 42.864 117.709 42.768C117.389 42.672 117.085 42.5387 116.797 42.368C116.509 42.1973 116.275 41.9627 116.093 41.664C115.912 41.3547 115.821 40.9653 115.821 40.496C115.821 39.9947 115.949 39.5627 116.205 39.2C116.461 38.8267 116.824 38.5333 117.293 38.32C117.763 38.1067 118.312 38 118.941 38C119.603 38 120.211 38.1173 120.765 38.352C121.331 38.576 121.789 38.912 122.141 39.36L120.749 40.768C120.504 40.48 120.227 40.2773 119.917 40.16C119.619 40.0427 119.325 39.984 119.037 39.984C118.76 39.984 118.552 40.0267 118.413 40.112C118.275 40.1867 118.205 40.2987 118.205 40.448C118.205 40.608 118.296 40.736 118.477 40.832C118.659 40.928 118.893 41.0133 119.181 41.088C119.469 41.1627 119.773 41.2533 120.093 41.36C120.413 41.4667 120.717 41.6107 121.005 41.792C121.293 41.9733 121.528 42.2187 121.709 42.528C121.891 42.8267 121.981 43.2213 121.981 43.712C121.981 44.4693 121.693 45.072 121.117 45.52C120.552 45.968 119.784 46.192 118.813 46.192ZM123.309 46V38.224H125.757V46H123.309ZM124.541 37.152C124.157 37.152 123.837 37.024 123.581 36.768C123.336 36.5013 123.213 36.1813 123.213 35.808C123.213 35.424 123.336 35.104 123.581 34.848C123.837 34.592 124.157 34.464 124.541 34.464C124.925 34.464 125.24 34.592 125.485 34.848C125.731 35.104 125.853 35.424 125.853 35.808C125.853 36.1813 125.731 36.5013 125.485 36.768C125.24 37.024 124.925 37.152 124.541 37.152ZM131.225 46.176C130.425 46.176 129.7 46 129.049 45.648C128.409 45.2853 127.903 44.7947 127.529 44.176C127.156 43.5573 126.969 42.864 126.969 42.096C126.969 41.328 127.156 40.64 127.529 40.032C127.903 39.424 128.409 38.944 129.049 38.592C129.689 38.2293 130.415 38.048 131.225 38.048C132.036 38.048 132.761 38.224 133.401 38.576C134.041 38.928 134.548 39.4133 134.921 40.032C135.295 40.64 135.481 41.328 135.481 42.096C135.481 42.864 135.295 43.5573 134.921 44.176C134.548 44.7947 134.041 45.2853 133.401 45.648C132.761 46 132.036 46.176 131.225 46.176ZM131.225 43.952C131.577 43.952 131.887 43.8773 132.153 43.728C132.42 43.568 132.623 43.3493 132.761 43.072C132.911 42.784 132.985 42.4587 132.985 42.096C132.985 41.7333 132.911 41.4187 132.761 41.152C132.612 40.8747 132.404 40.6613 132.137 40.512C131.881 40.352 131.577 40.272 131.225 40.272C130.884 40.272 130.58 40.352 130.313 40.512C130.047 40.6613 129.839 40.8747 129.689 41.152C129.54 41.4293 129.465 41.7493 129.465 42.112C129.465 42.464 129.54 42.784 129.689 43.072C129.839 43.3493 130.047 43.568 130.313 43.728C130.58 43.8773 130.884 43.952 131.225 43.952ZM141.836 46V41.568C141.836 41.1627 141.708 40.8373 141.452 40.592C141.207 40.336 140.892 40.208 140.508 40.208C140.241 40.208 140.007 40.2667 139.804 40.384C139.601 40.4907 139.441 40.6507 139.324 40.864C139.207 41.0667 139.148 41.3013 139.148 41.568L138.204 41.104C138.204 40.496 138.337 39.9627 138.604 39.504C138.871 39.0453 139.239 38.6933 139.708 38.448C140.188 38.192 140.727 38.064 141.324 38.064C141.9 38.064 142.407 38.2027 142.844 38.48C143.292 38.7467 143.644 39.104 143.9 39.552C144.156 40 144.284 40.4907 144.284 41.024V46H141.836ZM136.7 46V38.224H139.148V46H136.7Z" fill="#17346D"/>
<path d="M283.001 43.5832C281.025 43.5832 279.418 41.9765 279.418 39.9998C279.418 38.0232 281.025 36.4165 283.001 36.4165C284.978 36.4165 286.585 38.0232 286.585 39.9998C286.585 41.9765 284.978 43.5832 283.001 43.5832ZM283.001 36.9165C281.301 36.9165 279.918 38.2998 279.918 39.9998C279.918 41.6998 281.301 43.0832 283.001 43.0832C284.701 43.0832 286.085 41.6998 286.085 39.9998C286.085 38.2998 284.701 36.9165 283.001 36.9165Z" fill="#17346D"/>
<path d="M284.236 41.3101C284.192 41.3101 284.149 41.3001 284.109 41.2734L283.076 40.6568C282.819 40.5034 282.629 40.1668 282.629 39.8701V38.5034C282.629 38.3668 282.742 38.2534 282.879 38.2534C283.016 38.2534 283.129 38.3668 283.129 38.5034V39.8701C283.129 39.9901 283.229 40.1668 283.332 40.2268L284.366 40.8434C284.486 40.9134 284.522 41.0668 284.452 41.1868C284.402 41.2668 284.319 41.3101 284.236 41.3101Z" fill="#17346D"/>
<path d="M291.295 42.58C290.922 42.58 290.586 42.4947 290.287 42.324C289.988 42.148 289.751 41.9133 289.575 41.62C289.404 41.3267 289.319 41.0013 289.319 40.644C289.319 40.132 289.498 39.6147 289.855 39.092L291.383 36.9H292.447L290.815 39.196L290.479 39.396C290.532 39.2733 290.599 39.1693 290.679 39.084C290.764 38.9933 290.874 38.924 291.007 38.876C291.146 38.828 291.316 38.804 291.519 38.804C291.844 38.804 292.138 38.8813 292.399 39.036C292.666 39.1853 292.879 39.396 293.039 39.668C293.199 39.9347 293.279 40.2493 293.279 40.612C293.279 40.9747 293.191 41.3053 293.015 41.604C292.839 41.9027 292.599 42.14 292.295 42.316C291.996 42.492 291.663 42.58 291.295 42.58ZM291.295 41.716C291.498 41.716 291.679 41.668 291.839 41.572C291.999 41.476 292.124 41.3453 292.215 41.18C292.311 41.0093 292.359 40.82 292.359 40.612C292.359 40.404 292.311 40.2173 292.215 40.052C292.124 39.8867 291.999 39.7587 291.839 39.668C291.679 39.572 291.498 39.524 291.295 39.524C291.092 39.524 290.911 39.572 290.751 39.668C290.591 39.764 290.466 39.8947 290.375 40.06C290.284 40.22 290.239 40.404 290.239 40.612C290.239 40.82 290.284 41.0093 290.375 41.18C290.466 41.3453 290.591 41.476 290.751 41.572C290.911 41.668 291.092 41.716 291.295 41.716ZM296.171 42.58C295.75 42.58 295.363 42.4627 295.011 42.228C294.664 41.988 294.387 41.652 294.179 41.22C293.971 40.788 293.867 40.2787 293.867 39.692C293.867 39.1053 293.968 38.5987 294.171 38.172C294.379 37.74 294.656 37.4067 295.003 37.172C295.35 36.9373 295.734 36.82 296.155 36.82C296.582 36.82 296.968 36.9373 297.315 37.172C297.662 37.4067 297.936 37.74 298.139 38.172C298.347 38.5987 298.451 39.108 298.451 39.7C298.451 40.2867 298.347 40.796 298.139 41.228C297.936 41.66 297.662 41.9933 297.315 42.228C296.974 42.4627 296.592 42.58 296.171 42.58ZM296.155 41.716C296.432 41.716 296.672 41.6413 296.875 41.492C297.078 41.3427 297.235 41.1187 297.347 40.82C297.464 40.5213 297.523 40.1453 297.523 39.692C297.523 39.244 297.464 38.8707 297.347 38.572C297.235 38.2733 297.075 38.052 296.867 37.908C296.664 37.7587 296.427 37.684 296.155 37.684C295.883 37.684 295.643 37.7587 295.435 37.908C295.232 38.052 295.075 38.2733 294.963 38.572C294.851 38.8653 294.795 39.2387 294.795 39.692C294.795 40.1453 294.851 40.5213 294.963 40.82C295.075 41.1187 295.232 41.3427 295.435 41.492C295.643 41.6413 295.883 41.716 296.155 41.716ZM299.269 42.5V38.66H300.149V42.5H299.269ZM301.821 42.5V40.212C301.821 39.956 301.741 39.7587 301.581 39.62C301.421 39.476 301.224 39.404 300.989 39.404C300.829 39.404 300.685 39.436 300.557 39.5C300.435 39.564 300.336 39.6573 300.261 39.78C300.187 39.8973 300.149 40.0413 300.149 40.212L299.805 40.02C299.805 39.7267 299.869 39.4733 299.997 39.26C300.125 39.0467 300.299 38.8813 300.517 38.764C300.736 38.6413 300.981 38.58 301.253 38.58C301.525 38.58 301.771 38.6387 301.989 38.756C302.208 38.8733 302.381 39.0387 302.509 39.252C302.637 39.4653 302.701 39.7213 302.701 40.02V42.5H301.821ZM304.373 42.5V40.212C304.373 39.956 304.293 39.7587 304.133 39.62C303.973 39.476 303.776 39.404 303.541 39.404C303.387 39.404 303.245 39.436 303.117 39.5C302.989 39.564 302.888 39.6573 302.813 39.78C302.739 39.8973 302.701 40.0413 302.701 40.212L302.205 40.02C302.232 39.7267 302.317 39.4733 302.461 39.26C302.605 39.0467 302.789 38.8813 303.013 38.764C303.243 38.6413 303.493 38.58 303.765 38.58C304.043 38.58 304.293 38.6387 304.517 38.756C304.741 38.8733 304.92 39.0387 305.053 39.252C305.187 39.4653 305.253 39.7213 305.253 40.02V42.5H304.373ZM306.168 42.5V38.66H307.048V42.5H306.168ZM306.608 37.956C306.459 37.956 306.333 37.9053 306.232 37.804C306.136 37.7027 306.088 37.5773 306.088 37.428C306.088 37.2787 306.136 37.1533 306.232 37.052C306.333 36.9507 306.459 36.9 306.608 36.9C306.763 36.9 306.888 36.9507 306.984 37.052C307.08 37.1533 307.128 37.2787 307.128 37.428C307.128 37.5773 307.08 37.7027 306.984 37.804C306.888 37.9053 306.763 37.956 306.608 37.956ZM310.667 42.5V40.284C310.667 40.028 310.584 39.8173 310.419 39.652C310.259 39.4867 310.051 39.404 309.795 39.404C309.624 39.404 309.472 39.4413 309.339 39.516C309.206 39.5907 309.102 39.6947 309.027 39.828C308.952 39.9613 308.915 40.1133 308.915 40.284L308.571 40.092C308.571 39.7987 308.635 39.54 308.763 39.316C308.891 39.0867 309.067 38.908 309.291 38.78C309.52 38.6467 309.776 38.58 310.059 38.58C310.347 38.58 310.603 38.6547 310.827 38.804C311.051 38.948 311.227 39.1373 311.355 39.372C311.483 39.6013 311.547 39.8413 311.547 40.092V42.5H310.667ZM308.035 42.5V38.66H308.915V42.5H308.035Z" fill="#17346D"/>
<rect x="16" y="58" width="296" height="12" rx="6" fill="#E0E0E0"/>
<rect x="16" y="58" width="96" height="12" rx="6" fill="#17346D"/>
<circle cx="55" cy="64" r="2" fill="#EDF5FF"/>
<circle cx="98" cy="64" r="2" fill="#EDF5FF"/>
<circle cx="178" cy="64" r="2" fill="#17346D"/>
<circle cx="268" cy="64" r="2" fill="#17346D"/>
<g filter="url(#filter0_d_1124_463)">
<path d="M54.7076 69.0294C55.1079 68.5094 55.8921 68.5094 56.2924 69.0294L59.4568 73.14C59.963 73.7976 59.4942 74.75 58.6644 74.75L52.3356 74.75C51.5058 74.75 51.037 73.7976 51.5432 73.14L54.7076 69.0294Z" fill="#17346D"/>
<rect x="10" y="72" width="91" height="26" rx="6" fill="#17346D"/>
<path d="M23.0455 88V82.4H23.9655V88H23.0455ZM23.6775 88V87.16H26.8135V88H23.6775ZM23.6775 85.544V84.736H26.5415V85.544H23.6775ZM23.6775 83.24V82.4H26.7735V83.24H23.6775ZM29.4403 88L27.6883 84.16H28.6643L30.0003 87.288H29.4243L30.7683 84.16H31.7043L29.9523 88H29.4403ZM34.1976 88.08C33.8509 88.08 33.5362 87.992 33.2536 87.816C32.9762 87.64 32.7549 87.4027 32.5896 87.104C32.4296 86.8 32.3496 86.4613 32.3496 86.088C32.3496 85.7093 32.4296 85.3707 32.5896 85.072C32.7549 84.768 32.9762 84.528 33.2536 84.352C33.5362 84.1707 33.8509 84.08 34.1976 84.08C34.4909 84.08 34.7496 84.144 34.9736 84.272C35.2029 84.3947 35.3842 84.5653 35.5176 84.784C35.6509 85.0027 35.7176 85.2507 35.7176 85.528V86.632C35.7176 86.9093 35.6509 87.1573 35.5176 87.376C35.3896 87.5947 35.2109 87.768 34.9816 87.896C34.7522 88.0187 34.4909 88.08 34.1976 88.08ZM34.3416 87.248C34.6669 87.248 34.9282 87.1387 35.1256 86.92C35.3282 86.7013 35.4296 86.4213 35.4296 86.08C35.4296 85.8507 35.3842 85.648 35.2936 85.472C35.2029 85.296 35.0749 85.16 34.9096 85.064C34.7496 84.9627 34.5602 84.912 34.3416 84.912C34.1282 84.912 33.9389 84.9627 33.7736 85.064C33.6136 85.16 33.4856 85.296 33.3896 85.472C33.2989 85.648 33.2536 85.8507 33.2536 86.08C33.2536 86.3093 33.2989 86.512 33.3896 86.688C33.4856 86.864 33.6136 87.0027 33.7736 87.104C33.9389 87.2 34.1282 87.248 34.3416 87.248ZM35.3736 88V86.968L35.5256 86.032L35.3736 85.104V84.16H36.2536V88H35.3736ZM37.7302 88V82.24H38.6102V88H37.7302ZM41.6656 88.08C41.3402 88.08 41.0496 88.008 40.7936 87.864C40.5429 87.72 40.3456 87.5227 40.2016 87.272C40.0629 87.016 39.9936 86.7227 39.9936 86.392V84.16H40.8736V86.352C40.8736 86.5387 40.9029 86.6987 40.9616 86.832C41.0256 86.96 41.1162 87.0587 41.2336 87.128C41.3562 87.1973 41.5002 87.232 41.6656 87.232C41.9216 87.232 42.1162 87.1573 42.2496 87.008C42.3882 86.8533 42.4576 86.6347 42.4576 86.352V84.16H43.3376V86.392C43.3376 86.728 43.2656 87.024 43.1216 87.28C42.9829 87.5307 42.7882 87.728 42.5376 87.872C42.2869 88.0107 41.9962 88.08 41.6656 88.08ZM46.3304 88.08C45.9837 88.08 45.669 87.992 45.3864 87.816C45.109 87.64 44.8877 87.4027 44.7224 87.104C44.5624 86.8 44.4824 86.4613 44.4824 86.088C44.4824 85.7093 44.5624 85.3707 44.7224 85.072C44.8877 84.768 45.109 84.528 45.3864 84.352C45.669 84.1707 45.9837 84.08 46.3304 84.08C46.6237 84.08 46.8824 84.144 47.1064 84.272C47.3357 84.3947 47.517 84.5653 47.6504 84.784C47.7837 85.0027 47.8504 85.2507 47.8504 85.528V86.632C47.8504 86.9093 47.7837 87.1573 47.6504 87.376C47.5224 87.5947 47.3437 87.768 47.1144 87.896C46.885 88.0187 46.6237 88.08 46.3304 88.08ZM46.4744 87.248C46.7997 87.248 47.061 87.1387 47.2584 86.92C47.461 86.7013 47.5624 86.4213 47.5624 86.08C47.5624 85.8507 47.517 85.648 47.4264 85.472C47.3357 85.296 47.2077 85.16 47.0424 85.064C46.8824 84.9627 46.693 84.912 46.4744 84.912C46.261 84.912 46.0717 84.9627 45.9064 85.064C45.7464 85.16 45.6184 85.296 45.5224 85.472C45.4317 85.648 45.3864 85.8507 45.3864 86.08C45.3864 86.3093 45.4317 86.512 45.5224 86.688C45.6184 86.864 45.7464 87.0027 45.9064 87.104C46.0717 87.2 46.261 87.248 46.4744 87.248ZM47.5064 88V86.968L47.6584 86.032L47.5064 85.104V84.16H48.3864V88H47.5064ZM50.447 88V82.56H51.327V88H50.447ZM49.527 84.96V84.16H52.247V84.96H49.527ZM53.3944 88V84.16H54.2744V88H53.3944ZM53.8344 83.456C53.6851 83.456 53.5598 83.4053 53.4584 83.304C53.3624 83.2027 53.3144 83.0773 53.3144 82.928C53.3144 82.7787 53.3624 82.6533 53.4584 82.552C53.5598 82.4507 53.6851 82.4 53.8344 82.4C53.9891 82.4 54.1144 82.4507 54.2104 82.552C54.3064 82.6533 54.3544 82.7787 54.3544 82.928C54.3544 83.0773 54.3064 83.2027 54.2104 83.304C54.1144 83.4053 53.9891 83.456 53.8344 83.456ZM57.5214 88.08C57.1481 88.08 56.8094 87.992 56.5054 87.816C56.2014 87.6347 55.9588 87.392 55.7774 87.088C55.6014 86.784 55.5134 86.4453 55.5134 86.072C55.5134 85.6987 55.6014 85.3627 55.7774 85.064C55.9588 84.7653 56.2014 84.528 56.5054 84.352C56.8094 84.1707 57.1481 84.08 57.5214 84.08C57.9001 84.08 58.2414 84.168 58.5454 84.344C58.8494 84.52 59.0894 84.76 59.2654 85.064C59.4468 85.3627 59.5374 85.6987 59.5374 86.072C59.5374 86.4453 59.4468 86.784 59.2654 87.088C59.0894 87.392 58.8494 87.6347 58.5454 87.816C58.2414 87.992 57.9001 88.08 57.5214 88.08ZM57.5214 87.232C57.7401 87.232 57.9321 87.184 58.0974 87.088C58.2681 86.9867 58.3988 86.848 58.4894 86.672C58.5854 86.496 58.6334 86.296 58.6334 86.072C58.6334 85.848 58.5854 85.6507 58.4894 85.48C58.3934 85.3093 58.2628 85.176 58.0974 85.08C57.9321 84.9787 57.7401 84.928 57.5214 84.928C57.3081 84.928 57.1161 84.9787 56.9454 85.08C56.7801 85.176 56.6494 85.3093 56.5534 85.48C56.4628 85.6507 56.4174 85.848 56.4174 86.072C56.4174 86.296 56.4628 86.496 56.5534 86.672C56.6494 86.848 56.7801 86.9867 56.9454 87.088C57.1161 87.184 57.3081 87.232 57.5214 87.232ZM63.4013 88V85.784C63.4013 85.528 63.3186 85.3173 63.1533 85.152C62.9933 84.9867 62.7853 84.904 62.5293 84.904C62.3586 84.904 62.2066 84.9413 62.0733 85.016C61.9399 85.0907 61.8359 85.1947 61.7613 85.328C61.6866 85.4613 61.6493 85.6133 61.6493 85.784L61.3053 85.592C61.3053 85.2987 61.3693 85.04 61.4973 84.816C61.6253 84.5867 61.8013 84.408 62.0253 84.28C62.2546 84.1467 62.5106 84.08 62.7933 84.08C63.0813 84.08 63.3373 84.1547 63.5613 84.304C63.7853 84.448 63.9613 84.6373 64.0893 84.872C64.2173 85.1013 64.2812 85.3413 64.2812 85.592V88H63.4013ZM60.7693 88V84.16H61.6493V88H60.7693ZM67.8971 88V82.4H68.8171V88H67.8971ZM68.5291 88V87.16H71.6651V88H68.5291ZM68.5291 85.544V84.736H71.3931V85.544H68.5291ZM68.5291 83.24V82.4H71.6251V83.24H68.5291ZM75.4278 88L74.3238 86.376L74.1638 86.232L72.6758 84.16H73.7398L74.7238 85.584L74.8758 85.72L76.4838 88H75.4278ZM72.6038 88L74.1558 85.848L74.6678 86.48L73.6278 88H72.6038ZM74.9558 86.216L74.4358 85.592L75.3958 84.16H76.4118L74.9558 86.216ZM79.0648 88.08C78.7181 88.08 78.4034 87.992 78.1208 87.816C77.8434 87.64 77.6221 87.4027 77.4568 87.104C77.2968 86.8 77.2168 86.4613 77.2168 86.088C77.2168 85.7093 77.2968 85.3707 77.4568 85.072C77.6221 84.768 77.8434 84.528 78.1208 84.352C78.4034 84.1707 78.7181 84.08 79.0648 84.08C79.3581 84.08 79.6168 84.144 79.8408 84.272C80.0701 84.3947 80.2514 84.5653 80.3848 84.784C80.5181 85.0027 80.5848 85.2507 80.5848 85.528V86.632C80.5848 86.9093 80.5181 87.1573 80.3848 87.376C80.2568 87.5947 80.0781 87.768 79.8488 87.896C79.6194 88.0187 79.3581 88.08 79.0648 88.08ZM79.2088 87.248C79.5341 87.248 79.7954 87.1387 79.9928 86.92C80.1954 86.7013 80.2968 86.4213 80.2968 86.08C80.2968 85.8507 80.2514 85.648 80.1608 85.472C80.0701 85.296 79.9421 85.16 79.7768 85.064C79.6168 84.9627 79.4274 84.912 79.2088 84.912C78.9954 84.912 78.8061 84.9627 78.6408 85.064C78.4808 85.16 78.3528 85.296 78.2568 85.472C78.1661 85.648 78.1208 85.8507 78.1208 86.08C78.1208 86.3093 78.1661 86.512 78.2568 86.688C78.3528 86.864 78.4808 87.0027 78.6408 87.104C78.8061 87.2 78.9954 87.248 79.2088 87.248ZM80.2408 88V86.968L80.3928 86.032L80.2408 85.104V84.16H81.1208V88H80.2408ZM82.5974 88V84.16H83.4774V88H82.5974ZM85.1494 88V85.712C85.1494 85.456 85.0694 85.2587 84.9094 85.12C84.7494 84.976 84.552 84.904 84.3174 84.904C84.1574 84.904 84.0134 84.936 83.8854 85C83.7627 85.064 83.664 85.1573 83.5894 85.28C83.5147 85.3973 83.4774 85.5413 83.4774 85.712L83.1334 85.52C83.1334 85.2267 83.1974 84.9733 83.3254 84.76C83.4534 84.5467 83.6267 84.3813 83.8454 84.264C84.064 84.1413 84.3094 84.08 84.5814 84.08C84.8534 84.08 85.0987 84.1387 85.3174 84.256C85.536 84.3733 85.7094 84.5387 85.8374 84.752C85.9654 84.9653 86.0294 85.2213 86.0294 85.52V88H85.1494ZM87.7014 88V85.712C87.7014 85.456 87.6214 85.2587 87.4614 85.12C87.3014 84.976 87.104 84.904 86.8694 84.904C86.7147 84.904 86.5734 84.936 86.4454 85C86.3174 85.064 86.216 85.1573 86.1414 85.28C86.0667 85.3973 86.0294 85.5413 86.0294 85.712L85.5334 85.52C85.56 85.2267 85.6454 84.9733 85.7894 84.76C85.9334 84.5467 86.1174 84.3813 86.3414 84.264C86.5707 84.1413 86.8214 84.08 87.0934 84.08C87.3707 84.08 87.6214 84.1387 87.8454 84.256C88.0694 84.3733 88.248 84.5387 88.3814 84.752C88.5147 84.9653 88.5814 85.2213 88.5814 85.52V88H87.7014Z" fill="white"/>
</g>
<g filter="url(#filter1_d_1124_463)">
<path d="M267.208 69.0294C267.608 68.5094 268.392 68.5094 268.792 69.0294L271.957 73.14C272.463 73.7976 271.994 74.75 271.164 74.75L264.836 74.75C264.006 74.75 263.537 73.7976 264.043 73.14L267.208 69.0294Z" fill="#17346D"/>
<rect x="210" y="72" width="116" height="26" rx="6" fill="#17346D"/>
<path d="M224.481 88.08C224.038 88.08 223.662 88 223.353 87.84C223.043 87.68 222.766 87.4453 222.521 87.136L223.145 86.512C223.299 86.736 223.483 86.912 223.697 87.04C223.91 87.1627 224.182 87.224 224.513 87.224C224.822 87.224 225.067 87.16 225.249 87.032C225.435 86.904 225.529 86.728 225.529 86.504C225.529 86.3173 225.481 86.1653 225.385 86.048C225.289 85.9307 225.161 85.8347 225.001 85.76C224.846 85.68 224.673 85.6107 224.481 85.552C224.294 85.488 224.105 85.4187 223.913 85.344C223.726 85.264 223.553 85.1653 223.393 85.048C223.238 84.9307 223.113 84.7787 223.017 84.592C222.921 84.4053 222.873 84.168 222.873 83.88C222.873 83.5493 222.953 83.2693 223.113 83.04C223.278 82.8053 223.499 82.6267 223.777 82.504C224.054 82.3813 224.363 82.32 224.705 82.32C225.073 82.32 225.401 82.392 225.689 82.536C225.982 82.68 226.219 82.864 226.401 83.088L225.777 83.712C225.617 83.5307 225.449 83.3973 225.273 83.312C225.102 83.2213 224.905 83.176 224.681 83.176C224.403 83.176 224.185 83.232 224.025 83.344C223.87 83.456 223.793 83.6133 223.793 83.816C223.793 83.9867 223.841 84.1253 223.937 84.232C224.033 84.3333 224.158 84.4213 224.312 84.496C224.473 84.5653 224.646 84.632 224.833 84.696C225.025 84.76 225.214 84.832 225.401 84.912C225.593 84.992 225.766 85.096 225.921 85.224C226.081 85.3467 226.209 85.5067 226.305 85.704C226.401 85.9013 226.449 86.1493 226.449 86.448C226.449 86.9493 226.27 87.3467 225.913 87.64C225.561 87.9333 225.083 88.08 224.481 88.08ZM229.483 88.08C229.099 88.08 228.752 87.9947 228.443 87.824C228.139 87.648 227.896 87.408 227.715 87.104C227.539 86.8 227.451 86.4587 227.451 86.08C227.451 85.7013 227.539 85.3627 227.715 85.064C227.891 84.76 228.128 84.52 228.427 84.344C228.731 84.168 229.067 84.08 229.435 84.08C229.792 84.08 230.107 84.1627 230.379 84.328C230.656 84.4933 230.872 84.72 231.027 85.008C231.187 85.296 231.267 85.624 231.267 85.992C231.267 86.056 231.262 86.1227 231.251 86.192C231.246 86.256 231.235 86.328 231.219 86.408H228.067V85.688H230.763L230.435 85.976C230.424 85.7413 230.379 85.544 230.299 85.384C230.219 85.224 230.104 85.1013 229.955 85.016C229.811 84.9307 229.632 84.888 229.419 84.888C229.195 84.888 229 84.936 228.835 85.032C228.67 85.128 228.542 85.264 228.451 85.44C228.36 85.6107 228.315 85.816 228.315 86.056C228.315 86.296 228.363 86.5067 228.459 86.688C228.555 86.8693 228.691 87.0107 228.867 87.112C229.043 87.208 229.246 87.256 229.475 87.256C229.672 87.256 229.854 87.2213 230.019 87.152C230.19 87.0827 230.334 86.9813 230.451 86.848L231.011 87.416C230.824 87.6347 230.598 87.8 230.331 87.912C230.064 88.024 229.782 88.08 229.483 88.08ZM233.728 88.08C233.515 88.08 233.31 88.0533 233.112 88C232.915 87.9413 232.734 87.8613 232.568 87.76C232.403 87.6533 232.259 87.5253 232.136 87.376L232.696 86.816C232.83 86.9707 232.982 87.088 233.152 87.168C233.328 87.2427 233.526 87.28 233.744 87.28C233.942 87.28 234.091 87.2507 234.192 87.192C234.294 87.1333 234.344 87.048 234.344 86.936C234.344 86.8187 234.296 86.728 234.2 86.664C234.104 86.6 233.979 86.5467 233.824 86.504C233.675 86.456 233.515 86.408 233.344 86.36C233.179 86.312 233.019 86.248 232.864 86.168C232.715 86.0827 232.592 85.968 232.496 85.824C232.4 85.68 232.352 85.4933 232.352 85.264C232.352 85.0187 232.408 84.808 232.52 84.632C232.638 84.456 232.8 84.32 233.008 84.224C233.222 84.128 233.475 84.08 233.768 84.08C234.078 84.08 234.35 84.136 234.584 84.248C234.824 84.3547 235.024 84.5173 235.184 84.736L234.624 85.296C234.512 85.1573 234.384 85.0533 234.24 84.984C234.096 84.9147 233.931 84.88 233.744 84.88C233.568 84.88 233.432 84.9067 233.336 84.96C233.24 85.0133 233.192 85.0907 233.192 85.192C233.192 85.2987 233.24 85.3813 233.336 85.44C233.432 85.4987 233.555 85.5493 233.704 85.592C233.859 85.6347 234.019 85.6827 234.184 85.736C234.355 85.784 234.515 85.8533 234.664 85.944C234.819 86.0293 234.944 86.1467 235.04 86.296C235.136 86.44 235.184 86.6293 235.184 86.864C235.184 87.2373 235.054 87.5333 234.792 87.752C234.531 87.9707 234.176 88.08 233.728 88.08ZM237.666 88.08C237.453 88.08 237.247 88.0533 237.05 88C236.853 87.9413 236.671 87.8613 236.506 87.76C236.341 87.6533 236.197 87.5253 236.074 87.376L236.634 86.816C236.767 86.9707 236.919 87.088 237.09 87.168C237.266 87.2427 237.463 87.28 237.682 87.28C237.879 87.28 238.029 87.2507 238.13 87.192C238.231 87.1333 238.282 87.048 238.282 86.936C238.282 86.8187 238.234 86.728 238.138 86.664C238.042 86.6 237.917 86.5467 237.762 86.504C237.613 86.456 237.453 86.408 237.282 86.36C237.117 86.312 236.957 86.248 236.802 86.168C236.653 86.0827 236.53 85.968 236.434 85.824C236.338 85.68 236.29 85.4933 236.29 85.264C236.29 85.0187 236.346 84.808 236.458 84.632C236.575 84.456 236.738 84.32 236.946 84.224C237.159 84.128 237.413 84.08 237.706 84.08C238.015 84.08 238.287 84.136 238.522 84.248C238.762 84.3547 238.962 84.5173 239.122 84.736L238.562 85.296C238.45 85.1573 238.322 85.0533 238.178 84.984C238.034 84.9147 237.869 84.88 237.682 84.88C237.506 84.88 237.37 84.9067 237.274 84.96C237.178 85.0133 237.13 85.0907 237.13 85.192C237.13 85.2987 237.178 85.3813 237.274 85.44C237.37 85.4987 237.493 85.5493 237.642 85.592C237.797 85.6347 237.957 85.6827 238.122 85.736C238.293 85.784 238.453 85.8533 238.602 85.944C238.757 86.0293 238.882 86.1467 238.978 86.296C239.074 86.44 239.122 86.6293 239.122 86.864C239.122 87.2373 238.991 87.5333 238.73 87.752C238.469 87.9707 238.114 88.08 237.666 88.08ZM240.355 88V84.16H241.235V88H240.355ZM240.795 83.456C240.646 83.456 240.521 83.4053 240.419 83.304C240.323 83.2027 240.275 83.0773 240.275 82.928C240.275 82.7787 240.323 82.6533 240.419 82.552C240.521 82.4507 240.646 82.4 240.795 82.4C240.95 82.4 241.075 82.4507 241.171 82.552C241.267 82.6533 241.315 82.7787 241.315 82.928C241.315 83.0773 241.267 83.2027 241.171 83.304C241.075 83.4053 240.95 83.456 240.795 83.456ZM244.482 88.08C244.109 88.08 243.77 87.992 243.466 87.816C243.162 87.6347 242.92 87.392 242.738 87.088C242.562 86.784 242.474 86.4453 242.474 86.072C242.474 85.6987 242.562 85.3627 242.738 85.064C242.92 84.7653 243.162 84.528 243.466 84.352C243.77 84.1707 244.109 84.08 244.482 84.08C244.861 84.08 245.202 84.168 245.506 84.344C245.81 84.52 246.05 84.76 246.226 85.064C246.408 85.3627 246.498 85.6987 246.498 86.072C246.498 86.4453 246.408 86.784 246.226 87.088C246.05 87.392 245.81 87.6347 245.506 87.816C245.202 87.992 244.861 88.08 244.482 88.08ZM244.482 87.232C244.701 87.232 244.893 87.184 245.058 87.088C245.229 86.9867 245.36 86.848 245.45 86.672C245.546 86.496 245.594 86.296 245.594 86.072C245.594 85.848 245.546 85.6507 245.45 85.48C245.354 85.3093 245.224 85.176 245.058 85.08C244.893 84.9787 244.701 84.928 244.482 84.928C244.269 84.928 244.077 84.9787 243.906 85.08C243.741 85.176 243.61 85.3093 243.514 85.48C243.424 85.6507 243.378 85.848 243.378 86.072C243.378 86.296 243.424 86.496 243.514 86.672C243.61 86.848 243.741 86.9867 243.906 87.088C244.077 87.184 244.269 87.232 244.482 87.232ZM250.362 88V85.784C250.362 85.528 250.28 85.3173 250.114 85.152C249.954 84.9867 249.746 84.904 249.49 84.904C249.32 84.904 249.168 84.9413 249.034 85.016C248.901 85.0907 248.797 85.1947 248.722 85.328C248.648 85.4613 248.61 85.6133 248.61 85.784L248.266 85.592C248.266 85.2987 248.33 85.04 248.458 84.816C248.586 84.5867 248.762 84.408 248.986 84.28C249.216 84.1467 249.472 84.08 249.754 84.08C250.042 84.08 250.298 84.1547 250.522 84.304C250.746 84.448 250.922 84.6373 251.05 84.872C251.178 85.1013 251.242 85.3413 251.242 85.592V88H250.362ZM247.73 88V84.16H248.61V88H247.73ZM255.49 85.888V85.088H256.89C257.082 85.088 257.25 85.0507 257.394 84.976C257.543 84.896 257.661 84.7867 257.746 84.648C257.831 84.504 257.874 84.336 257.874 84.144C257.874 83.952 257.831 83.7867 257.746 83.648C257.661 83.504 257.543 83.3947 257.394 83.32C257.25 83.24 257.082 83.2 256.89 83.2H255.49V82.4H256.938C257.29 82.4 257.605 82.472 257.882 82.616C258.165 82.76 258.386 82.9627 258.546 83.224C258.711 83.4853 258.794 83.792 258.794 84.144C258.794 84.496 258.711 84.8027 258.546 85.064C258.386 85.3253 258.165 85.528 257.882 85.672C257.605 85.816 257.29 85.888 256.938 85.888H255.49ZM254.858 88V82.4H255.778V88H254.858ZM260.066 88V82.24H260.946V88H260.066ZM264.034 88.08C263.687 88.08 263.372 87.992 263.09 87.816C262.812 87.64 262.591 87.4027 262.426 87.104C262.266 86.8 262.186 86.4613 262.186 86.088C262.186 85.7093 262.266 85.3707 262.426 85.072C262.591 84.768 262.812 84.528 263.09 84.352C263.372 84.1707 263.687 84.08 264.034 84.08C264.327 84.08 264.586 84.144 264.81 84.272C265.039 84.3947 265.22 84.5653 265.354 84.784C265.487 85.0027 265.554 85.2507 265.554 85.528V86.632C265.554 86.9093 265.487 87.1573 265.354 87.376C265.226 87.5947 265.047 87.768 264.818 87.896C264.588 88.0187 264.327 88.08 264.034 88.08ZM264.178 87.248C264.503 87.248 264.764 87.1387 264.962 86.92C265.164 86.7013 265.266 86.4213 265.266 86.08C265.266 85.8507 265.22 85.648 265.13 85.472C265.039 85.296 264.911 85.16 264.746 85.064C264.586 84.9627 264.396 84.912 264.178 84.912C263.964 84.912 263.775 84.9627 263.61 85.064C263.45 85.16 263.322 85.296 263.226 85.472C263.135 85.648 263.09 85.8507 263.09 86.08C263.09 86.3093 263.135 86.512 263.226 86.688C263.322 86.864 263.45 87.0027 263.61 87.104C263.775 87.2 263.964 87.248 264.178 87.248ZM265.21 88V86.968L265.362 86.032L265.21 85.104V84.16H266.09V88H265.21ZM270.198 88V85.784C270.198 85.528 270.115 85.3173 269.95 85.152C269.79 84.9867 269.582 84.904 269.326 84.904C269.155 84.904 269.003 84.9413 268.87 85.016C268.737 85.0907 268.633 85.1947 268.558 85.328C268.483 85.4613 268.446 85.6133 268.446 85.784L268.102 85.592C268.102 85.2987 268.166 85.04 268.294 84.816C268.422 84.5867 268.598 84.408 268.822 84.28C269.051 84.1467 269.307 84.08 269.59 84.08C269.878 84.08 270.134 84.1547 270.358 84.304C270.582 84.448 270.758 84.6373 270.886 84.872C271.014 85.1013 271.078 85.3413 271.078 85.592V88H270.198ZM267.566 88V84.16H268.446V88H267.566ZM274.51 85.72V84.92H278.038V85.72H274.51ZM275.87 83.472H276.686V87.16H275.87V83.472ZM282.303 85.888V85.088H283.703C283.895 85.088 284.063 85.0507 284.207 84.976C284.356 84.896 284.473 84.7867 284.559 84.648C284.644 84.504 284.687 84.336 284.687 84.144C284.687 83.952 284.644 83.7867 284.559 83.648C284.473 83.504 284.356 83.3947 284.207 83.32C284.063 83.24 283.895 83.2 283.703 83.2H282.303V82.4H283.751C284.103 82.4 284.417 82.472 284.695 82.616C284.977 82.76 285.199 82.9627 285.359 83.224C285.524 83.4853 285.607 83.792 285.607 84.144C285.607 84.496 285.524 84.8027 285.359 85.064C285.199 85.3253 284.977 85.528 284.695 85.672C284.417 85.816 284.103 85.888 283.751 85.888H282.303ZM281.671 88V82.4H282.591V88H281.671ZM286.879 88V84.16H287.759V88H286.879ZM287.759 85.864L287.455 85.712C287.455 85.2267 287.561 84.8347 287.775 84.536C287.993 84.232 288.321 84.08 288.759 84.08C288.951 84.08 289.124 84.1147 289.279 84.184C289.433 84.2533 289.577 84.3653 289.711 84.52L289.135 85.112C289.065 85.0373 288.988 84.984 288.903 84.952C288.817 84.92 288.719 84.904 288.607 84.904C288.361 84.904 288.159 84.9813 287.999 85.136C287.839 85.2907 287.759 85.5333 287.759 85.864ZM292.127 88.08C291.781 88.08 291.466 87.992 291.183 87.816C290.906 87.64 290.685 87.4027 290.519 87.104C290.359 86.8 290.279 86.4613 290.279 86.088C290.279 85.7093 290.359 85.3707 290.519 85.072C290.685 84.768 290.906 84.528 291.183 84.352C291.466 84.1707 291.781 84.08 292.127 84.08C292.421 84.08 292.679 84.144 292.903 84.272C293.133 84.3947 293.314 84.5653 293.447 84.784C293.581 85.0027 293.647 85.2507 293.647 85.528V86.632C293.647 86.9093 293.581 87.1573 293.447 87.376C293.319 87.5947 293.141 87.768 292.911 87.896C292.682 88.0187 292.421 88.08 292.127 88.08ZM292.271 87.248C292.597 87.248 292.858 87.1387 293.055 86.92C293.258 86.7013 293.359 86.4213 293.359 86.08C293.359 85.8507 293.314 85.648 293.223 85.472C293.133 85.296 293.005 85.16 292.839 85.064C292.679 84.9627 292.49 84.912 292.271 84.912C292.058 84.912 291.869 84.9627 291.703 85.064C291.543 85.16 291.415 85.296 291.319 85.472C291.229 85.648 291.183 85.8507 291.183 86.08C291.183 86.3093 291.229 86.512 291.319 86.688C291.415 86.864 291.543 87.0027 291.703 87.104C291.869 87.2 292.058 87.248 292.271 87.248ZM293.303 88V86.968L293.455 86.032L293.303 85.104V84.16H294.183V88H293.303ZM297.428 88.08C297.049 88.08 296.705 87.992 296.396 87.816C296.092 87.64 295.852 87.4 295.676 87.096C295.5 86.792 295.412 86.4533 295.412 86.08C295.412 85.7013 295.5 85.3627 295.676 85.064C295.852 84.76 296.092 84.52 296.396 84.344C296.705 84.168 297.049 84.08 297.428 84.08C297.727 84.08 298.004 84.1387 298.26 84.256C298.521 84.368 298.743 84.5307 298.924 84.744L298.348 85.328C298.236 85.1947 298.1 85.096 297.94 85.032C297.785 84.9627 297.615 84.928 297.428 84.928C297.209 84.928 297.015 84.9787 296.844 85.08C296.679 85.176 296.548 85.3093 296.452 85.48C296.361 85.6507 296.316 85.8507 296.316 86.08C296.316 86.304 296.361 86.504 296.452 86.68C296.548 86.8507 296.679 86.9867 296.844 87.088C297.015 87.184 297.209 87.232 297.428 87.232C297.615 87.232 297.785 87.2 297.94 87.136C298.1 87.0667 298.236 86.9653 298.348 86.832L298.924 87.416C298.743 87.6293 298.521 87.7947 298.26 87.912C298.004 88.024 297.727 88.08 297.428 88.08ZM300.58 88V82.56H301.46V88H300.58ZM299.66 84.96V84.16H302.38V84.96H299.66ZM303.527 88V84.16H304.407V88H303.527ZM303.967 83.456C303.818 83.456 303.693 83.4053 303.591 83.304C303.495 83.2027 303.447 83.0773 303.447 82.928C303.447 82.7787 303.495 82.6533 303.591 82.552C303.693 82.4507 303.818 82.4 303.967 82.4C304.122 82.4 304.247 82.4507 304.343 82.552C304.439 82.6533 304.487 82.7787 304.487 82.928C304.487 83.0773 304.439 83.2027 304.343 83.304C304.247 83.4053 304.122 83.456 303.967 83.456ZM307.662 88.08C307.284 88.08 306.94 87.992 306.63 87.816C306.326 87.64 306.086 87.4 305.91 87.096C305.734 86.792 305.646 86.4533 305.646 86.08C305.646 85.7013 305.734 85.3627 305.91 85.064C306.086 84.76 306.326 84.52 306.63 84.344C306.94 84.168 307.284 84.08 307.662 84.08C307.961 84.08 308.238 84.1387 308.494 84.256C308.756 84.368 308.977 84.5307 309.158 84.744L308.582 85.328C308.47 85.1947 308.334 85.096 308.174 85.032C308.02 84.9627 307.849 84.928 307.662 84.928C307.444 84.928 307.249 84.9787 307.078 85.08C306.913 85.176 306.782 85.3093 306.686 85.48C306.596 85.6507 306.55 85.8507 306.55 86.08C306.55 86.304 306.596 86.504 306.686 86.68C306.782 86.8507 306.913 86.9867 307.078 87.088C307.249 87.184 307.444 87.232 307.662 87.232C307.849 87.232 308.02 87.2 308.174 87.136C308.334 87.0667 308.47 86.9653 308.582 86.832L309.158 87.416C308.977 87.6293 308.756 87.7947 308.494 87.912C308.238 88.024 307.961 88.08 307.662 88.08ZM311.999 88.08C311.615 88.08 311.268 87.9947 310.959 87.824C310.655 87.648 310.412 87.408 310.231 87.104C310.055 86.8 309.967 86.4587 309.967 86.08C309.967 85.7013 310.055 85.3627 310.231 85.064C310.407 84.76 310.644 84.52 310.943 84.344C311.247 84.168 311.583 84.08 311.951 84.08C312.308 84.08 312.623 84.1627 312.895 84.328C313.172 84.4933 313.388 84.72 313.543 85.008C313.703 85.296 313.783 85.624 313.783 85.992C313.783 86.056 313.777 86.1227 313.767 86.192C313.761 86.256 313.751 86.328 313.735 86.408H310.583V85.688H313.279L312.951 85.976C312.94 85.7413 312.895 85.544 312.815 85.384C312.735 85.224 312.62 85.1013 312.471 85.016C312.327 84.9307 312.148 84.888 311.935 84.888C311.711 84.888 311.516 84.936 311.351 85.032C311.185 85.128 311.057 85.264 310.967 85.44C310.876 85.6107 310.831 85.816 310.831 86.056C310.831 86.296 310.879 86.5067 310.975 86.688C311.071 86.8693 311.207 87.0107 311.383 87.112C311.559 87.208 311.761 87.256 311.991 87.256C312.188 87.256 312.369 87.2213 312.535 87.152C312.705 87.0827 312.849 86.9813 312.967 86.848L313.527 87.416C313.34 87.6347 313.113 87.8 312.847 87.912C312.58 88.024 312.297 88.08 311.999 88.08Z" fill="white"/>
</g>
<defs>
<filter id="filter0_d_1124_463" x="6" y="66" width="99" height="38" filterUnits="userSpaceOnUse" color-interpolation-filters="sRGB">
<feFlood flood-opacity="0" result="BackgroundImageFix"/>
<feColorMatrix in="SourceAlpha" type="matrix" values="0 0 0 0 0 0 0 0 0 0 0 0 0 0 0 0 0 0 127 0" result="hardAlpha"/>
<feOffset dy="2"/>
<feGaussianBlur stdDeviation="2"/>
<feComposite in2="hardAlpha" operator="out"/>
<feColorMatrix type="matrix" values="0 0 0 0 0.321569 0 0 0 0 0.321569 0 0 0 0 0.321569 0 0 0 0.32 0"/>
<feBlend mode="normal" in2="BackgroundImageFix" result="effect1_dropShadow_1124_463"/>
<feBlend mode="normal" in="SourceGraphic" in2="effect1_dropShadow_1124_463" result="shape"/>
</filter>
<filter id="filter1_d_1124_463" x="206" y="66" width="124" height="38" filterUnits="userSpaceOnUse" color-interpolation-filters="sRGB">
<feFlood flood-opacity="0" result="BackgroundImageFix"/>
<feColorMatrix in="SourceAlpha" type="matrix" values="0 0 0 0 0 0 0 0 0 0 0 0 0 0 0 0 0 0 127 0" result="hardAlpha"/>
<feOffset dy="2"/>
<feGaussianBlur stdDeviation="2"/>
<feComposite in2="hardAlpha" operator="out"/>
<feColorMatrix type="matrix" values="0 0 0 0 0.321569 0 0 0 0 0.321569 0 0 0 0 0.321569 0 0 0 0.32 0"/>
<feBlend mode="normal" in2="BackgroundImageFix" result="effect1_dropShadow_1124_463"/>
<feBlend mode="normal" in="SourceGraphic" in2="effect1_dropShadow_1124_463" result="shape"/>
</filter>
</defs>
</svg>
