<svg width="328" height="80" viewBox="0 0 328 80" fill="none" xmlns="http://www.w3.org/2000/svg">
<rect x="2" y="2" width="324" height="76" rx="6" fill="white"/>
<rect x="2" y="2" width="324" height="76" rx="6" stroke="#E1CFFF" stroke-width="4"/>
<rect width="58" height="1" transform="translate(47.9961 31)" fill="#7A4BEC"/>
<rect width="58" height="1" transform="translate(105.996 31)" fill="#0F62FE"/>
<rect width="58" height="1" transform="translate(163.996 31)" fill="#7A4BEC"/>
<rect width="58" height="1" transform="translate(221.996 31)" fill="#7A4BEC"/>
<rect x="38" y="21" width="20" height="20" rx="10" fill="#7A4BEC"/>
<path d="M47.053 33.3867C46.9196 33.3867 46.793 33.3334 46.6996 33.2401L44.813 31.3534C44.6196 31.1601 44.6196 30.8401 44.813 30.6467C45.0063 30.4534 45.3263 30.4534 45.5196 30.6467L47.053 32.1801L50.4796 28.7534C50.673 28.5601 50.993 28.5601 51.1863 28.7534C51.3796 28.9467 51.3796 29.2667 51.1863 29.4601L47.4063 33.2401C47.313 33.3334 47.1863 33.3867 47.053 33.3867Z" fill="white"/>
<path d="M23.4328 55V53.95H25.2728C25.7528 53.95 26.1728 53.8467 26.5328 53.64C26.8995 53.4333 27.1828 53.1467 27.3828 52.78C27.5895 52.4067 27.6928 51.9767 27.6928 51.49C27.6928 51.01 27.5895 50.5867 27.3828 50.22C27.1761 49.8533 26.8895 49.5667 26.5228 49.36C26.1628 49.1533 25.7461 49.05 25.2728 49.05H23.4328V48H25.3028C25.8095 48 26.2795 48.09 26.7128 48.27C27.1461 48.4433 27.5228 48.69 27.8428 49.01C28.1695 49.3233 28.4228 49.6933 28.6028 50.12C28.7828 50.54 28.8728 51 28.8728 51.5C28.8728 51.9933 28.7828 52.4533 28.6028 52.88C28.4228 53.3067 28.1728 53.68 27.8528 54C27.5328 54.3133 27.1561 54.56 26.7228 54.74C26.2895 54.9133 25.8228 55 25.3228 55H23.4328ZM22.6428 55V48H23.7928V55H22.6428ZM30.4052 55V50.2H31.5052V55H30.4052ZM30.9552 49.32C30.7685 49.32 30.6118 49.2567 30.4852 49.13C30.3652 49.0033 30.3052 48.8467 30.3052 48.66C30.3052 48.4733 30.3652 48.3167 30.4852 48.19C30.6118 48.0633 30.7685 48 30.9552 48C31.1485 48 31.3052 48.0633 31.4252 48.19C31.5452 48.3167 31.6052 48.4733 31.6052 48.66C31.6052 48.8467 31.5452 49.0033 31.4252 49.13C31.3052 49.2567 31.1485 49.32 30.9552 49.32ZM35.2489 55.1C34.8156 55.1 34.4222 54.99 34.0689 54.77C33.7222 54.55 33.4456 54.2533 33.2389 53.88C33.0389 53.5 32.9389 53.0767 32.9389 52.61C32.9389 52.1367 33.0389 51.7133 33.2389 51.34C33.4456 50.96 33.7222 50.66 34.0689 50.44C34.4222 50.2133 34.8156 50.1 35.2489 50.1C35.6156 50.1 35.9389 50.18 36.2189 50.34C36.5056 50.4933 36.7322 50.7067 36.8989 50.98C37.0656 51.2533 37.1489 51.5633 37.1489 51.91V53.29C37.1489 53.6367 37.0656 53.9467 36.8989 54.22C36.7389 54.4933 36.5156 54.71 36.2289 54.87C35.9422 55.0233 35.6156 55.1 35.2489 55.1ZM35.4289 54.06C35.8356 54.06 36.1622 53.9233 36.4089 53.65C36.6622 53.3767 36.7889 53.0267 36.7889 52.6C36.7889 52.3133 36.7322 52.06 36.6189 51.84C36.5056 51.62 36.3456 51.45 36.1389 51.33C35.9389 51.2033 35.7022 51.14 35.4289 51.14C35.1622 51.14 34.9256 51.2033 34.7189 51.33C34.5189 51.45 34.3589 51.62 34.2389 51.84C34.1256 52.06 34.0689 52.3133 34.0689 52.6C34.0689 52.8867 34.1256 53.14 34.2389 53.36C34.3589 53.58 34.5189 53.7533 34.7189 53.88C34.9256 54 35.1622 54.06 35.4289 54.06ZM36.7189 55V53.71L36.9089 52.54L36.7189 51.38V50.2H37.8189V55H36.7189ZM41.5397 57.1C41.033 57.1 40.5897 57.0067 40.2097 56.82C39.8297 56.64 39.523 56.3833 39.2897 56.05L40.0097 55.33C40.203 55.57 40.423 55.75 40.6697 55.87C40.9164 55.99 41.213 56.05 41.5597 56.05C41.993 56.05 42.3364 55.9367 42.5897 55.71C42.843 55.49 42.9697 55.1867 42.9697 54.8V53.62L43.1597 52.56L42.9697 51.49V50.2H44.0697V54.8C44.0697 55.26 43.963 55.66 43.7497 56C43.5364 56.3467 43.2397 56.6167 42.8597 56.81C42.4797 57.0033 42.0397 57.1 41.5397 57.1ZM41.4897 54.9C41.063 54.9 40.6764 54.7967 40.3297 54.59C39.9897 54.3767 39.7197 54.0867 39.5197 53.72C39.3264 53.3533 39.2297 52.9433 39.2297 52.49C39.2297 52.0367 39.3264 51.63 39.5197 51.27C39.7197 50.91 39.9897 50.6267 40.3297 50.42C40.6764 50.2067 41.063 50.1 41.4897 50.1C41.8697 50.1 42.203 50.1767 42.4897 50.33C42.7764 50.4833 42.9997 50.6967 43.1597 50.97C43.3197 51.2367 43.3997 51.55 43.3997 51.91V53.09C43.3997 53.4433 43.3164 53.7567 43.1497 54.03C42.9897 54.3033 42.7664 54.5167 42.4797 54.67C42.193 54.8233 41.863 54.9 41.4897 54.9ZM41.7097 53.86C41.9764 53.86 42.2097 53.8033 42.4097 53.69C42.6097 53.5767 42.763 53.42 42.8697 53.22C42.983 53.0133 43.0397 52.7733 43.0397 52.5C43.0397 52.2267 42.983 51.99 42.8697 51.79C42.763 51.5833 42.6097 51.4233 42.4097 51.31C42.2097 51.1967 41.9764 51.14 41.7097 51.14C41.443 51.14 41.2064 51.1967 40.9997 51.31C40.7997 51.4233 40.643 51.5833 40.5297 51.79C40.4164 51.99 40.3597 52.2267 40.3597 52.5C40.3597 52.7667 40.4164 53.0033 40.5297 53.21C40.643 53.4167 40.7997 53.5767 40.9997 53.69C41.2064 53.8033 41.443 53.86 41.7097 53.86ZM49.0816 55V52.23C49.0816 51.91 48.9783 51.6467 48.7716 51.44C48.5716 51.2333 48.3116 51.13 47.9916 51.13C47.7783 51.13 47.5883 51.1767 47.4216 51.27C47.255 51.3633 47.125 51.4933 47.0316 51.66C46.9383 51.8267 46.8916 52.0167 46.8916 52.23L46.4616 51.99C46.4616 51.6233 46.5416 51.3 46.7016 51.02C46.8616 50.7333 47.0816 50.51 47.3616 50.35C47.6483 50.1833 47.9683 50.1 48.3216 50.1C48.6816 50.1 49.0016 50.1933 49.2816 50.38C49.5616 50.56 49.7816 50.7967 49.9416 51.09C50.1016 51.3767 50.1816 51.6767 50.1816 51.99V55H49.0816ZM45.7916 55V50.2H46.8916V55H45.7916ZM53.9995 55.1C53.5328 55.1 53.1095 54.99 52.7295 54.77C52.3495 54.5433 52.0461 54.24 51.8195 53.86C51.5995 53.48 51.4895 53.0567 51.4895 52.59C51.4895 52.1233 51.5995 51.7033 51.8195 51.33C52.0461 50.9567 52.3495 50.66 52.7295 50.44C53.1095 50.2133 53.5328 50.1 53.9995 50.1C54.4728 50.1 54.8995 50.21 55.2795 50.43C55.6595 50.65 55.9595 50.95 56.1795 51.33C56.4061 51.7033 56.5195 52.1233 56.5195 52.59C56.5195 53.0567 56.4061 53.48 56.1795 53.86C55.9595 54.24 55.6595 54.5433 55.2795 54.77C54.8995 54.99 54.4728 55.1 53.9995 55.1ZM53.9995 54.04C54.2728 54.04 54.5128 53.98 54.7195 53.86C54.9328 53.7333 55.0961 53.56 55.2095 53.34C55.3295 53.12 55.3895 52.87 55.3895 52.59C55.3895 52.31 55.3295 52.0633 55.2095 51.85C55.0895 51.6367 54.9261 51.47 54.7195 51.35C54.5128 51.2233 54.2728 51.16 53.9995 51.16C53.7328 51.16 53.4928 51.2233 53.2795 51.35C53.0728 51.47 52.9095 51.6367 52.7895 51.85C52.6761 52.0633 52.6195 52.31 52.6195 52.59C52.6195 52.87 52.6761 53.12 52.7895 53.34C52.9095 53.56 53.0728 53.7333 53.2795 53.86C53.4928 53.98 53.7328 54.04 53.9995 54.04ZM59.5042 55.1C59.2376 55.1 58.9809 55.0667 58.7342 55C58.4876 54.9267 58.2609 54.8267 58.0542 54.7C57.8476 54.5667 57.6676 54.4067 57.5142 54.22L58.2142 53.52C58.3809 53.7133 58.5709 53.86 58.7842 53.96C59.0042 54.0533 59.2509 54.1 59.5242 54.1C59.7709 54.1 59.9576 54.0633 60.0842 53.99C60.2109 53.9167 60.2742 53.81 60.2742 53.67C60.2742 53.5233 60.2142 53.41 60.0942 53.33C59.9742 53.25 59.8176 53.1833 59.6242 53.13C59.4376 53.07 59.2376 53.01 59.0242 52.95C58.8176 52.89 58.6176 52.81 58.4242 52.71C58.2376 52.6033 58.0842 52.46 57.9642 52.28C57.8442 52.1 57.7842 51.8667 57.7842 51.58C57.7842 51.2733 57.8542 51.01 57.9942 50.79C58.1409 50.57 58.3442 50.4 58.6042 50.28C58.8709 50.16 59.1876 50.1 59.5542 50.1C59.9409 50.1 60.2809 50.17 60.5742 50.31C60.8742 50.4433 61.1242 50.6467 61.3242 50.92L60.6242 51.62C60.4842 51.4467 60.3242 51.3167 60.1442 51.23C59.9642 51.1433 59.7576 51.1 59.5242 51.1C59.3042 51.1 59.1342 51.1333 59.0142 51.2C58.8942 51.2667 58.8342 51.3633 58.8342 51.49C58.8342 51.6233 58.8942 51.7267 59.0142 51.8C59.1342 51.8733 59.2876 51.9367 59.4742 51.99C59.6676 52.0433 59.8676 52.1033 60.0742 52.17C60.2876 52.23 60.4876 52.3167 60.6742 52.43C60.8676 52.5367 61.0242 52.6833 61.1442 52.87C61.2642 53.05 61.3242 53.2867 61.3242 53.58C61.3242 54.0467 61.1609 54.4167 60.8342 54.69C60.5076 54.9633 60.0642 55.1 59.5042 55.1ZM63.4611 55V48.2H64.5611V55H63.4611ZM62.3111 51.2V50.2H65.7111V51.2H62.3111ZM67.0204 55V50.2H68.1204V55H67.0204ZM67.5704 49.32C67.3837 49.32 67.2271 49.2567 67.1004 49.13C66.9804 49.0033 66.9204 48.8467 66.9204 48.66C66.9204 48.4733 66.9804 48.3167 67.1004 48.19C67.2271 48.0633 67.3837 48 67.5704 48C67.7637 48 67.9204 48.0633 68.0404 48.19C68.1604 48.3167 68.2204 48.4733 68.2204 48.66C68.2204 48.8467 68.1604 49.0033 68.0404 49.13C67.9204 49.2567 67.7637 49.32 67.5704 49.32ZM72.0641 55.1C71.5908 55.1 71.1608 54.99 70.7741 54.77C70.3941 54.55 70.0941 54.25 69.8741 53.87C69.6541 53.49 69.5441 53.0667 69.5441 52.6C69.5441 52.1267 69.6541 51.7033 69.8741 51.33C70.0941 50.95 70.3941 50.65 70.7741 50.43C71.1608 50.21 71.5908 50.1 72.0641 50.1C72.4375 50.1 72.7841 50.1733 73.1041 50.32C73.4308 50.46 73.7075 50.6633 73.9341 50.93L73.2141 51.66C73.0741 51.4933 72.9041 51.37 72.7041 51.29C72.5108 51.2033 72.2975 51.16 72.0641 51.16C71.7908 51.16 71.5475 51.2233 71.3341 51.35C71.1275 51.47 70.9641 51.6367 70.8441 51.85C70.7308 52.0633 70.6741 52.3133 70.6741 52.6C70.6741 52.88 70.7308 53.13 70.8441 53.35C70.9641 53.5633 71.1275 53.7333 71.3341 53.86C71.5475 53.98 71.7908 54.04 72.0641 54.04C72.2975 54.04 72.5108 54 72.7041 53.92C72.9041 53.8333 73.0741 53.7067 73.2141 53.54L73.9341 54.27C73.7075 54.5367 73.4308 54.7433 73.1041 54.89C72.7841 55.03 72.4375 55.1 72.0641 55.1Z" fill="#7849EC"/>
<rect x="96" y="21" width="20" height="20" rx="10" fill="#7A4BEC"/>
<path d="M105.053 33.3867C104.92 33.3867 104.793 33.3334 104.7 33.2401L102.813 31.3534C102.62 31.1601 102.62 30.8401 102.813 30.6467C103.006 30.4534 103.326 30.4534 103.52 30.6467L105.053 32.1801L108.48 28.7534C108.673 28.5601 108.993 28.5601 109.186 28.7534C109.38 28.9467 109.38 29.2667 109.186 29.4601L105.406 33.2401C105.313 33.3334 105.186 33.3867 105.053 33.3867Z" fill="white"/>
<path d="M92.2383 55.1C91.685 55.1 91.215 55 90.8283 54.8C90.4417 54.6 90.095 54.3067 89.7883 53.92L90.5683 53.14C90.7617 53.42 90.9917 53.64 91.2583 53.8C91.525 53.9533 91.865 54.03 92.2783 54.03C92.665 54.03 92.9717 53.95 93.1983 53.79C93.4317 53.63 93.5483 53.41 93.5483 53.13C93.5483 52.8967 93.4883 52.7067 93.3683 52.56C93.2483 52.4133 93.0883 52.2933 92.8883 52.2C92.695 52.1 92.4783 52.0133 92.2383 51.94C92.005 51.86 91.7683 51.7733 91.5283 51.68C91.295 51.58 91.0783 51.4567 90.8783 51.31C90.685 51.1633 90.5283 50.9733 90.4083 50.74C90.2883 50.5067 90.2283 50.21 90.2283 49.85C90.2283 49.4367 90.3283 49.0867 90.5283 48.8C90.735 48.5067 91.0117 48.2833 91.3583 48.13C91.705 47.9767 92.0917 47.9 92.5183 47.9C92.9783 47.9 93.3883 47.99 93.7483 48.17C94.115 48.35 94.4117 48.58 94.6383 48.86L93.8583 49.64C93.6583 49.4133 93.4483 49.2467 93.2283 49.14C93.015 49.0267 92.7683 48.97 92.4883 48.97C92.1417 48.97 91.8683 49.04 91.6683 49.18C91.475 49.32 91.3783 49.5167 91.3783 49.77C91.3783 49.9833 91.4383 50.1567 91.5583 50.29C91.6783 50.4167 91.835 50.5267 92.0283 50.62C92.2283 50.7067 92.445 50.79 92.6783 50.87C92.9183 50.95 93.155 51.04 93.3883 51.14C93.6283 51.24 93.845 51.37 94.0383 51.53C94.2383 51.6833 94.3983 51.8833 94.5183 52.13C94.6383 52.3767 94.6983 52.6867 94.6983 53.06C94.6983 53.6867 94.475 54.1833 94.0283 54.55C93.5883 54.9167 92.9917 55.1 92.2383 55.1ZM99.245 55L97.215 52.55L99.235 50.2H100.545L98.225 52.84L98.275 52.21L100.645 55H99.245ZM96.195 55V47.8H97.295V55H96.195ZM101.637 55V50.2H102.737V55H101.637ZM102.187 49.32C102 49.32 101.843 49.2567 101.717 49.13C101.597 49.0033 101.537 48.8467 101.537 48.66C101.537 48.4733 101.597 48.3167 101.717 48.19C101.843 48.0633 102 48 102.187 48C102.38 48 102.537 48.0633 102.657 48.19C102.777 48.3167 102.837 48.4733 102.837 48.66C102.837 48.8467 102.777 49.0033 102.657 49.13C102.537 49.2567 102.38 49.32 102.187 49.32ZM104.47 55V47.8H105.57V55H104.47ZM107.295 55V47.8H108.395V55H107.295ZM115.251 55L116.351 48H117.281L116.181 55H115.251ZM112.441 52.9V52.02H117.671V52.9H112.441ZM113.091 55L114.191 48H115.121L114.021 55H113.091ZM112.751 50.83V49.95H117.991V50.83H112.751ZM120.577 55V48H121.707V55H120.577ZM119.177 49.03V48H121.607V49.03H119.177Z" fill="#7849EC"/>
<rect x="154" y="21" width="20" height="20" rx="10" fill="#7A4BEC"/>
<path d="M163.053 33.3867C162.92 33.3867 162.793 33.3334 162.7 33.2401L160.813 31.3534C160.62 31.1601 160.62 30.8401 160.813 30.6467C161.006 30.4534 161.326 30.4534 161.52 30.6467L163.053 32.1801L166.48 28.7534C166.673 28.5601 166.993 28.5601 167.186 28.7534C167.38 28.9467 167.38 29.2667 167.186 29.4601L163.406 33.2401C163.313 33.3334 163.186 33.3867 163.053 33.3867Z" fill="white"/>
<path d="M149.311 55.1C148.757 55.1 148.287 55 147.901 54.8C147.514 54.6 147.167 54.3067 146.861 53.92L147.641 53.14C147.834 53.42 148.064 53.64 148.331 53.8C148.597 53.9533 148.937 54.03 149.351 54.03C149.737 54.03 150.044 53.95 150.271 53.79C150.504 53.63 150.621 53.41 150.621 53.13C150.621 52.8967 150.561 52.7067 150.441 52.56C150.321 52.4133 150.161 52.2933 149.961 52.2C149.767 52.1 149.551 52.0133 149.311 51.94C149.077 51.86 148.841 51.7733 148.601 51.68C148.367 51.58 148.151 51.4567 147.951 51.31C147.757 51.1633 147.601 50.9733 147.481 50.74C147.361 50.5067 147.301 50.21 147.301 49.85C147.301 49.4367 147.401 49.0867 147.601 48.8C147.807 48.5067 148.084 48.2833 148.431 48.13C148.777 47.9767 149.164 47.9 149.591 47.9C150.051 47.9 150.461 47.99 150.821 48.17C151.187 48.35 151.484 48.58 151.711 48.86L150.931 49.64C150.731 49.4133 150.521 49.2467 150.301 49.14C150.087 49.0267 149.841 48.97 149.561 48.97C149.214 48.97 148.941 49.04 148.741 49.18C148.547 49.32 148.451 49.5167 148.451 49.77C148.451 49.9833 148.511 50.1567 148.631 50.29C148.751 50.4167 148.907 50.5267 149.101 50.62C149.301 50.7067 149.517 50.79 149.751 50.87C149.991 50.95 150.227 51.04 150.461 51.14C150.701 51.24 150.917 51.37 151.111 51.53C151.311 51.6833 151.471 51.8833 151.591 52.13C151.711 52.3767 151.771 52.6867 151.771 53.06C151.771 53.6867 151.547 54.1833 151.101 54.55C150.661 54.9167 150.064 55.1 149.311 55.1ZM156.317 55L154.287 52.55L156.307 50.2H157.617L155.297 52.84L155.347 52.21L157.717 55H156.317ZM153.267 55V47.8H154.367V55H153.267ZM158.709 55V50.2H159.809V55H158.709ZM159.259 49.32C159.072 49.32 158.916 49.2567 158.789 49.13C158.669 49.0033 158.609 48.8467 158.609 48.66C158.609 48.4733 158.669 48.3167 158.789 48.19C158.916 48.0633 159.072 48 159.259 48C159.452 48 159.609 48.0633 159.729 48.19C159.849 48.3167 159.909 48.4733 159.909 48.66C159.909 48.8467 159.849 49.0033 159.729 49.13C159.609 49.2567 159.452 49.32 159.259 49.32ZM161.543 55V47.8H162.643V55H161.543ZM164.367 55V47.8H165.467V55H164.367ZM172.323 55L173.423 48H174.353L173.253 55H172.323ZM169.513 52.9V52.02H174.743V52.9H169.513ZM170.163 55L171.263 48H172.193L171.093 55H170.163ZM169.823 50.83V49.95H175.063V50.83H169.823ZM176.269 54.32L178.849 51.58C179.063 51.3533 179.236 51.15 179.369 50.97C179.503 50.79 179.599 50.62 179.659 50.46C179.719 50.3 179.749 50.1367 179.749 49.97C179.749 49.6567 179.646 49.4133 179.439 49.24C179.239 49.06 178.983 48.97 178.669 48.97C178.336 48.97 178.043 49.0533 177.789 49.22C177.536 49.3867 177.309 49.6467 177.109 50L176.309 49.34C176.583 48.8667 176.919 48.51 177.319 48.27C177.719 48.0233 178.183 47.9 178.709 47.9C179.143 47.9 179.523 47.9867 179.849 48.16C180.176 48.3333 180.429 48.5767 180.609 48.89C180.789 49.1967 180.879 49.5533 180.879 49.96C180.879 50.2533 180.843 50.5167 180.769 50.75C180.703 50.9767 180.586 51.2067 180.419 51.44C180.253 51.6667 180.023 51.9333 179.729 52.24L177.749 54.29L176.269 54.32ZM176.269 55V54.32L177.259 53.97H181.019V55H176.269Z" fill="#7849EC"/>
<rect x="212" y="21" width="20" height="20" rx="10" fill="#7A4BEC"/>
<path d="M221.053 33.3867C220.92 33.3867 220.793 33.3334 220.7 33.2401L218.813 31.3534C218.62 31.1601 218.62 30.8401 218.813 30.6467C219.006 30.4534 219.326 30.4534 219.52 30.6467L221.053 32.1801L224.48 28.7534C224.673 28.5601 224.993 28.5601 225.186 28.7534C225.38 28.9467 225.38 29.2667 225.186 29.4601L221.406 33.2401C221.313 33.3334 221.186 33.3867 221.053 33.3867Z" fill="white"/>
<path d="M207.315 55.1C206.762 55.1 206.292 55 205.905 54.8C205.519 54.6 205.172 54.3067 204.865 53.92L205.645 53.14C205.839 53.42 206.069 53.64 206.335 53.8C206.602 53.9533 206.942 54.03 207.355 54.03C207.742 54.03 208.049 53.95 208.275 53.79C208.509 53.63 208.625 53.41 208.625 53.13C208.625 52.8967 208.565 52.7067 208.445 52.56C208.325 52.4133 208.165 52.2933 207.965 52.2C207.772 52.1 207.555 52.0133 207.315 51.94C207.082 51.86 206.845 51.7733 206.605 51.68C206.372 51.58 206.155 51.4567 205.955 51.31C205.762 51.1633 205.605 50.9733 205.485 50.74C205.365 50.5067 205.305 50.21 205.305 49.85C205.305 49.4367 205.405 49.0867 205.605 48.8C205.812 48.5067 206.089 48.2833 206.435 48.13C206.782 47.9767 207.169 47.9 207.595 47.9C208.055 47.9 208.465 47.99 208.825 48.17C209.192 48.35 209.489 48.58 209.715 48.86L208.935 49.64C208.735 49.4133 208.525 49.2467 208.305 49.14C208.092 49.0267 207.845 48.97 207.565 48.97C207.219 48.97 206.945 49.04 206.745 49.18C206.552 49.32 206.455 49.5167 206.455 49.77C206.455 49.9833 206.515 50.1567 206.635 50.29C206.755 50.4167 206.912 50.5267 207.105 50.62C207.305 50.7067 207.522 50.79 207.755 50.87C207.995 50.95 208.232 51.04 208.465 51.14C208.705 51.24 208.922 51.37 209.115 51.53C209.315 51.6833 209.475 51.8833 209.595 52.13C209.715 52.3767 209.775 52.6867 209.775 53.06C209.775 53.6867 209.552 54.1833 209.105 54.55C208.665 54.9167 208.069 55.1 207.315 55.1ZM214.322 55L212.292 52.55L214.312 50.2H215.622L213.302 52.84L213.352 52.21L215.722 55H214.322ZM211.272 55V47.8H212.372V55H211.272ZM216.714 55V50.2H217.814V55H216.714ZM217.264 49.32C217.077 49.32 216.92 49.2567 216.794 49.13C216.674 49.0033 216.614 48.8467 216.614 48.66C216.614 48.4733 216.674 48.3167 216.794 48.19C216.92 48.0633 217.077 48 217.264 48C217.457 48 217.614 48.0633 217.734 48.19C217.854 48.3167 217.914 48.4733 217.914 48.66C217.914 48.8467 217.854 49.0033 217.734 49.13C217.614 49.2567 217.457 49.32 217.264 49.32ZM219.548 55V47.8H220.648V55H219.548ZM222.372 55V47.8H223.472V55H222.372ZM230.328 55L231.428 48H232.358L231.258 55H230.328ZM227.518 52.9V52.02H232.748V52.9H227.518ZM228.168 55L229.268 48H230.198L229.098 55H228.168ZM227.828 50.83V49.95H233.068V50.83H227.828ZM236.454 55.1C235.987 55.1 235.564 55.0167 235.184 54.85C234.811 54.6767 234.494 54.4267 234.234 54.1L235.014 53.32C235.154 53.5333 235.351 53.7033 235.604 53.83C235.857 53.9567 236.134 54.02 236.434 54.02C236.721 54.02 236.967 53.9667 237.174 53.86C237.381 53.7533 237.541 53.6033 237.654 53.41C237.774 53.2167 237.834 52.9933 237.834 52.74C237.834 52.4733 237.774 52.2467 237.654 52.06C237.541 51.8733 237.374 51.73 237.154 51.63C236.941 51.5233 236.681 51.47 236.374 51.47C236.254 51.47 236.131 51.48 236.004 51.5C235.877 51.5133 235.764 51.5367 235.664 51.57L236.174 50.91C236.314 50.8567 236.461 50.8133 236.614 50.78C236.774 50.74 236.927 50.72 237.074 50.72C237.434 50.72 237.757 50.8067 238.044 50.98C238.337 51.1533 238.567 51.3967 238.734 51.71C238.907 52.0167 238.994 52.38 238.994 52.8C238.994 53.2533 238.887 53.6533 238.674 54C238.461 54.3467 238.164 54.6167 237.784 54.81C237.404 55.0033 236.961 55.1 236.454 55.1ZM235.664 51.57V50.89L237.534 48.71L238.914 48.68L236.964 50.92L235.664 51.57ZM234.584 49.03V48H238.914V48.68L237.924 49.03H234.584Z" fill="#7849EC"/>
<rect x="270" y="21" width="20" height="20" rx="10" fill="#198038"/>
<path d="M279.053 33.3867C278.92 33.3867 278.793 33.3334 278.7 33.2401L276.813 31.3534C276.62 31.1601 276.62 30.8401 276.813 30.6467C277.006 30.4534 277.326 30.4534 277.52 30.6467L279.053 32.1801L282.48 28.7534C282.673 28.5601 282.993 28.5601 283.186 28.7534C283.38 28.9467 283.38 29.2667 283.186 29.4601L279.406 33.2401C279.313 33.3334 279.186 33.3867 279.053 33.3867Z" fill="white"/>
<path d="M256.51 55.1C255.956 55.1 255.486 55 255.1 54.8C254.713 54.6 254.366 54.3067 254.06 53.92L254.84 53.14C255.033 53.42 255.263 53.64 255.53 53.8C255.796 53.9533 256.136 54.03 256.55 54.03C256.936 54.03 257.243 53.95 257.47 53.79C257.703 53.63 257.82 53.41 257.82 53.13C257.82 52.8967 257.76 52.7067 257.64 52.56C257.52 52.4133 257.36 52.2933 257.16 52.2C256.966 52.1 256.75 52.0133 256.51 51.94C256.276 51.86 256.04 51.7733 255.8 51.68C255.566 51.58 255.35 51.4567 255.15 51.31C254.956 51.1633 254.8 50.9733 254.68 50.74C254.56 50.5067 254.5 50.21 254.5 49.85C254.5 49.4367 254.6 49.0867 254.8 48.8C255.006 48.5067 255.283 48.2833 255.63 48.13C255.976 47.9767 256.363 47.9 256.79 47.9C257.25 47.9 257.66 47.99 258.02 48.17C258.386 48.35 258.683 48.58 258.91 48.86L258.13 49.64C257.93 49.4133 257.72 49.2467 257.5 49.14C257.286 49.0267 257.04 48.97 256.76 48.97C256.413 48.97 256.14 49.04 255.94 49.18C255.746 49.32 255.65 49.5167 255.65 49.77C255.65 49.9833 255.71 50.1567 255.83 50.29C255.95 50.4167 256.106 50.5267 256.3 50.62C256.5 50.7067 256.716 50.79 256.95 50.87C257.19 50.95 257.426 51.04 257.66 51.14C257.9 51.24 258.116 51.37 258.31 51.53C258.51 51.6833 258.67 51.8833 258.79 52.13C258.91 52.3767 258.97 52.6867 258.97 53.06C258.97 53.6867 258.746 54.1833 258.3 54.55C257.86 54.9167 257.263 55.1 256.51 55.1ZM262.618 55.1C262.145 55.1 261.715 54.99 261.328 54.77C260.948 54.55 260.648 54.25 260.428 53.87C260.208 53.49 260.098 53.0667 260.098 52.6C260.098 52.1267 260.208 51.7033 260.428 51.33C260.648 50.95 260.948 50.65 261.328 50.43C261.715 50.21 262.145 50.1 262.618 50.1C262.991 50.1 263.338 50.1733 263.658 50.32C263.985 50.46 264.261 50.6633 264.488 50.93L263.768 51.66C263.628 51.4933 263.458 51.37 263.258 51.29C263.065 51.2033 262.851 51.16 262.618 51.16C262.345 51.16 262.101 51.2233 261.888 51.35C261.681 51.47 261.518 51.6367 261.398 51.85C261.285 52.0633 261.228 52.3133 261.228 52.6C261.228 52.88 261.285 53.13 261.398 53.35C261.518 53.5633 261.681 53.7333 261.888 53.86C262.101 53.98 262.345 54.04 262.618 54.04C262.851 54.04 263.065 54 263.258 53.92C263.458 53.8333 263.628 53.7067 263.768 53.54L264.488 54.27C264.261 54.5367 263.985 54.7433 263.658 54.89C263.338 55.03 262.991 55.1 262.618 55.1ZM267.883 55.1C267.417 55.1 266.993 54.99 266.613 54.77C266.233 54.5433 265.93 54.24 265.703 53.86C265.483 53.48 265.373 53.0567 265.373 52.59C265.373 52.1233 265.483 51.7033 265.703 51.33C265.93 50.9567 266.233 50.66 266.613 50.44C266.993 50.2133 267.417 50.1 267.883 50.1C268.357 50.1 268.783 50.21 269.163 50.43C269.543 50.65 269.843 50.95 270.063 51.33C270.29 51.7033 270.403 52.1233 270.403 52.59C270.403 53.0567 270.29 53.48 270.063 53.86C269.843 54.24 269.543 54.5433 269.163 54.77C268.783 54.99 268.357 55.1 267.883 55.1ZM267.883 54.04C268.157 54.04 268.397 53.98 268.603 53.86C268.817 53.7333 268.98 53.56 269.093 53.34C269.213 53.12 269.273 52.87 269.273 52.59C269.273 52.31 269.213 52.0633 269.093 51.85C268.973 51.6367 268.81 51.47 268.603 51.35C268.397 51.2233 268.157 51.16 267.883 51.16C267.617 51.16 267.377 51.2233 267.163 51.35C266.957 51.47 266.793 51.6367 266.673 51.85C266.56 52.0633 266.503 52.31 266.503 52.59C266.503 52.87 266.56 53.12 266.673 53.34C266.793 53.56 266.957 53.7333 267.163 53.86C267.377 53.98 267.617 54.04 267.883 54.04ZM271.818 55V50.2H272.918V55H271.818ZM272.918 52.33L272.538 52.14C272.538 51.5333 272.671 51.0433 272.938 50.67C273.211 50.29 273.621 50.1 274.168 50.1C274.408 50.1 274.625 50.1433 274.818 50.23C275.011 50.3167 275.191 50.4567 275.358 50.65L274.638 51.39C274.551 51.2967 274.455 51.23 274.348 51.19C274.241 51.15 274.118 51.13 273.978 51.13C273.671 51.13 273.418 51.2267 273.218 51.42C273.018 51.6133 272.918 51.9167 272.918 52.33ZM278.474 55.1C277.994 55.1 277.56 54.9933 277.174 54.78C276.794 54.56 276.49 54.26 276.264 53.88C276.044 53.5 275.934 53.0733 275.934 52.6C275.934 52.1267 276.044 51.7033 276.264 51.33C276.484 50.95 276.78 50.65 277.154 50.43C277.534 50.21 277.954 50.1 278.414 50.1C278.86 50.1 279.254 50.2033 279.594 50.41C279.94 50.6167 280.21 50.9 280.404 51.26C280.604 51.62 280.704 52.03 280.704 52.49C280.704 52.57 280.697 52.6533 280.684 52.74C280.677 52.82 280.664 52.91 280.644 53.01H276.704V52.11H280.074L279.664 52.47C279.65 52.1767 279.594 51.93 279.494 51.73C279.394 51.53 279.25 51.3767 279.064 51.27C278.884 51.1633 278.66 51.11 278.394 51.11C278.114 51.11 277.87 51.17 277.664 51.29C277.457 51.41 277.297 51.58 277.184 51.8C277.07 52.0133 277.014 52.27 277.014 52.57C277.014 52.87 277.074 53.1333 277.194 53.36C277.314 53.5867 277.484 53.7633 277.704 53.89C277.924 54.01 278.177 54.07 278.464 54.07C278.71 54.07 278.937 54.0267 279.144 53.94C279.357 53.8533 279.537 53.7267 279.684 53.56L280.384 54.27C280.15 54.5433 279.867 54.75 279.534 54.89C279.2 55.03 278.847 55.1 278.474 55.1ZM284.738 55V48H285.888V55H284.738ZM289.188 55V48H290.338V55H289.188ZM285.528 51.9V50.85H289.438V51.9H285.528ZM292.217 55V50.2H293.317V55H292.217ZM292.767 49.32C292.58 49.32 292.423 49.2567 292.297 49.13C292.177 49.0033 292.117 48.8467 292.117 48.66C292.117 48.4733 292.177 48.3167 292.297 48.19C292.423 48.0633 292.58 48 292.767 48C292.96 48 293.117 48.0633 293.237 48.19C293.357 48.3167 293.417 48.4733 293.417 48.66C293.417 48.8467 293.357 49.0033 293.237 49.13C293.117 49.2567 292.96 49.32 292.767 49.32ZM297.05 57.1C296.544 57.1 296.1 57.0067 295.72 56.82C295.34 56.64 295.034 56.3833 294.8 56.05L295.52 55.33C295.714 55.57 295.934 55.75 296.18 55.87C296.427 55.99 296.724 56.05 297.07 56.05C297.504 56.05 297.847 55.9367 298.1 55.71C298.354 55.49 298.48 55.1867 298.48 54.8V53.62L298.67 52.56L298.48 51.49V50.2H299.58V54.8C299.58 55.26 299.474 55.66 299.26 56C299.047 56.3467 298.75 56.6167 298.37 56.81C297.99 57.0033 297.55 57.1 297.05 57.1ZM297 54.9C296.574 54.9 296.187 54.7967 295.84 54.59C295.5 54.3767 295.23 54.0867 295.03 53.72C294.837 53.3533 294.74 52.9433 294.74 52.49C294.74 52.0367 294.837 51.63 295.03 51.27C295.23 50.91 295.5 50.6267 295.84 50.42C296.187 50.2067 296.574 50.1 297 50.1C297.38 50.1 297.714 50.1767 298 50.33C298.287 50.4833 298.51 50.6967 298.67 50.97C298.83 51.2367 298.91 51.55 298.91 51.91V53.09C298.91 53.4433 298.827 53.7567 298.66 54.03C298.5 54.3033 298.277 54.5167 297.99 54.67C297.704 54.8233 297.374 54.9 297 54.9ZM297.22 53.86C297.487 53.86 297.72 53.8033 297.92 53.69C298.12 53.5767 298.274 53.42 298.38 53.22C298.494 53.0133 298.55 52.7733 298.55 52.5C298.55 52.2267 298.494 51.99 298.38 51.79C298.274 51.5833 298.12 51.4233 297.92 51.31C297.72 51.1967 297.487 51.14 297.22 51.14C296.954 51.14 296.717 51.1967 296.51 51.31C296.31 51.4233 296.154 51.5833 296.04 51.79C295.927 51.99 295.87 52.2267 295.87 52.5C295.87 52.7667 295.927 53.0033 296.04 53.21C296.154 53.4167 296.31 53.5767 296.51 53.69C296.717 53.8033 296.954 53.86 297.22 53.86ZM304.592 55V52.23C304.592 51.91 304.489 51.6467 304.282 51.44C304.082 51.2333 303.822 51.13 303.502 51.13C303.289 51.13 303.099 51.1767 302.932 51.27C302.766 51.3633 302.636 51.4933 302.542 51.66C302.449 51.8267 302.402 52.0167 302.402 52.23L301.972 51.99C301.972 51.6233 302.052 51.3 302.212 51.02C302.372 50.7333 302.592 50.51 302.872 50.35C303.159 50.1833 303.479 50.1 303.832 50.1C304.192 50.1 304.512 50.18 304.792 50.34C305.072 50.5 305.292 50.7233 305.452 51.01C305.612 51.29 305.692 51.6167 305.692 51.99V55H304.592ZM301.302 55V47.8H302.402V55H301.302Z" fill="#198038"/>
</svg>
